<?xml version="1.0" ?><svg viewBox="0 0 512 512" xmlns="http://www.w3.org/2000/svg" xmlns:xlink="http://www.w3.org/1999/xlink"><defs><style>.cls-1{fill:url(#radial-gradient);}.cls-2{fill:url(#radial-gradient-2);}.cls-3{fill:url(#linear-gradient);}.cls-4{fill:url(#linear-gradient-2);}.cls-5{fill:url(#linear-gradient-3);}.cls-6{fill:url(#linear-gradient-4);}.cls-7{fill:url(#radial-gradient-3);}.cls-8{fill:url(#linear-gradient-5);}.cls-9{fill:url(#linear-gradient-6);}.cls-10{fill:url(#linear-gradient-7);}.cls-11{fill:url(#linear-gradient-8);}.cls-12{fill:url(#linear-gradient-9);}</style><radialGradient cx="255.2425" cy="457.6063" gradientUnits="userSpaceOnUse" id="radial-gradient" r="143.047"><stop offset="0" stop-color="#9595d8"/><stop offset="0.0434" stop-color="#9696d4"/><stop offset="0.2562" stop-color="#9898c6"/><stop offset="0.5215" stop-color="#9999be"/><stop offset="1" stop-color="#9999bc"/></radialGradient><radialGradient cx="173.4073" cy="95.7577" gradientUnits="userSpaceOnUse" id="radial-gradient-2" r="384.5647"><stop offset="0" stop-color="#ffcc73"/><stop offset="0.4062" stop-color="#ffc874"/><stop offset="0.8266" stop-color="#ffbb75"/><stop offset="1" stop-color="#ffb476"/></radialGradient><linearGradient gradientUnits="userSpaceOnUse" id="linear-gradient" x1="176.7424" x2="231.9409" y1="153.9338" y2="153.9338"><stop offset="0" stop-color="#f24170"/><stop offset="0.1228" stop-color="#f34772"/><stop offset="0.4127" stop-color="#f44f74"/><stop offset="1" stop-color="#f45175"/></linearGradient><linearGradient id="linear-gradient-2" x1="176.6034" x2="231.808" xlink:href="#linear-gradient" y1="257.195" y2="257.195"/><linearGradient id="linear-gradient-3" x1="279.8676" x2="335.0661" xlink:href="#linear-gradient" y1="257.3308" y2="257.3308"/><linearGradient id="linear-gradient-4" x1="280.0004" x2="335.205" xlink:href="#linear-gradient" y1="154.0697" y2="154.0697"/><radialGradient cx="155.3189" cy="135.662" gradientUnits="userSpaceOnUse" id="radial-gradient-3" r="150.0442"><stop offset="0" stop-color="#f9809a"/><stop offset="0.4346" stop-color="#f87c98"/><stop offset="0.894" stop-color="#f36f90"/><stop offset="1" stop-color="#f26b8e"/></radialGradient><linearGradient id="linear-gradient-5" x1="245.4485" x2="266.5514" xlink:href="#linear-gradient" y1="131.9487" y2="131.9487"/><linearGradient id="linear-gradient-6" x1="147.8526" x2="216.5887" xlink:href="#linear-gradient" y1="205.5366" y2="205.5366"/><linearGradient id="linear-gradient-7" x1="245.257" x2="266.36" xlink:href="#linear-gradient" y1="279.316" y2="279.316"/><linearGradient id="linear-gradient-8" x1="295.2198" x2="363.9559" xlink:href="#linear-gradient" y1="205.7281" y2="205.7281"/><linearGradient gradientUnits="userSpaceOnUse" id="linear-gradient-9" x1="245.3241" x2="266.3274" y1="205.8129" y2="205.8129"><stop offset="0" stop-color="#f45175"/><stop offset="0.5922" stop-color="#f34973"/><stop offset="1" stop-color="#f24170"/></linearGradient></defs><title/><g id="Smooth-Virus"><g data-name="covid-19 coronavirus bacteria virus location pin placeholder" id="covid-19_coronavirus_bacteria_virus_location_pin_placeholder-4"><ellipse class="cls-1" cx="256" cy="458.3636" rx="99.2727" ry="22.9091"/><path class="cls-2" d="M256,458.3636c5.9967-5.5689,60.7543-56.9157,103.3054-110.5128,32.3616-40.7625,62.87-88.722,64.6946-149.1235a168,168,0,0,0-336,0c1.8244,60.4015,32.333,108.361,64.6946,149.1235C195.2457,401.4479,250.0033,452.7947,256,458.3636Z"/><path class="cls-3" d="M228.8313,163.6017c-8.7877-6.896-20.6827-16.9327-30.3051-24.6722a7.5377,7.5377,0,0,1-2.6462-4.6217,9.64,9.64,0,1,0-11.1689,11.1643,7.5478,7.5478,0,0,1,4.6261,2.6472c7.7395,9.6223,17.776,21.5172,24.6718,30.3046C221.9287,188.5156,238.9147,171.5149,228.8313,163.6017Z"/><path class="cls-4" d="M213.8736,232.7053c-6.896,8.7876-16.9327,20.6827-24.6722,30.305a7.5374,7.5374,0,0,1-4.6217,2.6463,9.64,9.64,0,1,0,11.1643,11.1689,7.5473,7.5473,0,0,1,2.6472-4.6261c9.6223-7.74,21.5172-17.7761,30.3046-24.6719C238.7875,239.6079,221.7868,222.6219,213.8736,232.7053Z"/><path class="cls-5" d="M282.9772,247.663c8.7876,6.8959,20.6827,16.9327,30.305,24.6722a7.5374,7.5374,0,0,1,2.6463,4.6217,9.64,9.64,0,1,0,11.1689-11.1643,7.5483,7.5483,0,0,1-4.6262-2.6472c-7.74-9.6223-17.776-21.5172-24.6718-30.3046C289.88,222.749,272.8937,239.75,282.9772,247.663Z"/><path class="cls-6" d="M297.9349,178.5594c6.8959-8.7877,16.9326-20.6827,24.6722-30.3051a7.5375,7.5375,0,0,1,4.6217-2.6462,9.64,9.64,0,1,0-11.1644-11.1689,7.5468,7.5468,0,0,1-2.6472,4.6261c-9.6223,7.7395-21.5171,17.7761-30.3046,24.6719C273.0209,171.6568,290.0217,188.6428,297.9349,178.5594Z"/><path class="cls-7" d="M254.6566,151.9505c-28.3394.5973-52.1323,23.9183-52.81,52.5751-.6987,29.5547,23.4261,54.7681,53.2792,55.1569,29.5407.3847,54.2413-23.6746,54.6874-53.0445C310.2751,176.2458,284.5952,151.3194,254.6566,151.9505Z"/><path class="cls-8" d="M266.4809,156.7687c-1.3376-11.09-2.6517-26.598-3.983-38.8748a7.5377,7.5377,0,0,1,1.3968-5.1392,9.64,9.64,0,1,0-15.7919-.0032,7.5476,7.5476,0,0,1,1.3993,5.143c-1.3314,12.2767-2.6454,27.7845-3.983,38.8742C243.9832,169.5047,268.0155,169.4943,266.4809,156.7687Z"/><path class="cls-9" d="M207.0406,195.0557c-11.09,1.3376-26.5981,2.6516-38.8748,3.983a7.5378,7.5378,0,0,1-5.1392-1.3969,9.64,9.64,0,1,0-.0032,15.792,7.5471,7.5471,0,0,1,5.143-1.3993c12.2766,1.3313,27.7845,2.6454,38.8742,3.983C219.7766,217.5533,219.7661,193.5211,207.0406,195.0557Z"/><path class="cls-10" d="M245.3275,254.496c1.3377,11.09,2.6517,26.598,3.9831,38.8748a7.5378,7.5378,0,0,1-1.3969,5.1392,9.64,9.64,0,1,0,15.792.0032,7.5472,7.5472,0,0,1-1.3993-5.143c1.3313-12.2767,2.6453-27.7845,3.9829-38.8742C267.8252,241.76,243.7929,241.77,245.3275,254.496Z"/><path class="cls-11" d="M304.7678,216.209c11.09-1.3376,26.5981-2.6516,38.8748-3.983a7.5383,7.5383,0,0,1,5.1393,1.3968,9.64,9.64,0,1,0,.0032-15.7919,7.5472,7.5472,0,0,1-5.143,1.3993c-12.2767-1.3313-27.7845-2.6454-38.8743-3.983C292.0319,193.7114,292.0423,217.7436,304.7678,216.209Z"/><path class="cls-12" d="M255.5984,195.3368a10.4789,10.4789,0,1,0,10.7278,10.6366A10.574,10.574,0,0,0,255.5984,195.3368Z"/></g></g></svg>