<?xml version="1.0" encoding="UTF-8" standalone="no"?>
<svg
   xmlns:dc="http://purl.org/dc/elements/1.1/"
   xmlns:cc="http://creativecommons.org/ns#"
   xmlns:rdf="http://www.w3.org/1999/02/22-rdf-syntax-ns#"
   xmlns:svg="http://www.w3.org/2000/svg"
   xmlns="http://www.w3.org/2000/svg"
   xmlns:sodipodi="http://sodipodi.sourceforge.net/DTD/sodipodi-0.dtd"
   xmlns:inkscape="http://www.inkscape.org/namespaces/inkscape"
   viewBox="0 0 512 512"
   version="1.1"
   id="svg212"
   sodipodi:docname="death.svg"
   inkscape:version="0.92.5 (2060ec1f9f, 2020-04-08)">
  <metadata
     id="metadata218">
    <rdf:RDF>
      <cc:Work
         rdf:about="">
        <dc:format>image/svg+xml</dc:format>
        <dc:type
           rdf:resource="http://purl.org/dc/dcmitype/StillImage" />
        <dc:title></dc:title>
      </cc:Work>
    </rdf:RDF>
  </metadata>
  <defs
     id="defs216" />
  <sodipodi:namedview
     pagecolor="#ffffff"
     bordercolor="#666666"
     borderopacity="1"
     objecttolerance="10"
     gridtolerance="10"
     guidetolerance="10"
     inkscape:pageopacity="0"
     inkscape:pageshadow="2"
     inkscape:window-width="1600"
     inkscape:window-height="873"
     id="namedview214"
     showgrid="false"
     inkscape:zoom="1.3037281"
     inkscape:cx="200.32915"
     inkscape:cy="262.89352"
     inkscape:window-x="0"
     inkscape:window-y="27"
     inkscape:window-maximized="1"
     inkscape:current-layer="svg212" />
  <path
     d="m 252.7473,121.18 c -70.746,1.4912 -130.1423,59.7092 -131.8336,131.2476 -1.7442,73.78 58.4806,136.7223 133.0054,137.6929 73.7451,0.96 135.4073,-59.1008 136.521,-132.42 1.1524,-75.87 -62.9545,-138.0958 -137.6928,-136.5205 z"
     id="path168"
     inkscape:connector-curvature="0"
     style="fill:#ffcc73" />
  <path
     d="m 89.7106,133.9952 c 12.2755,12.6541 32.5513,12.8248 44.5713,0.2871 12.5378,-12.02 12.367,-32.2958 -0.2871,-44.5714 -19.2866,-18.7094 -62.9839,25.0078 -44.2842,44.2843 z"
     id="path170"
     inkscape:connector-curvature="0"
     style="fill:#445016" />
  <path
     d="M 203.48,175.0689 C 186.6363,161.851 163.8363,142.613 145.3926,127.7782 A 14.4477,14.4477 0 0 1 140.32,118.92 18.4987,18.4987 0 0 0 110.6377,107.6456 c -12.6335,10.107 -7.1251,29.9713 8.2743,32.6738 a 14.4659,14.4659 0 0 1 8.8671,5.074 c 14.8348,18.4437 34.0724,41.2432 47.29,58.0866 15.1818,19.3453 47.7343,-13.2463 28.4109,-28.4111 z"
     id="path172"
     inkscape:connector-curvature="0"
     style="fill:#668000" />
  <path
     d="m 133.9952,422.2894 c 12.6541,-12.2755 12.8248,-32.5513 0.2871,-44.5713 -12.02,-12.5378 -32.2958,-12.367 -44.5714,0.2871 -18.7094,19.2866 25.0078,62.9839 44.2843,44.2842 z"
     id="path174"
     inkscape:connector-curvature="0"
     style="fill:#445016" />
  <path
     d="m 175.0689,308.5205 c -13.2179,16.8437 -32.4559,39.6437 -47.2907,58.0874 a 14.4477,14.4477 0 0 1 -8.8582,5.0721 18.4987,18.4987 0 0 0 -11.2744,29.6823 c 10.107,12.6335 29.9713,7.1251 32.6738,-8.2743 a 14.4659,14.4659 0 0 1 5.074,-8.8671 c 18.4437,-14.8348 41.2432,-34.0724 58.0866,-47.29 19.3453,-15.1818 -13.2463,-47.7343 -28.4111,-28.4104 z"
     id="path176"
     inkscape:connector-curvature="0"
     style="fill:#668000" />
  <path
     d="m 422.2894,378.0048 c -12.2755,-12.6541 -32.5513,-12.8248 -44.5713,-0.2871 -12.5378,12.02 -12.367,32.2958 0.2871,44.5714 19.2866,18.7094 62.9839,-25.0078 44.2842,-44.2843 z"
     id="path178"
     inkscape:connector-curvature="0"
     style="fill:#445016" />
  <path
     d="m 308.5205,336.9311 c 16.8437,13.2179 39.6437,32.4559 58.0874,47.2907 a 14.4477,14.4477 0 0 1 5.0723,8.8587 18.4987,18.4987 0 0 0 29.6823,11.2744 c 12.6335,-10.107 7.1251,-29.9713 -8.2743,-32.6738 a 14.4659,14.4659 0 0 1 -8.8671,-5.074 c -14.8348,-18.4437 -34.0724,-41.2432 -47.29,-58.0866 -15.182,-19.3458 -47.7345,13.2458 -28.4106,28.4106 z"
     id="path180"
     inkscape:connector-curvature="0"
     style="fill:#668000" />
  <path
     d="m 378.0048,89.7106 c -12.6541,12.2755 -12.8248,32.5513 -0.2871,44.5713 12.02,12.5378 32.2958,12.367 44.5714,-0.2871 18.7094,-19.2866 -25.0078,-62.9839 -44.2843,-44.2842 z"
     id="path182"
     inkscape:connector-curvature="0"
     style="fill:#445016" />
  <path
     d="m 336.9311,203.48 c 13.2179,-16.8437 32.4559,-39.6437 47.2907,-58.0874 a 14.4477,14.4477 0 0 1 8.8587,-5.0723 18.4987,18.4987 0 0 0 11.2744,-29.6823 c -10.107,-12.6335 -29.9713,-7.1251 -32.6738,8.2743 a 14.4659,14.4659 0 0 1 -5.074,8.8671 c -18.4437,14.8348 -41.2432,34.0724 -58.0866,47.29 -19.3458,15.1815 13.2458,47.734 28.4106,28.4106 z"
     id="path184"
     inkscape:connector-curvature="0"
     style="fill:#668000" />
  <path
     d="m 253.425,152.4 c -54.32,1.145 -99.9251,45.8456 -101.2236,100.7738 -1.3393,56.6492 44.9021,104.9773 102.1233,105.7225 56.6225,0.7373 103.9676,-45.3784 104.8227,-101.6736 C 360.0323,198.9684 310.81,151.1905 253.425,152.4 Z"
     id="path186"
     inkscape:connector-curvature="0"
     style="fill:#445016" />
  <path
     d="M 224.6861,52.1452 C 224.4184,69.7731 238.6348,84.231 256,83.8649 c 17.365,0.3661 31.5814,-14.0918 31.3137,-31.72 -0.4084,-26.867 -62.2197,-26.8529 -62.6276,3e-4 z"
     id="path188"
     inkscape:connector-curvature="0"
     style="fill:#445016;fill-opacity:1" />
  <path
     d="m 276.0894,161.6355 c -2.5639,-21.2568 -5.0826,-50.9821 -7.6345,-74.5136 a 14.4483,14.4483 0 0 1 2.6774,-9.8507 18.4986,18.4986 0 0 0 -13.0164,-28.9607 c -16.1066,-1.7895 -26.2183,16.1728 -17.253,28.9546 a 14.4658,14.4658 0 0 1 2.6821,9.8579 c -2.5518,23.5314 -5.07,53.2561 -7.6344,74.5125 -2.9442,24.4145 43.1194,24.3872 40.1788,0 z"
     id="path190"
     inkscape:connector-curvature="0"
     style="fill:#668000" />
  <path
     d="m 52.1452,287.3139 c 17.6279,0.2677 32.0858,-13.9487 31.72,-31.3136 0.3661,-17.365 -14.0918,-31.5814 -31.72,-31.3137 -26.8673,0.4081 -26.8532,62.2194 0,62.6273 z"
     id="path192"
     inkscape:connector-curvature="0"
     style="fill:#445016" />
  <path
     d="m 161.6355,235.9106 c -21.2568,2.5639 -50.9821,5.0826 -74.5136,7.6345 a 14.4483,14.4483 0 0 1 -9.8507,-2.6774 18.4986,18.4986 0 0 0 -28.9607,13.0164 c -1.7895,16.1066 16.1728,26.2183 28.9546,17.253 a 14.4658,14.4658 0 0 1 9.8579,-2.6821 c 23.5314,2.5518 53.2561,5.0705 74.5125,7.6344 24.4145,2.9442 24.3872,-43.1194 0,-40.1788 z"
     id="path194"
     inkscape:connector-curvature="0"
     style="fill:#668000" />
  <path
     d="m 287.3139,459.8548 c 0.2677,-17.6279 -13.9487,-32.0858 -31.3136,-31.72 -17.365,-0.3661 -31.5814,14.0918 -31.3137,31.72 0.4081,26.8673 62.2194,26.8532 62.6273,0 z"
     id="path196"
     inkscape:connector-curvature="0"
     style="fill:#445016" />
  <path
     d="m 235.9106,350.3645 c 2.5639,21.2568 5.0826,50.9821 7.6345,74.5136 a 14.4483,14.4483 0 0 1 -2.6774,9.8507 18.4986,18.4986 0 0 0 13.0164,28.9612 c 16.1066,1.7895 26.2183,-16.1728 17.253,-28.9546 a 14.4658,14.4658 0 0 1 -2.6821,-9.8579 c 2.5518,-23.5314 5.0705,-53.2561 7.6344,-74.5125 2.9442,-24.415 -43.1194,-24.3877 -40.1788,-5e-4 z"
     id="path198"
     inkscape:connector-curvature="0"
     style="fill:#668000" />
  <path
     d="m 459.8548,224.6861 c -17.6279,-0.2677 -32.0858,13.9487 -31.72,31.3136 -0.3661,17.365 14.0918,31.5814 31.72,31.3137 26.8673,-0.4081 26.8532,-62.2194 0,-62.6273 z"
     id="path200"
     inkscape:connector-curvature="0"
     style="fill:#445016" />
  <path
     d="m 350.3645,276.0894 c 21.2568,-2.5639 50.9821,-5.0826 74.5136,-7.6345 a 14.4483,14.4483 0 0 1 9.8507,2.6774 18.4986,18.4986 0 0 0 28.9612,-13.0164 c 1.7895,-16.1066 -16.1728,-26.2183 -28.9546,-17.253 a 14.4658,14.4658 0 0 1 -9.8579,2.6821 c -23.5314,-2.5518 -53.2561,-5.07 -74.5125,-7.6344 -24.415,-2.9442 -24.3877,43.1194 -5e-4,40.1788 z"
     id="path202"
     inkscape:connector-curvature="0"
     style="fill:#668000" />
  <path
     d="m 292.0424,225.8086 a 20.0855,20.0855 0 1 0 20.5627,20.3877 20.2678,20.2678 0 0 0 -20.5627,-20.3877 z"
     id="path204"
     inkscape:connector-curvature="0"
     style="fill:#668000" />
  <path
     d="m 232.1708,205.724 a 20.0855,20.0855 0 1 0 20.5627,20.3878 20.2679,20.2679 0 0 0 -20.5627,-20.3878 z"
     id="path206"
     inkscape:connector-curvature="0"
     style="fill:#668000" />
  <path
     d="m 243.1157,263.3465 a 20.0855,20.0855 0 1 0 20.5627,20.3877 20.2678,20.2678 0 0 0 -20.5627,-20.3877 z"
     id="path208"
     inkscape:connector-curvature="0"
     style="fill:#668000" />
</svg>
