<?xml version="1.0" ?>
<svg viewBox="0 0 512 512" 
    xmlns="http://www.w3.org/2000/svg">

    <title/>
    <g id="Flat-Virus">
        <g data-name="covid-19 coronavirus bacteria virus biology healthcare medical" id="covid-19_coronavirus_bacteria_virus_biology_healthcare_medical-2">
            <path fill="#ffcc73" d="M252.7473,121.18c-70.746,1.4912-130.1423,59.7092-131.8336,131.2476-1.7442,73.78,58.4806,136.7223,133.0054,137.6929,73.7451.96,135.4073-59.1008,136.521-132.42C391.5925,181.8305,327.4856,119.6047,252.7473,121.18Z"/>
            <path fill="#f9809a" d="M89.7106,133.9952c12.2755,12.6541,32.5513,12.8248,44.5713.2871,12.5378-12.02,12.367-32.2958-.2871-44.5714C114.7082,71.0015,71.0109,114.7187,89.7106,133.9952Z"/>
            <path fill="#f45175" d="M203.48,175.0689c-16.8437-13.2179-39.6437-32.4559-58.0874-47.2907A14.4477,14.4477,0,0,1,140.32,118.92a18.4987,18.4987,0,0,0-29.6823-11.2744c-12.6335,10.107-7.1251,29.9713,8.2743,32.6738a14.4659,14.4659,0,0,1,8.8671,5.074c14.8348,18.4437,34.0724,41.2432,47.29,58.0866C190.2509,222.8253,222.8034,190.2337,203.48,175.0689Z"/>
            <path fill="#f9809a" d="M133.9952,422.2894c12.6541-12.2755,12.8248-32.5513.2871-44.5713-12.02-12.5378-32.2958-12.367-44.5714.2871C71.0015,397.2918,114.7187,440.9891,133.9952,422.2894Z"/>
            <path fill="#f45175" d="M175.0689,308.5205c-13.2179,16.8437-32.4559,39.6437-47.2907,58.0874A14.4477,14.4477,0,0,1,118.92,371.68a18.4987,18.4987,0,0,0-11.2744,29.6823c10.107,12.6335,29.9713,7.1251,32.6738-8.2743a14.4659,14.4659,0,0,1,5.074-8.8671c18.4437-14.8348,41.2432-34.0724,58.0866-47.29C222.8253,321.7491,190.2337,289.1966,175.0689,308.5205Z"/>
            <path fill="#f9809a" d="M422.2894,378.0048c-12.2755-12.6541-32.5513-12.8248-44.5713-.2871-12.5378,12.02-12.367,32.2958.2871,44.5714C397.2918,440.9985,440.9891,397.2813,422.2894,378.0048Z"/>
            <path fill="#f45175" d="M308.5205,336.9311c16.8437,13.2179,39.6437,32.4559,58.0874,47.2907a14.4477,14.4477,0,0,1,5.0723,8.8587,18.4987,18.4987,0,0,0,29.6823,11.2744c12.6335-10.107,7.1251-29.9713-8.2743-32.6738a14.4659,14.4659,0,0,1-8.8671-5.074c-14.8348-18.4437-34.0724-41.2432-47.29-58.0866C321.7491,289.1747,289.1966,321.7663,308.5205,336.9311Z"/>
            <path fill="#f9809a" d="M378.0048,89.7106c-12.6541,12.2755-12.8248,32.5513-.2871,44.5713,12.02,12.5378,32.2958,12.367,44.5714-.2871C440.9985,114.7082,397.2813,71.0109,378.0048,89.7106Z"/>
            <path fill="#f45175" d="M336.9311,203.48c13.2179-16.8437,32.4559-39.6437,47.2907-58.0874a14.4477,14.4477,0,0,1,8.8587-5.0723,18.4987,18.4987,0,0,0,11.2744-29.6823c-10.107-12.6335-29.9713-7.1251-32.6738,8.2743a14.4659,14.4659,0,0,1-5.074,8.8671c-18.4437,14.8348-41.2432,34.0724-58.0866,47.29C289.1747,190.2509,321.7663,222.8034,336.9311,203.48Z"/>
            <path fill="#f56a82" d="M253.425,152.4c-54.32,1.145-99.9251,45.8456-101.2236,100.7738-1.3393,56.6492,44.9021,104.9773,102.1233,105.7225,56.6225.7373,103.9676-45.3784,104.8227-101.6736C360.0323,198.9684,310.81,151.1905,253.425,152.4Z"/>
            <path fill="#f9809a" d="M224.6861,52.1452C224.4184,69.7731,238.6348,84.231,256,83.8649c17.365.3661,31.5814-14.0918,31.3137-31.72C286.9053,25.2779,225.094,25.292,224.6861,52.1452Z"/>
            <path fill="#f45175" d="M276.0894,161.6355c-2.5639-21.2568-5.0826-50.9821-7.6345-74.5136a14.4483,14.4483,0,0,1,2.6774-9.8507,18.4986,18.4986,0,0,0-13.0164-28.9607c-16.1066-1.7895-26.2183,16.1728-17.253,28.9546a14.4658,14.4658,0,0,1,2.6821,9.8579c-2.5518,23.5314-5.07,53.2561-7.6344,74.5125C232.9664,186.05,279.03,186.0227,276.0894,161.6355Z"/>
            <path fill="#f9809a" d="M52.1452,287.3139c17.6279.2677,32.0858-13.9487,31.72-31.3136.3661-17.365-14.0918-31.5814-31.72-31.3137C25.2779,225.0947,25.292,286.906,52.1452,287.3139Z"/>
            <path fill="#f45175" d="M161.6355,235.9106c-21.2568,2.5639-50.9821,5.0826-74.5136,7.6345a14.4483,14.4483,0,0,1-9.8507-2.6774,18.4986,18.4986,0,0,0-28.9607,13.0164c-1.7895,16.1066,16.1728,26.2183,28.9546,17.253a14.4658,14.4658,0,0,1,9.8579-2.6821c23.5314,2.5518,53.2561,5.0705,74.5125,7.6344C186.05,279.0336,186.0227,232.97,161.6355,235.9106Z"/>
            <path fill="#f9809a" d="M287.3139,459.8548c.2677-17.6279-13.9487-32.0858-31.3136-31.72-17.365-.3661-31.5814,14.0918-31.3137,31.72C225.0947,486.7221,286.906,486.708,287.3139,459.8548Z"/>
            <path fill="#f45175" d="M235.9106,350.3645c2.5639,21.2568,5.0826,50.9821,7.6345,74.5136a14.4483,14.4483,0,0,1-2.6774,9.8507A18.4986,18.4986,0,0,0,253.8841,463.69c16.1066,1.7895,26.2183-16.1728,17.253-28.9546a14.4658,14.4658,0,0,1-2.6821-9.8579c2.5518-23.5314,5.0705-53.2561,7.6344-74.5125C279.0336,325.95,232.97,325.9773,235.9106,350.3645Z"/>
            <path fill="#f9809a" d="M459.8548,224.6861c-17.6279-.2677-32.0858,13.9487-31.72,31.3136-.3661,17.365,14.0918,31.5814,31.72,31.3137C486.7221,286.9053,486.708,225.094,459.8548,224.6861Z"/>
            <path fill="#f45175" d="M350.3645,276.0894c21.2568-2.5639,50.9821-5.0826,74.5136-7.6345a14.4483,14.4483,0,0,1,9.8507,2.6774A18.4986,18.4986,0,0,0,463.69,258.1159c1.7895-16.1066-16.1728-26.2183-28.9546-17.253a14.4658,14.4658,0,0,1-9.8579,2.6821c-23.5314-2.5518-53.2561-5.07-74.5125-7.6344C325.95,232.9664,325.9773,279.03,350.3645,276.0894Z"/>
            <path fill="#f9809a" d="M292.0424,225.8086a20.0855,20.0855,0,1,0,20.5627,20.3877A20.2678,20.2678,0,0,0,292.0424,225.8086Z"/>
            <path fill="#f9809a" d="M232.1708,205.724a20.0855,20.0855,0,1,0,20.5627,20.3878A20.2679,20.2679,0,0,0,232.1708,205.724Z"/>
            <path fill="#f9809a" d="M243.1157,263.3465a20.0855,20.0855,0,1,0,20.5627,20.3877A20.2678,20.2678,0,0,0,243.1157,263.3465Z"/>
        </g>
    </g>
</svg>