<?xml version="1.0" ?><svg viewBox="0 0 64 64" xmlns="http://www.w3.org/2000/svg"><defs><style>.cls-1{fill:#feb784;}.cls-2{opacity:0.2;}.cls-3{fill:#9fe4ed;}.cls-4{fill:#348fd9;}.cls-5{fill:#44546c;}.cls-6{opacity:0.1;}.cls-7{fill:#7eb457;}</style></defs><g id="flat"><path class="cls-1" d="M45,18a3.75,3.75,0,0,0-1.3613.2471L43,18.4951v7.01l.6387.248A3.75,3.75,0,0,0,45,26a4,4,0,0,0,0-8Z"/><path class="cls-1" d="M19,18a4,4,0,0,0,0,8,3.75,3.75,0,0,0,1.3613-.2471L21,25.5049v-7.01l-.6387-.248A3.75,3.75,0,0,0,19,18Z"/><g class="cls-2"><path d="M45,18a3.75,3.75,0,0,0-1.3613.2471L43,18.4951v7.01l.6387.248A3.75,3.75,0,0,0,45,26a4,4,0,0,0,0-8Z"/><path d="M19,18a4,4,0,0,0,0,8,3.75,3.75,0,0,0,1.3613-.2471L21,25.5049v-7.01l-.6387-.248A3.75,3.75,0,0,0,19,18Z"/></g><path class="cls-1" d="M41.0044,6.3057A12.0946,12.0946,0,0,0,39.0938,4.792a11.4182,11.4182,0,0,0-6.1709-1.8184H31.0771A11.4111,11.4111,0,0,0,24.9087,4.791a12.0113,12.0113,0,0,0-1.9121,1.5147A13.4858,13.4858,0,0,0,19,15.9736v13h.0342a13.4212,13.4212,0,0,0,3.9614,8.6944,12.06,12.06,0,0,0,1.9107,1.5136A11.4081,11.4081,0,0,0,31.0771,41h1.8458A11.4033,11.4033,0,0,0,39.09,39.1836a12.0069,12.0069,0,0,0,1.9131-1.5156A13.3162,13.3162,0,0,0,44.9858,28.64c.0093-.2109.0142-.4257.0142-.64V15.9736A13.489,13.489,0,0,0,41.0044,6.3057Z"/><path class="cls-3" d="M41.2021,44.32A15.8625,15.8625,0,0,0,38,44H26a15.8762,15.8762,0,0,0-3.1987.3193A16.0442,16.0442,0,0,0,10,60v2H54V60A16.0427,16.0427,0,0,0,41.2021,44.32Z"/><rect class="cls-4" height="9" width="2" x="17" y="52"/><rect class="cls-4" height="9" width="2" x="45" y="52"/><circle cx="37" cy="21" r="2"/><circle cx="27" cy="21" r="2"/><path d="M23.9785,15H20a1,1,0,0,0-1,1v7.7236a.9992.9992,0,0,0,.7646.9717A.972.972,0,0,0,20,24.7236a1.0013,1.0013,0,0,0,.8892-.542l3.9785-7.7236A1,1,0,0,0,23.9785,15Z"/><path d="M40.0215,15H44a1,1,0,0,1,1,1v7.7236a.9992.9992,0,0,1-.7646.9717A.972.972,0,0,1,44,24.7236a1.0013,1.0013,0,0,1-.8892-.542L39.1323,16.458A1,1,0,0,1,40.0215,15Z"/><path class="cls-5" d="M24,56H22V43a2.0023,2.0023,0,0,1,2-2H40a2.0023,2.0023,0,0,1,2,2v8H40V43H24Z"/><path class="cls-1" d="M38,37.35H26a1,1,0,0,0-1,1V43a7,7,0,0,0,14,0V38.35A1,1,0,0,0,38,37.35Z"/><path class="cls-6" d="M38,37.35H26a1,1,0,0,0-1,1V43a7,7,0,0,0,14,0V38.35A1,1,0,0,0,38,37.35Z"/><path class="cls-3" d="M44.6787,28.1309C41.7891,25.46,37.0493,23.8652,32,23.8652S22.2109,25.46,19.3213,28.1309A.9983.9983,0,0,0,19,28.8652c0,3.4561,1.1953,6.0889,3.9956,8.8028a12.06,12.06,0,0,0,1.9107,1.5136A11.4081,11.4081,0,0,0,31.0771,41h1.8458A11.4033,11.4033,0,0,0,39.09,39.1836a12.0069,12.0069,0,0,0,1.9131-1.5156A12.65,12.65,0,0,0,44.999,28.91,1.0009,1.0009,0,0,0,44.6787,28.1309Z"/><path class="cls-4" d="M32.0005,36.0225a16.311,16.311,0,0,1-6.42-1.0928,1,1,0,1,1,.84-1.8145,14.7927,14.7927,0,0,0,5.58.9073,14.7931,14.7931,0,0,0,5.58-.9073,1,1,0,1,1,.84,1.8145A16.3114,16.3114,0,0,1,32.0005,36.0225Z"/><rect class="cls-7" height="8" rx="2" width="6" x="20" y="54"/><rect class="cls-7" height="8" rx="2" width="6" x="38" y="50"/><path class="cls-4" d="M38,31H26a1,1,0,0,1,0-2H38a1,1,0,0,1,0,2Z"/><path class="cls-3" d="M36,2H28a9.01,9.01,0,0,0-9,9v6H45V11A9.01,9.01,0,0,0,36,2Z"/><path class="cls-3" d="M11,47a3,3,0,1,1,3-3A3.0033,3.0033,0,0,1,11,47Zm0-4a1,1,0,1,0,1,1A1.0009,1.0009,0,0,0,11,43Z"/><path class="cls-3" d="M55,22a4,4,0,1,1,4-4A4.0042,4.0042,0,0,1,55,22Zm0-6a2,2,0,1,0,2,2A2.0023,2.0023,0,0,0,55,16Z"/><path class="cls-3" d="M54,40a3,3,0,1,1,3-3A3.0033,3.0033,0,0,1,54,40Zm0-4a1,1,0,1,0,1,1A1.0009,1.0009,0,0,0,54,36Z"/></g></svg>