<?xml version="1.0" ?><svg viewBox="0 0 512 512" xmlns="http://www.w3.org/2000/svg"><defs><style>.cls-1{fill:#daeef7;}.cls-2{fill:#f98585;}.cls-3{fill:#eaf5fb;}.cls-4{fill:#c7dde5;}.cls-5{fill:#c5e1ea;}.cls-6{fill:#605f5d;}.cls-7{fill:#ffcc73;}.cls-8{fill:#f45175;}.cls-9{fill:#f9809a;}</style></defs><title/><g id="Flat-Virus"><g data-name="covid-19 coronavirus outbreak sick virus airplane spread" id="covid-19_coronavirus_outbreak_sick_virus_airplane_spread-2"><polygon class="cls-1" points="73.515 299.615 63.631 294.299 37.728 294.299 66.349 322.921 73.515 322.921 73.515 299.615"/><path class="cls-2" d="M70.2209,268.5311l.58,58.325h67.9032a119.9673,119.9673,0,0,1-32.18-42.8907,25.655,25.655,0,0,0-23.1913-15.3106Z"/><path class="cls-1" d="M215.2847,219.5791,188.9812,183.55H170.9941v36.0293q45.3244,52.9581,90.6487,105.916c45.1693,6.0313,69.7295-5.6753,69.7295-5.6753S314.0455,303.1184,215.2847,219.5791Z"/><path class="cls-3" d="M310.2819,304.5054H284.5192c-23.6071,0-23.5924-35.6712,0-35.6712h25.7627a5.432,5.432,0,0,1,5.432,5.432v24.8072A5.432,5.432,0,0,1,310.2819,304.5054Z"/><path class="cls-4" d="M301.5207,293.6589V279.6808c0-14.3408,21.6932-14.3606,21.6932,0v13.9781C323.2139,308,301.5207,308.0194,301.5207,293.6589Z"/><polygon class="cls-5" points="170.994 183.55 188.981 183.55 215.285 219.579 170.994 219.579 170.994 183.55"/><path class="cls-3" d="M46.2176,320.5777l-4.9521,21.0175a391.578,391.578,0,0,0,44.5993,20.0037,333.3582,333.3582,0,0,0,45.9059,14.09c21.6348,4.8179,38.98,5.9058,63.8036,6.6607,43.77,1.3313,54.0954-.2591,103.7485,0,49.579.2588,55.0413,2.0586,80.2027,0,99.9854-8.18,100.5236-35.2478,100.4729-37.0892-.3437-12.4721-27.0639-21.8664-48.549-27.4587a146.4928,146.4928,0,0,0-40.0571-4.6432Z"/><rect class="cls-4" height="28.4513" rx="6.4638" width="17.2711" x="364.6857" y="333.9987"/><path class="cls-6" d="M438.8074,319.82a57.2183,57.2183,0,0,0-25.4488,7.2577c-8.1657,4.6745-5.0857,17.41,4.5047,17.6473,23.0047.5687,42.7193-11.3672,45.4061-15.9587A160.3071,160.3071,0,0,0,438.8074,319.82Z"/><path class="cls-6" d="M185.1,349.3545V339.1836c0-6.611,10-6.62,10,0v10.1709C195.1,355.9655,185.1,355.974,185.1,349.3545Z"/><path class="cls-6" d="M207.0728,349.3545V339.1836c0-6.611,10-6.62,10,0v10.1709C217.0728,355.9655,207.0728,355.974,207.0728,349.3545Z"/><path class="cls-6" d="M229.0459,349.3545V339.1836c0-6.611,10-6.62,10,0v10.1709C239.0459,355.9655,229.0459,355.974,229.0459,349.3545Z"/><path class="cls-6" d="M251.0186,349.3545V339.1836c0-6.611,10-6.62,10,0v10.1709C261.0186,355.9655,251.0186,355.974,251.0186,349.3545Z"/><path class="cls-6" d="M272.9917,349.3545V339.1836c0-6.611,10-6.62,10,0v10.1709C282.9917,355.9655,272.9917,355.974,272.9917,349.3545Z"/><path class="cls-6" d="M294.9644,349.3545V339.1836c0-6.611,10-6.62,10,0v10.1709C304.9644,355.9655,294.9644,355.974,294.9644,349.3545Z"/><path class="cls-6" d="M316.937,349.3545V339.1836c0-6.611,10-6.62,10,0v10.1709C326.937,355.9655,316.937,355.974,316.937,349.3545Z"/><path class="cls-1" d="M179.66,480c51.7411-34.0824,103.7387-63.0308,155.48-97.1133-45.48-46.9213-88.3656-9.7263-89.0022-9.2091L135.37,480Z"/><path class="cls-1" d="M76.2115,379.04,113.06,349.2947a43.0058,43.0058,0,0,0-38.7679-7.3425L32,384.5381l17.1294,2.18A35.9,35.9,0,0,0,76.2115,379.04Z"/><polygon class="cls-4" points="135.37 443.971 153.357 443.971 179.66 480 135.37 480 135.37 443.971"/><path class="cls-1" d="M228.4141,286.67H280.01a36.9,36.9,0,0,1,24.2943,9.126l15.7508,13.7774H248.016Z"/><path class="cls-3" d="M292.2317,434.5674h-34.35c-31.4761,0-31.4566-47.5617,0-47.5617h34.35a7.2427,7.2427,0,0,1,7.2427,7.2427v33.0763A7.2427,7.2427,0,0,1,292.2317,434.5674Z"/><path class="cls-4" d="M280.55,420.1052V401.4678c0-19.121,28.9243-19.1474,28.9243,0v18.6374C309.4744,439.2263,280.55,439.2526,280.55,420.1052Z"/><path class="cls-1" d="M207.4775,410.7865h59.5253a6.81,6.81,0,0,1,3.549,12.621L250.758,435.48l-65.6757-3.1971Z"/><path class="cls-6" d="M290.0122,415.8721V405.7012c0-6.6111,10-6.6195,10,0v10.1709C300.0122,422.4831,290.0122,422.4916,290.0122,415.8721Z"/><path class="cls-6" d="M308.3672,289.4692v-6.68c0-5.2977,8-5.2855,8,0v6.68C316.3672,294.7669,308.3672,294.7547,308.3672,289.4692Z"/><path class="cls-7" d="M478.1833,132.9177a99.849,99.849,0,1,0-128.0767,95.7957l28.5613,38.561,28.8433-38.8435A99.889,99.889,0,0,0,478.1833,132.9177Z"/><path class="cls-8" d="M356.23,99.1928c-7.03-5.5168-16.5461-13.5461-24.244-19.7378a6.03,6.03,0,0,1-2.117-3.6973,7.7122,7.7122,0,1,0-8.9351,8.9314,6.0384,6.0384,0,0,1,3.7009,2.1178c6.1916,7.6979,14.2208,17.2137,19.7374,24.2437C350.7081,119.124,364.2969,105.5234,356.23,99.1928Z"/><path class="cls-8" d="M344.3376,155.2453c-5.5167,7.03-13.5461,16.5462-19.7377,24.2441a6.0307,6.0307,0,0,1-3.6974,2.117,7.7123,7.7123,0,1,0,8.9315,8.9351,6.038,6.038,0,0,1,2.1177-3.7009c7.6979-6.1916,17.2138-14.2208,24.2437-19.7375C364.2688,160.7674,350.6682,147.1786,344.3376,155.2453Z"/><path class="cls-8" d="M400.39,167.1378c7.03,5.5168,16.5461,13.5462,24.244,19.7378a6.03,6.03,0,0,1,2.117,3.6973,7.7123,7.7123,0,1,0,8.9351-8.9314,6.0379,6.0379,0,0,1-3.7009-2.1178c-6.1916-7.6978-14.2208-17.2137-19.7375-24.2437C405.9122,147.2067,392.3234,160.8073,400.39,167.1378Z"/><path class="cls-8" d="M412.2826,111.0853c5.5168-7.03,13.5462-16.5462,19.7378-24.244a6.03,6.03,0,0,1,3.6974-2.1171,7.7122,7.7122,0,1,0-8.9315-8.935,6.0374,6.0374,0,0,1-2.1178,3.7008c-7.6978,6.1916-17.2137,14.2209-24.2436,19.7375C392.3515,105.5632,405.9521,119.152,412.2826,111.0853Z"/><path class="cls-9" d="M335.0951,133.99c.4778,22.6714,19.1346,41.7058,42.06,42.2478a43.195,43.195,0,1,0,1.69-86.3733C354.5313,89.4951,334.59,110.039,335.0951,133.99Z"/><path class="cls-8" d="M386.7194,93.53c-1.07-8.872-2.1213-21.2785-3.1864-31.1a6.03,6.03,0,0,1,1.1175-4.1114,7.7123,7.7123,0,1,0-12.6336-.0026,6.038,6.038,0,0,1,1.1194,4.1144c-1.065,9.8213-2.1163,22.2276-3.1863,31.0994C368.7213,103.719,387.9471,103.7106,386.7194,93.53Z"/><path class="cls-8" d="M338.675,124.7561c-8.872,1.07-21.2784,2.1213-31.1,3.1864a6.0305,6.0305,0,0,1-4.1114-1.1175,7.7123,7.7123,0,1,0-.0026,12.6336,6.0376,6.0376,0,0,1,4.1144-1.1195c9.8214,1.0651,22.2276,2.1163,31.0994,3.1864C348.8638,142.7542,348.8554,123.5284,338.675,124.7561Z"/><path class="cls-8" d="M369.9009,172.8c1.07,8.872,2.1213,21.2785,3.1864,31.1a6.03,6.03,0,0,1-1.1175,4.1114,7.7122,7.7122,0,1,0,12.6336.0025A6.0375,6.0375,0,0,1,383.484,203.9c1.065-9.8213,2.1162-22.2276,3.1863-31.0994C387.899,162.6117,368.6732,162.62,369.9009,172.8Z"/><path class="cls-8" d="M417.9453,141.5746c8.8719-1.07,21.2784-2.1214,31.1-3.1864a6.03,6.03,0,0,1,4.1114,1.1174,7.7123,7.7123,0,1,0,.0025-12.6335,6.0379,6.0379,0,0,1-4.1144,1.1194c-9.8213-1.0651-22.2275-2.1163-31.0993-3.1864C407.7565,123.5764,407.7648,142.8022,417.9453,141.5746Z"/><path class="cls-8" d="M369.8041,133.2365a8.3831,8.3831,0,1,0,8.5093-8.5823A8.4591,8.4591,0,0,0,369.8041,133.2365Z"/></g></g></svg>