<?xml version="1.0" ?><svg viewBox="0 0 512 512" xmlns="http://www.w3.org/2000/svg"><defs><style>.cls-1{fill:#605f5d;}.cls-2{fill:#efeded;}.cls-3{fill:#444241;}.cls-4{fill:#bcbcdd;}.cls-5{fill:#9999bc;}.cls-6{fill:#daeef7;}.cls-7{fill:#c7dde5;}.cls-8{fill:#9b9bbc;}.cls-9{fill:#83839b;}.cls-10{fill:#ababce;}.cls-11{fill:#4f4e4c;}.cls-12{fill:#ffcc73;}.cls-13{fill:#f45175;}.cls-14{fill:#f9809a;}</style></defs><title/><g id="Flat-Virus"><g data-name="covid-19 coronavirus outbreak sick virus train subway spread" id="covid-19_coronavirus_outbreak_sick_virus_train_subway_spread-2"><path class="cls-1" d="M480,441.4829H35.1c-6.611,0-6.62-10,0-10H480C486.611,431.4829,486.62,441.4829,480,441.4829Z"/><rect class="cls-2" height="38.6909" width="10" x="88.0122" y="437.3091"/><rect class="cls-2" height="38.6909" width="10" x="129.1465" y="437.3091"/><rect class="cls-2" height="38.6909" width="10" x="170.2808" y="437.3091"/><rect class="cls-2" height="38.6909" width="10" x="211.4155" y="437.3091"/><rect class="cls-2" height="38.6909" width="10" x="252.5498" y="437.3091"/><rect class="cls-2" height="38.6909" width="10" x="293.6846" y="437.3091"/><rect class="cls-2" height="38.6909" width="10" x="334.8188" y="437.3091"/><rect class="cls-2" height="38.6909" width="10" x="375.9531" y="437.3091"/><rect class="cls-2" height="38.6909" width="10" x="417.0879" y="437.3091"/><path class="cls-1" d="M52.8711,359.1738v35.36H27V381.5981c0-6.611,10-6.62,10,0v2.9356h5.8711v-25.36Z"/><path class="cls-1" d="M469.1289,359.1738v25.36H475v-2.9356c0-6.611,10-6.62,10,0v12.9356H459.1289v-35.36Z"/><rect class="cls-3" height="55.6521" width="99.9597" x="207.57" y="339.1736"/><rect class="cls-3" height="61.2354" transform="translate(271.1676 739.5827) rotate(-180)" width="67.8495" x="101.6591" y="339.1736"/><rect class="cls-3" height="61.2354" width="67.8495" x="342.4915" y="339.1736"/><rect class="cls-4" height="162" width="448" x="32" y="209.1736"/><rect class="cls-5" height="162" transform="translate(925.2452 580.3473) rotate(-180)" width="34.7548" x="445.2452" y="209.1736"/><rect class="cls-5" height="162" width="34.7548" x="32" y="209.1736"/><rect class="cls-6" height="59.1867" rx="15" width="99.9597" x="206.0202" y="275.1749"/><path class="cls-7" d="M221.02,275.1749h69.96a15,15,0,0,1,15,15v4.3368a0,0,0,0,1,0,0H206.02a0,0,0,0,1,0,0v-4.3368A15,15,0,0,1,221.02,275.1749Z"/><polygon class="cls-8" points="169.509 371.174 101.659 371.174 101.659 275.175 135.584 275.175 169.509 275.175 169.509 371.174"/><rect class="cls-9" height="95.999" width="10" x="130.584" y="275.1748"/><polygon class="cls-8" points="342.491 371.174 410.341 371.174 410.341 275.175 376.416 275.175 342.491 275.175 342.491 371.174"/><rect class="cls-9" height="95.999" width="10" x="371.416" y="275.1748"/><path class="cls-6" d="M32,256h8.3216a10,10,0,0,1,10,10v44a10,10,0,0,1-10,10H32a0,0,0,0,1,0,0V256A0,0,0,0,1,32,256Z"/><path class="cls-6" d="M461.6784,256H470a10,10,0,0,1,10,10v44a10,10,0,0,1-10,10h-8.3216a0,0,0,0,1,0,0V256A0,0,0,0,1,461.6784,256Z" transform="translate(941.6784 576) rotate(-180)"/><path class="cls-10" d="M480,209.1736a34.7547,34.7547,0,0,1-34.7548,34.7548H66.7548A34.7547,34.7547,0,0,1,32,209.1736Z"/><circle class="cls-11" cx="181.7115" cy="397.5923" r="18.4077"/><circle class="cls-11" cx="89.4561" cy="397.5923" r="18.4077"/><path class="cls-1" d="M181.7114,402.5923H89.4561c-6.6111,0-6.62-10,0-10h92.2553C188.3225,392.5923,188.3309,402.5923,181.7114,402.5923Z"/><circle class="cls-11" cx="330.2885" cy="397.5923" r="18.4077"/><circle class="cls-11" cx="422.5439" cy="397.5923" r="18.4077"/><path class="cls-1" d="M422.5439,402.5923H330.2886c-6.6111,0-6.6195-10,0-10h92.2553C429.155,392.5923,429.1635,402.5923,422.5439,402.5923Z"/><path class="cls-1" d="M480,481H35.1c-6.611,0-6.62-10,0-10H480C486.611,471,486.62,481,480,481Z"/><path class="cls-6" d="M111.0791,320V289.8291c0-6.611,10-6.6195,10,0V320C121.0791,326.611,111.0791,326.62,111.0791,320Z"/><path class="cls-6" d="M150.0889,320V289.8291c0-6.611,10-6.6195,10,0V320C160.0889,326.611,150.0889,326.62,150.0889,320Z"/><path class="cls-6" d="M390.9209,320V289.8291c0-6.611,10-6.6195,10,0V320C400.9209,326.611,390.9209,326.62,390.9209,320Z"/><path class="cls-6" d="M351.9111,320V289.8291c0-6.611,10-6.6195,10,0V320C361.9111,326.611,351.9111,326.62,351.9111,320Z"/><path class="cls-12" d="M478.1833,132.9177a99.849,99.849,0,1,0-128.0767,95.7957l28.5613,38.561,28.8433-38.8435A99.889,99.889,0,0,0,478.1833,132.9177Z"/><path class="cls-13" d="M356.23,99.1928c-7.03-5.5168-16.5461-13.5461-24.244-19.7378a6.03,6.03,0,0,1-2.117-3.6973,7.7122,7.7122,0,1,0-8.9351,8.9314,6.0384,6.0384,0,0,1,3.7009,2.1178c6.1916,7.6979,14.2208,17.2137,19.7374,24.2437C350.7081,119.124,364.2969,105.5234,356.23,99.1928Z"/><path class="cls-13" d="M344.3376,155.2453c-5.5167,7.03-13.5461,16.5462-19.7377,24.2441a6.0307,6.0307,0,0,1-3.6974,2.117,7.7123,7.7123,0,1,0,8.9315,8.9351,6.038,6.038,0,0,1,2.1177-3.7009c7.6979-6.1916,17.2138-14.2208,24.2437-19.7375C364.2688,160.7674,350.6682,147.1786,344.3376,155.2453Z"/><path class="cls-13" d="M400.39,167.1378c7.03,5.5168,16.5461,13.5462,24.244,19.7378a6.03,6.03,0,0,1,2.117,3.6973,7.7123,7.7123,0,1,0,8.9351-8.9314,6.0379,6.0379,0,0,1-3.7009-2.1178c-6.1916-7.6978-14.2208-17.2137-19.7375-24.2437C405.9122,147.2067,392.3234,160.8073,400.39,167.1378Z"/><path class="cls-13" d="M412.2826,111.0853c5.5168-7.03,13.5462-16.5462,19.7378-24.244a6.03,6.03,0,0,1,3.6974-2.1171,7.7122,7.7122,0,1,0-8.9315-8.935,6.0374,6.0374,0,0,1-2.1178,3.7008c-7.6978,6.1916-17.2137,14.2209-24.2436,19.7375C392.3515,105.5632,405.9521,119.152,412.2826,111.0853Z"/><path class="cls-14" d="M335.0951,133.99c.4778,22.6714,19.1346,41.7058,42.06,42.2478a43.195,43.195,0,1,0,1.69-86.3733C354.5313,89.4951,334.59,110.039,335.0951,133.99Z"/><path class="cls-13" d="M386.7194,93.53c-1.07-8.872-2.1213-21.2785-3.1864-31.1a6.03,6.03,0,0,1,1.1175-4.1114,7.7123,7.7123,0,1,0-12.6336-.0026,6.038,6.038,0,0,1,1.1194,4.1144c-1.065,9.8213-2.1163,22.2276-3.1863,31.0994C368.7213,103.719,387.9471,103.7106,386.7194,93.53Z"/><path class="cls-13" d="M338.675,124.7561c-8.872,1.07-21.2784,2.1213-31.1,3.1864a6.0305,6.0305,0,0,1-4.1114-1.1175,7.7123,7.7123,0,1,0-.0026,12.6336,6.0376,6.0376,0,0,1,4.1144-1.1195c9.8214,1.0651,22.2276,2.1163,31.0994,3.1864C348.8638,142.7542,348.8554,123.5284,338.675,124.7561Z"/><path class="cls-13" d="M369.9009,172.8c1.07,8.872,2.1213,21.2785,3.1864,31.1a6.03,6.03,0,0,1-1.1175,4.1114,7.7122,7.7122,0,1,0,12.6336.0025A6.0375,6.0375,0,0,1,383.484,203.9c1.065-9.8213,2.1162-22.2276,3.1863-31.0994C387.899,162.6117,368.6732,162.62,369.9009,172.8Z"/><path class="cls-13" d="M417.9453,141.5746c8.8719-1.07,21.2784-2.1214,31.1-3.1864a6.03,6.03,0,0,1,4.1114,1.1174,7.7123,7.7123,0,1,0,.0025-12.6335,6.0379,6.0379,0,0,1-4.1144,1.1194c-9.8213-1.0651-22.2275-2.1163-31.0993-3.1864C407.7565,123.5764,407.7648,142.8022,417.9453,141.5746Z"/><path class="cls-13" d="M369.8041,133.2365a8.3831,8.3831,0,1,0,8.5093-8.5823A8.4591,8.4591,0,0,0,369.8041,133.2365Z"/></g></g></svg>