<?xml version="1.0" ?><svg data-name="Flat Shadow" id="Flat_Shadow" viewBox="0 0 32 32" xmlns="http://www.w3.org/2000/svg"><title/><path d="M13.879,26.607l-2.515,2.515a4.006,4.006,0,0,1-5.657,0L2.878,26.293a4.006,4.006,0,0,1,0-5.657l2.515-2.515a1,1,0,0,1,1.415,0l7.071,7.071A1,1,0,0,1,13.879,26.607ZM4.293,22.05a2,2,0,0,0,0,2.829l2.828,2.828a2,2,0,0,0,2.829,0L11.757,25.9,6.1,20.243Z" style="fill:#dce6e6"/><path d="M29.122,11.364l-2.515,2.515a1,1,0,0,1-1.415,0L18.121,6.808a1,1,0,0,1,0-1.415l2.515-2.515a4.006,4.006,0,0,1,5.657,0l2.829,2.829A4.006,4.006,0,0,1,29.122,11.364Zm-3.223.393L27.707,9.95a2,2,0,0,0,0-2.829L24.879,4.293a2,2,0,0,0-2.829,0L20.243,6.1Z" style="fill:#dce6e6"/><path d="M19.222,4.293Q7.514,7.515,4.293,19.222l8.485,8.485q11.707-3.222,14.929-14.929Z" style="fill:#baf1ec"/><path d="M22.05,7.121A56.237,56.237,0,0,0,7.121,22.05L9.95,24.879A56.237,56.237,0,0,0,24.879,9.95Z" style="fill:#d3ffff"/></svg>