<?xml version="1.0" ?><svg data-name="Filled Outline" id="Filled_Outline" viewBox="0 0 128 128" xmlns="http://www.w3.org/2000/svg"><title/><circle cx="53.05" cy="107.145" r="15.255" style="fill:#ffe3de"/><path d="M53.05,123.9a16.812,16.812,0,0,1-15.222-9.745,1.5,1.5,0,1,1,2.724-1.256,13.762,13.762,0,0,0,24.594.8,1.5,1.5,0,1,1,2.636,1.432A16.755,16.755,0,0,1,53.05,123.9Z" style="fill:#332c44"/><circle cx="77.237" cy="86.104" r="15.281" style="fill:#ffe3de"/><path d="M77.206,102.886a16.806,16.806,0,1,1,1.7-.085Q78.055,102.885,77.206,102.886Zm.043-30.557a13.77,13.77,0,1,0,8.711,3.107A13.763,13.763,0,0,0,77.249,72.329Z" style="fill:#332c44"/><circle cx="72.351" cy="104.303" r="11.026" style="fill:#ffe3de"/><path d="M30.482,70.878a18.352,18.352,0,0,1-6.83-1.02c-3.216-1.345-3.86-3.868-4.066-6.159a1.5,1.5,0,1,1,2.988-.267c.214,2.379.951,3.122,2.238,3.66,4.294,1.8,14.982.038,20.724-.911.806-.133,1.546-.256,2.2-.358a21.12,21.12,0,0,1,2.709-.331,1.546,1.546,0,0,1,1.527,1.474A1.5,1.5,0,0,1,50.5,68.492a20.263,20.263,0,0,0-2.287.293c-.655.1-1.387.224-2.184.356A102.085,102.085,0,0,1,30.482,70.878Z" style="fill:#332c44"/><path d="M17.649,61.9a3.823,3.823,0,0,0,3.431,1.664c.226,2.522,1.02,4.018,3.153,4.91,5.285,2.222,17.944-.262,23.733-1.17C30.761,72.85,32.634,79.955,37.024,79.779c2.517-.092,13.983-5.065,23.009-6.961,9.034-1.911,16.662-4.859,24.377-5.778,6.649-.8,9.559,2.127,13.854,3.624a7.036,7.036,0,0,0,8.041-2.464,24.586,24.586,0,0,0,3.973-21.79c-.651-2.381-3.486-4.7-5.869-5.367-5.357-1.509-14.574-4.737-18.045-6.731-5.594-3.22-15.091-8.462-20.039-14.387-6.676-8-12.62-19.44-17.8-14.869-5.442,4.786,2.56,16.623,4.417,22.663a4.928,4.928,0,0,1-.586,3.78c-1.723,2.541-14.673,4.074-22.5,6.63-9.217,3.009-15.255,7.865-11.173,12.531,1.13,1.3,2.852,1.452,4.983,1.023C23.674,51.683,14.032,56.22,17.649,61.9Z" style="fill:#f97d8c"/><path d="M36.862,81.282a4.132,4.132,0,0,1-4.28-3.3c-.288-1.618-.062-7.274,14.924-12.105a1.5,1.5,0,1,1,.92,2.855c-11.205,3.613-13.105,7.523-12.891,8.725.115.646.846.842,1.429.823a51.223,51.223,0,0,0,7.177-2.217,134.769,134.769,0,0,1,15.585-4.712c3.651-.774,7.083-1.721,10.4-2.638a96,96,0,0,1,14.107-3.162c5.257-.626,8.492.932,11.348,2.31a29.967,29.967,0,0,0,3.177,1.387,5.56,5.56,0,0,0,6.333-1.93,22.957,22.957,0,0,0,3.741-20.509c-.5-1.839-2.964-3.8-4.829-4.322-5.147-1.45-14.655-4.731-18.386-6.874l-1.086-.623c-5.792-3.321-14.545-8.34-19.358-14.1-1.553-1.862-3.06-3.894-4.516-5.86-3.364-4.54-6.843-9.234-9.409-9.505a2.137,2.137,0,0,0-1.726.657c-3.234,2.845-.047,9.833,2.513,15.446a53.5,53.5,0,0,1,2.343,5.645,6.42,6.42,0,0,1-.772,5.063c-1.339,1.975-5.638,3.008-13.12,4.665-3.558.787-7.237,1.6-10.156,2.556-6.311,2.06-10.659,4.892-11.346,7.392a2.755,2.755,0,0,0,.836,2.726c.434.5,1.228,1.006,3.559.54a44.381,44.381,0,0,0,6.142-1.995c4.884-1.828,10.424-3.9,16.031-3.32a1.5,1.5,0,1,1-.307,2.985c-4.913-.505-10.1,1.433-14.673,3.144a45.8,45.8,0,0,1-6.6,2.127c-1.071.217-4.334.87-6.407-1.508a5.734,5.734,0,0,1-1.469-5.494c1.341-4.881,8.913-8.015,13.307-9.449,3.057-1,6.809-1.83,10.438-2.634,4.184-.925,10.507-2.326,11.282-3.413a3.48,3.48,0,0,0,.4-2.49,52.153,52.153,0,0,0-2.209-5.3C46.333,16.354,42.634,8.244,47.539,3.93a5.09,5.09,0,0,1,4.023-1.39c3.878.408,7.413,5.179,11.505,10.7,1.432,1.931,2.911,3.928,4.409,5.723,4.468,5.349,12.941,10.208,18.548,13.423l1.088.625c3.389,1.945,12.6,5.147,17.7,6.587,2.744.77,6.08,3.381,6.909,6.415a26.156,26.156,0,0,1-4.208,23.069,8.576,8.576,0,0,1-9.755,2.993,32.466,32.466,0,0,1-3.486-1.514c-2.726-1.316-5.3-2.561-9.687-2.034A94.155,94.155,0,0,0,70.925,71.6c-3.361.929-6.837,1.889-10.581,2.682A132.8,132.8,0,0,0,45.126,78.9c-4.408,1.534-6.768,2.335-8.047,2.382C37.006,81.281,36.934,81.282,36.862,81.282Z" style="fill:#332c44"/><path d="M21.248,65.067l-.2,0a5.28,5.28,0,0,1-4.664-2.36,6.075,6.075,0,0,1-.8-5.068c1.239-4.279,6.824-7.013,7.457-7.311a1.5,1.5,0,0,1,1.278,2.714c-1.38.654-5.125,2.905-5.855,5.436a3.043,3.043,0,0,0,.456,2.619c.294.464.786.941,2.2.97,2.172.048,5.3-.976,8.958-2.161,4.977-1.61,11.171-3.615,17.523-3.712a1.5,1.5,0,0,1,.046,3c-5.9.09-11.61,1.937-16.645,3.567C27.174,64,23.862,65.067,21.248,65.067Z" style="fill:#332c44"/><circle cx="77.331" cy="15.35" r="3.54" style="fill:#ffe3de"/><circle cx="95.051" cy="105.546" r="4.267" style="fill:#ffe3de"/><circle cx="26.073" cy="24.492" r="6.296" style="fill:#ffe3de"/><circle cx="104.782" cy="27.833" r="5.203" style="fill:#ffe3de"/><circle cx="8.326" cy="56.061" r="4.174" style="fill:#ffe3de"/><circle cx="47.167" cy="48.454" r="16.42" style="fill:#ffe3de"/><path d="M47.158,66.383a17.971,17.971,0,1,1,6.263-1.137A17.86,17.86,0,0,1,47.158,66.383Zm.017-32.857a14.924,14.924,0,1,0,5.2,28.91h0a14.927,14.927,0,0,0-5.2-28.91Z" style="fill:#332c44"/><circle cx="67.656" cy="56.083" r="13.163" style="fill:#ffe3de"/><path d="M79.659,62.982a1.5,1.5,0,0,1-1.367-2.115A11.663,11.663,0,0,0,61.162,46.4a1.5,1.5,0,0,1-1.668-2.5A14.664,14.664,0,0,1,81.028,62.1,1.5,1.5,0,0,1,79.659,62.982Z" style="fill:#332c44"/><circle cx="26.073" cy="71.442" r="14.981" style="fill:#ffe3de"/><path d="M26.1,87.929a16.614,16.614,0,0,1-3.81-.446A16.481,16.481,0,1,1,42.115,75.221h0A16.5,16.5,0,0,1,26.1,87.929Zm-.057-29.973A13.484,13.484,0,1,0,39.2,74.533h0A13.48,13.48,0,0,0,29.165,58.32,13.592,13.592,0,0,0,26.047,57.956Z" style="fill:#332c44"/><circle cx="34.222" cy="94.773" r="19.958" style="fill:#ffe3de"/><path d="M34.224,116.222A21.462,21.462,0,0,1,19.58,79.079a1.5,1.5,0,1,1,2.047,2.193,18.462,18.462,0,0,0,20.665,30.1,1.5,1.5,0,0,1,1.309,2.7A21.477,21.477,0,0,1,34.224,116.222Z" style="fill:#332c44"/><path d="M77.331,20.39a5.04,5.04,0,1,1,5.041-5.04A5.046,5.046,0,0,1,77.331,20.39Zm0-7.08a2.04,2.04,0,1,0,2.041,2.04A2.042,2.042,0,0,0,77.331,13.31Z" style="fill:#332c44"/><path d="M95.051,111.313a5.768,5.768,0,1,1,5.768-5.767A5.773,5.773,0,0,1,95.051,111.313Zm0-8.535a2.768,2.768,0,1,0,2.768,2.768A2.771,2.771,0,0,0,95.051,102.778Z" style="fill:#332c44"/><path d="M26.073,32.288a7.8,7.8,0,1,1,7.8-7.8A7.8,7.8,0,0,1,26.073,32.288Zm0-12.593a4.8,4.8,0,1,0,4.8,4.8A4.8,4.8,0,0,0,26.073,19.7Z" style="fill:#332c44"/><path d="M104.782,34.536a6.7,6.7,0,1,1,6.7-6.7A6.711,6.711,0,0,1,104.782,34.536Zm0-10.406a3.7,3.7,0,1,0,3.7,3.7A3.708,3.708,0,0,0,104.782,24.13Z" style="fill:#332c44"/><path d="M8.326,61.735A5.674,5.674,0,1,1,14,56.062,5.68,5.68,0,0,1,8.326,61.735Zm0-8.347A2.674,2.674,0,1,0,11,56.062,2.677,2.677,0,0,0,8.326,53.388Z" style="fill:#332c44"/><path d="M56.924,100.4c-5.2,2.695-16.425,9.06-22.141,8.626-2.306-.17-3.533-1.339-4.546-3.659a3.821,3.821,0,0,1-3.781-.492c-5.23-4.243,2.479-11.6,2.479-11.6-1.728.915-3.672,1.418-5.05.608-5.35-3.133-1.161-9.652,6.629-15.425C37.125,73.553,48.923,68,49.753,65.043a4.93,4.93,0,0,0-.641-3.772C45.437,56.13,34.1,47.437,37.745,41.174c3.462-5.975,12.724,3,21.589,8.468C65.9,53.7,76.572,55.66,82.9,56.943c3.924.792,13.689.935,19.248.67,2.473-.12,5.9,1.18,7.267,3.232a24.588,24.588,0,0,1,3.132,21.927,7.035,7.035,0,0,1-6.847,4.883c-4.549-.059-8.234-1.911-14.289.95-7.027,3.315-13.329,8.526-21.292,13.2-7.962,4.657-17.263,13-19.621,13.89C46.387,117.252,42.36,111.106,56.924,100.4Z" style="fill:#ff9ea7"/><path d="M49.037,117.487a3.939,3.939,0,0,1-3.557-2.059c-.776-1.45-2.318-6.9,10.437-16.152a1.5,1.5,0,0,1,1.762,2.428c-9.539,6.918-10.131,11.23-9.554,12.308.31.578,1.063.543,1.616.339a51.388,51.388,0,0,0,6.137-4.338,134.712,134.712,0,0,1,13.363-9.325c3.235-1.871,6.2-3.838,9.078-5.742a96.282,96.282,0,0,1,12.434-7.389c4.8-2.231,8.365-1.751,11.511-1.327a29.663,29.663,0,0,0,3.454.332,5.5,5.5,0,0,0,5.427-3.8,22.982,22.982,0,0,0-2.813-20.675c-1.05-1.593-4.006-2.7-5.937-2.61-5.343.222-15.409.053-19.626-.828l-1.212-.252c-6.545-1.361-16.436-3.415-22.809-7.406-2.056-1.288-4.12-2.753-6.116-4.171-4.61-3.273-9.385-6.652-11.9-6.119A2.134,2.134,0,0,0,39.29,41.86c-2.185,3.7,2.99,9.328,7.148,13.854a52.515,52.515,0,0,1,4.026,4.708,6.4,6.4,0,0,1,.835,5.05c-.661,2.294-4.43,4.612-11.034,8.513-3.14,1.855-6.386,3.772-8.865,5.585-5.364,3.92-8.62,7.966-8.5,10.558a2.756,2.756,0,0,0,1.642,2.334c.569.339,1.484.578,3.554-.592a44.036,44.036,0,0,0,5.223-3.806c4.077-3.254,8.7-6.945,14.22-8.137a1.5,1.5,0,1,1,.633,2.931c-4.832,1.045-9.161,4.5-12.982,7.551a46.067,46.067,0,0,1-5.621,4.075c-.951.537-3.851,2.174-6.562.555a5.739,5.739,0,0,1-3.1-4.768c-.239-5.059,5.99-10.393,9.723-13.123,2.6-1.9,5.909-3.855,9.11-5.746,3.694-2.181,9.276-5.478,9.675-6.754a3.471,3.471,0,0,0-.394-2.488,51.165,51.165,0,0,0-3.791-4.416c-4.829-5.257-10.839-11.8-7.524-17.408a5.113,5.113,0,0,1,3.4-2.571c3.818-.811,8.66,2.624,14.269,6.607,1.961,1.393,3.989,2.832,5.971,4.073,5.917,3.7,15.492,5.7,21.827,7.011l1.216.254c3.83.8,13.581.984,18.888.766,2.848-.112,6.834,1.329,8.564,3.956A26.178,26.178,0,0,1,114,83.685a8.563,8.563,0,0,1-8.35,5.876,32.88,32.88,0,0,1-3.786-.357c-3-.406-5.839-.788-9.847,1.074a94.028,94.028,0,0,0-12.04,7.169c-2.91,1.928-5.919,3.922-9.235,5.839A132.682,132.682,0,0,0,57.694,112.4c-3.716,2.827-5.712,4.323-6.913,4.765A5.011,5.011,0,0,1,49.037,117.487Z" style="fill:#332c44"/><path d="M28.469,107.045a4.808,4.808,0,0,1-3.144-1.12,6.077,6.077,0,0,1-2.339-4.571c-.15-4.455,4.313-8.79,4.822-9.269a1.5,1.5,0,0,1,2.058,2.183c-1.111,1.05-3.973,4.355-3.882,6.989a3.048,3.048,0,0,0,1.247,2.352,2.29,2.29,0,0,0,2.393.241c2.049-.621,4.738-2.576,7.853-4.839,4.233-3.078,9.5-6.909,15.514-8.975a1.5,1.5,0,0,1,.975,2.838c-5.587,1.919-10.442,5.448-14.725,8.563-3.335,2.424-6.214,4.517-8.747,5.284A6.953,6.953,0,0,1,28.469,107.045Z" style="fill:#332c44"/><path d="M35.209,110.5q-.384,0-.748-.029c-3.476-.281-4.873-2.48-5.78-4.6a1.5,1.5,0,1,1,2.757-1.182c.943,2.2,1.875,2.675,3.267,2.787,4.634.372,14.269-4.619,19.438-7.306.723-.377,1.386-.722,1.974-1.022a1.5,1.5,0,0,1,1.362,2.674c-.581.3-1.237.637-1.952,1.009C49.605,105.916,40.788,110.5,35.209,110.5Z" style="fill:#332c44"/><circle cx="38.036" cy="64.148" r="12.76" style="fill:#ffe3de"/><path d="M26.071,61.2a1.5,1.5,0,0,1-1.405-2.023,14.3,14.3,0,0,1,8.609-8.475,1.5,1.5,0,1,1,1,2.828,11.176,11.176,0,0,0-5.58,4.328,11.34,11.34,0,0,0-1.217,2.366A1.5,1.5,0,0,1,26.071,61.2Z" style="fill:#332c44"/><path d="M38.014,78.4a14.269,14.269,0,0,1-10.655-4.8,1.5,1.5,0,0,1,2.245-1.99,11.271,11.271,0,0,0,17.773-1.181,11.262,11.262,0,0,0-9-17.543,1.5,1.5,0,1,1,.087-3,14.258,14.258,0,0,1-.447,28.51Z" style="fill:#332c44"/><path d="M72.374,116.83a12.677,12.677,0,0,1-1.273-.064,12.438,12.438,0,0,1-8.447-4.535,1.5,1.5,0,0,1,2.323-1.9,9.526,9.526,0,0,0,13.4,1.344,9.581,9.581,0,0,0,2.756-11.063A1.5,1.5,0,1,1,83.9,99.452,12.6,12.6,0,0,1,80.28,114,12.431,12.431,0,0,1,72.374,116.83Z" style="fill:#332c44"/></svg>