<?xml version="1.0" ?>
<svg data-name="图层 2" id="图层_2" viewBox="0 0 512 512" 
    xmlns="http://www.w3.org/2000/svg" 
    xmlns:xlink="http://www.w3.org/1999/xlink">
    <defs>
        <clipPath id="clip-path">
            <path fill="none" d="M381.84,376.41l-42.78-6.73c-22,9.88-51.25,15.91-83.35,15.91-31.85,0-60.89-5.94-82.83-15.69l-41.36,6.51A72.47,72.47,0,0,0,70.3,448H443.05A72.47,72.47,0,0,0,381.84,376.41Z"/>
        </clipPath>
    </defs>
    <title/>
    <path fill="#ffc4b8" d="M381.84,376.41l-76.61-12.05a14.73,14.73,0,0,1-12.44-14.55V306H220.57v43.84a14.73,14.73,0,0,1-12.45,14.55l-76.6,12.05A72.47,72.47,0,0,0,70.3,448H443.05A72.47,72.47,0,0,0,381.84,376.41Z"/>
    <path fill="#dd8c83" d="M292.79,306H220.57v23.67a71.63,71.63,0,0,0,25.49,5.25c14.36,0,31.05-5.94,46.73-16.4Z"/>
    <ellipse cx="255.61" cy="163.8" rx="112.5" ry="117.29"/>
    <ellipse cx="345.23" cy="154.67" rx="43.67" ry="56.22" transform="translate(-30.86 113.86) rotate(-17.94)"/>
    <ellipse cx="329.01" cy="125.66" rx="43.67" ry="56.22" transform="translate(-16.44 194.21) rotate(-32.13)"/>
    <ellipse cx="195.47" cy="145.61" rx="74.37" ry="57.77" transform="translate(-3.27 286.72) rotate(-72.06)"/>
    <path fill="#ffc4b8" d="M358.14,210.85c0,64.84-60.75,114-102.08,114s-102.2-49.2-102.2-114S199.59,93.46,256,93.46,358.14,146,358.14,210.85Z"/>
    <path d="M153.86,223.54l8.66-3.84,7.61,3.84s-2-95,85.48-115.75l-39-14.33s-48.15,14.39-62.8,70.66C145.68,195.6,153.86,223.54,153.86,223.54Z"/>
    <path d="M358.26,223.54l-9.09-3.87L342,223.54s2-95-85.48-115.75l39-14.33s48.15,14.39,62.79,70.66C366.45,195.6,358.26,223.54,358.26,223.54Z"/>
    <path fill="#ffc4b8" d="M167.69,248.51a31.87,31.87,0,0,1-4.55,1.52c-11.7,2.19-23.43-8.06-26.2-22.89s4.47-28.62,16.17-30.81a31.77,31.77,0,0,1,7.17.17Z"/>
    <path d="M235.94,148.37a66.36,66.36,0,0,0,92.54-72.78C282,74.57,243.38,120.08,235.94,148.37Z"/>
    <path fill="#ffc4b8" d="M345.23,248.72a32.05,32.05,0,0,0,4.54,1.52c11.7,2.19,23.44-8.06,26.21-22.89s-4.47-28.62-16.17-30.81a31.87,31.87,0,0,0-7.18.17Z"/>
    <path d="M309.72,178.51H291.45a3,3,0,0,1,0-6h18.27a3,3,0,0,1,0,6Z"/>
    <path d="M220.59,178.51H202.32a3,3,0,0,1,0-6h18.27a3,3,0,1,1,0,6Z"/>
    <path d="M165.42,144.12A80.5,80.5,0,0,0,289.81,74C234.33,64.17,179.58,111.58,165.42,144.12Z"/>
    <path fill="#fe942a" d="M381.84,376.41l-42.78-6.73c-22,9.88-51.25,15.91-83.35,15.91-31.85,0-60.89-5.94-82.83-15.69l-41.36,6.51A72.47,72.47,0,0,0,70.3,448H443.05A72.47,72.47,0,0,0,381.84,376.41Z"/>
    <g clip-path="url(#clip-path)">
        <rect fill="#db7112" height="6.82" width="391.97" x="59.96" y="395.43"/>
        <rect fill="#db7112" height="6.82" width="391.97" x="59.96" y="427.86"/>
        <rect fill="#db7112" height="6.82" transform="translate(-151.71 663.86) rotate(-90)" width="110.79" x="200.68" y="404.37"/>
        <rect fill="#db7112" height="6.82" transform="translate(-214.61 600.96) rotate(-90)" width="110.79" x="137.78" y="404.37"/>
        <rect fill="#db7112" height="6.82" transform="translate(-183.16 632.41) rotate(-90)" width="110.79" x="169.23" y="404.37"/>
        <rect fill="#db7112" height="6.82" transform="translate(-246.06 569.51) rotate(-90)" width="110.79" x="106.33" y="404.37"/>
        <rect fill="#db7112" height="6.82" transform="translate(-277.51 538.07) rotate(-90)" width="110.79" x="74.88" y="404.37"/>
        <rect fill="#db7112" height="6.82" transform="translate(-308.96 506.62) rotate(-90)" width="110.79" x="43.43" y="404.37"/>
        <rect fill="#db7112" height="6.82" transform="translate(-120.27 695.31) rotate(-90)" width="110.79" x="232.12" y="404.37"/>
        <rect fill="#db7112" height="6.82" transform="translate(-88.82 726.76) rotate(-90)" width="110.79" x="263.57" y="404.37"/>
        <rect fill="#db7112" height="6.82" transform="translate(-57.37 758.2) rotate(-90)" width="110.79" x="295.02" y="404.37"/>
        <rect fill="#db7112" height="6.82" transform="translate(-25.92 789.65) rotate(-90)" width="110.79" x="326.47" y="404.37"/>
        <rect fill="#db7112" height="6.82" transform="translate(5.53 821.1) rotate(-90)" width="110.79" x="357.92" y="404.37"/>
    </g>
    <path fill="#db402a" d="M380.55,448c-2.22-46-27.76-82.35-58.93-82.35a31.9,31.9,0,0,0-4.76.34c4.47,18.05,7.33,45.8,7.33,76.93,0,1.7,0,3.4,0,5.08Z"/>
    <path fill="#db402a" d="M189.26,448c0-1.68,0-3.38,0-5.08,0-31.13,2.86-58.88,7.32-76.93a31.76,31.76,0,0,0-4.75-.34c-31.18,0-56.71,36.31-58.94,82.35Z"/>
    <circle cx="211.45" cy="205.22" r="11.37"/>
    <circle fill="#fff" cx="206.31" cy="199.49" r="3.57"/>
    <circle cx="300.59" cy="205.22" r="11.37"/>
    <circle fill="#fff" cx="295.44" cy="199.49" r="3.57"/>
    <path fill="#06ccab" d="M337.52,274.3c3.29-4.76,8.91-49.6,8.91-49.6h-181s5.71,44.76,9.07,49.6c21.43,30.89,55.39,50.59,81.54,50.59s60.07-19.7,81.46-50.59Z"/>
    <path fill="#b3f2d7" d="M174.52,274.3h163c3.29-4.76,8.91-49.6,8.91-49.6h-181S171.16,269.46,174.52,274.3Z"/>
    <path fill="#b3f2d7" d="M342.43,237.7a3.12,3.12,0,0,1-.78-.11,3,3,0,0,1-2.11-3.67l10.19-38a3,3,0,0,1,5.8,1.55l-10.2,38A3,3,0,0,1,342.43,237.7Z"/>
    <path fill="#b3f2d7" d="M169.45,237.7a3,3,0,0,1-2.92-2.3l-9.16-38.2a3,3,0,1,1,5.83-1.4l9.17,38.2a3,3,0,0,1-2.22,3.61A2.86,2.86,0,0,1,169.45,237.7Z"/>
</svg>