<?xml version="1.0" ?><svg viewBox="0 0 64 64" xmlns="http://www.w3.org/2000/svg"><title/><g id="Icons"><path d="M13,10a1,1,0,0,1-.707-.293L8.76,6.173,5.226,7.587A2.013,2.013,0,0,1,2.7,6.625L.106,1.447A1,1,0,1,1,1.9.553L4.483,5.73,8.016,4.316a2,2,0,0,1,2.158.443l3.533,3.534A1,1,0,0,1,13,10Z" style="fill:#ff8680"/><path d="M51,10a1,1,0,0,1-.707-1.707l3.534-3.534a2,2,0,0,1,2.158-.442l3.532,1.412L62.106.553a1,1,0,1,1,1.789.894L61.307,6.625a2.015,2.015,0,0,1-2.533.961L55.241,6.174,51.707,9.707A1,1,0,0,1,51,10Z" style="fill:#e77973"/><path d="M1,30a1,1,0,0,1-.893-1.447l2.379-4.76a2,2,0,0,1,3.2-.519l2.038,2.038,2.38-4.759a1,1,0,1,1,1.789.894l-2.379,4.76a2,2,0,0,1-3.2.519L4.274,24.688,1.9,29.447A1,1,0,0,1,1,30Z" style="fill:#ff8680"/><path d="M63,30a1,1,0,0,1-.895-.553l-2.38-4.759-2.038,2.038a2,2,0,0,1-3.2-.519l-2.379-4.76a1,1,0,1,1,1.789-.894l2.379,4.759,2.038-2.038a2,2,0,0,1,3.2.519l2.379,4.76A1,1,0,0,1,63,30Z" style="fill:#e77973"/><path d="M11,18a1,1,0,0,1-.707-.293l-3.42-3.42L5.11,15.462a2,2,0,0,1-2.219,0L.446,13.832a1,1,0,1,1,1.109-1.664L4,13.8l1.764-1.175a2,2,0,0,1,2.523.25l3.42,3.42A1,1,0,0,1,11,18Z" style="fill:#ff8680"/><path d="M53,18a1,1,0,0,1-.707-1.707l3.421-3.42a2,2,0,0,1,2.523-.25L60,13.8l2.446-1.63a1,1,0,0,1,1.109,1.664l-2.445,1.63a2,2,0,0,1-2.219,0l-1.763-1.176-3.421,3.42A1,1,0,0,1,53,18Z" style="fill:#e77973"/><path d="M32,5V45H31A14,14,0,0,1,17,31V19c0-.11,0-.23.01-.34A14,14,0,0,1,31,5Z" style="fill:#ffd5c0"/><path d="M32,5v.04A13.97,13.97,0,0,0,19.03,18.28c-.6.12-1.19.24-1.76.34-.09.02-.18.03-.26.04A14,14,0,0,1,31,5Z" style="fill:#ffe0d2"/><path d="M26.98,43.64A13.916,13.916,0,0,0,32,44.96V45H31A14,14,0,0,1,17,31V20.67c.09-.02.18-.03.27-.05.56-.1,1.14-.21,1.73-.34V31A13.991,13.991,0,0,0,26.98,43.64Z" style="fill:#ffe0d2"/><path d="M47,19V31A13.986,13.986,0,0,1,33,45H32V5h1A14.008,14.008,0,0,1,46.93,17.59,13.052,13.052,0,0,1,47,19Z" style="fill:#f9cebb"/><path d="M41.32,9.54A13.97,13.97,0,0,0,32,5.04V5h1A14,14,0,0,1,46.92,17.58c-.07-.05-.12-.1-.19-.15a12.241,12.241,0,0,1-2.3-2.37.01.01,0,0,1-.01-.01,13.9,13.9,0,0,0-3.1-5.51Z" style="fill:#f2c8b6"/><path d="M47,19.64V31A14,14,0,0,1,33,45H32v-.04A13.985,13.985,0,0,0,45,31V19c0-.11,0-.23-.01-.34-.01-.32-.03-.65-.06-.96a12.535,12.535,0,0,0,1.8,1.73C46.82,19.5,46.9,19.57,47,19.64Z" style="fill:#f2c8b6"/><path d="M19.03,18.28c-.01.12-.02.25-.02.38-.01.11-.01.23-.01.34v1.28c-.59.13-1.17.24-1.73.34-.09.02-.18.03-.27.05V19c0-.11,0-.23.01-.34.08-.01.17-.02.26-.04C17.84,18.52,18.43,18.4,19.03,18.28Z" style="fill:#f4cfc1"/><path d="M32,14.29v2c-1.42.59-2.93,1.17-4.53,1.71A70.382,70.382,0,0,1,19,20.28V19c0-.11,0-.23.01-.34,0-.13.01-.26.02-.38A70.009,70.009,0,0,0,27.47,16C29.07,15.46,30.58,14.88,32,14.29Z" style="fill:#f2c8b6"/><path d="M47,19v.64c-.1-.07-.18-.14-.27-.21a12.535,12.535,0,0,1-1.8-1.73,13.538,13.538,0,0,0-.5-2.64,12.241,12.241,0,0,0,2.3,2.37c.07.05.12.1.19.15.01.08.02.17.03.26a1.948,1.948,0,0,1,.02.25c.01.19.02.38.02.57C47,18.77,47,18.89,47,19Z" style="fill:#ddb3a6"/><path d="M44.43,15.06a13.538,13.538,0,0,1,.5,2.64,8.243,8.243,0,0,1-1.6-2.7s-.08-.23-1.13-4A67.745,67.745,0,0,1,32,16.29v-2a67.214,67.214,0,0,0,9.32-4.75c.3-.18.6-.36.88-.54.36,1.29.61,2.17.78,2.76.32,1.14.35,1.24.35,1.24a7.635,7.635,0,0,0,1.09,2.05A.01.01,0,0,0,44.43,15.06Z" style="fill:#eabdad"/><path d="M46.93,17.59a1.948,1.948,0,0,1,.02.25c-.01-.09-.02-.18-.03-.26Z" style="fill:#eabdad"/><path d="M17,23v7H16a2.772,2.772,0,0,1-1-.18A2.968,2.968,0,0,1,13,27V24a1,1,0,0,1,1-1Z" style="fill:#ffe0d2"/><path d="M17,23v7a2.772,2.772,0,0,1-1-.18A2.968,2.968,0,0,1,14,27V24a1,1,0,0,1,1-1Z" style="fill:#ffd5c0"/><path d="M17,29a1.753,1.753,0,0,1-.638-.113A1.986,1.986,0,0,1,15,27V24h2Z" style="fill:#f9c9b4"/><path d="M47,23v7h1a2.772,2.772,0,0,0,1-.18A2.968,2.968,0,0,0,51,27V24a1,1,0,0,0-1-1Z" style="fill:#ffd5c0"/><path d="M47,23v7a2.772,2.772,0,0,0,1-.18A2.968,2.968,0,0,0,50,27V24a1,1,0,0,0-1-1Z" style="fill:#f9cebb"/><path d="M47,29a1.758,1.758,0,0,0,.639-.113A1.985,1.985,0,0,0,49,27V24H47Z" style="fill:#f4b89a"/><path d="M32,36.5v1.21l-1.65,1.64a.483.483,0,0,1-.7,0L28,37.71l-1.65,1.64a.495.495,0,0,1-.7-.7l2-2a.483.483,0,0,1,.7,0L30,38.29l1.65-1.64A.469.469,0,0,1,32,36.5Z" style="fill:#484749"/><path d="M38.35,39.35a.483.483,0,0,1-.7,0L36,37.71l-1.65,1.64a.483.483,0,0,1-.7,0L32,37.71V36.5a.469.469,0,0,1,.35.15L34,38.29l1.65-1.64a.483.483,0,0,1,.7,0l2,2A.483.483,0,0,1,38.35,39.35Z" style="fill:#414043"/><path d="M39,27.5a.5.5,0,0,1-.353-.146l-4-4A.5.5,0,0,1,35,22.5h6a.5.5,0,0,1,0,1H36.207l3.147,3.146A.5.5,0,0,1,39,27.5Z" style="fill:#414043"/><path d="M32,48v7c-.02,0-.39,0-.61-.02-.12-.01-.24-.02-.35-.04a.986.986,0,0,1-.24-.03,7.7,7.7,0,0,1-4.51-1.96c-.16-.14-.3-.29-.44-.43a7.982,7.982,0,0,1-.8-1.03,4.231,4.231,0,0,1-.24-.4c.13-.38.28-.84.43-1.35.24-.76.48-1.64.69-2.52a16.155,16.155,0,0,0,3.07.66A16.647,16.647,0,0,0,31,48Z" style="fill:#ffd5c0"/><path d="M32,45v3H31a16.647,16.647,0,0,1-2-.12,16.155,16.155,0,0,1-3.07-.66c.21-.9.41-1.89.58-2.97a12.924,12.924,0,0,0,2.49.6A13.168,13.168,0,0,0,31,45Z" style="fill:#ffd5c0"/><path d="M25.93,47.22c-.21.88-.45,1.76-.69,2.52-.15.51-.3.97-.43,1.35-.06-.11-.12-.22-.17-.32a5.45,5.45,0,0,1-.23-.51c-.09-.21-.16-.4-.22-.58-.02-.07-.04-.14-.06-.2-.06-.2-.1-.36-.13-.48.14-.78.29-1.55.43-2.33A15.816,15.816,0,0,0,25.93,47.22Z" style="fill:#ffe0d2"/><path d="M26.51,44.25c-.17,1.08-.37,2.07-.58,2.97a15.816,15.816,0,0,1-1.5-.55c.18-1.01.36-2.02.55-3.03a10.254,10.254,0,0,0,.96.41A4.3,4.3,0,0,0,26.51,44.25Z" style="fill:#f4cfc3"/><path d="M32,45v3H31a16.647,16.647,0,0,1-2-.12,16.155,16.155,0,0,1-3.07-.66c.21-.9.41-1.89.58-2.97a12.924,12.924,0,0,0,2.49.6A13.168,13.168,0,0,0,31,45Z" style="fill:#f2c8b6"/><path d="M32,48v7c.02,0,.39,0,.61-.02.12-.01.24-.02.35-.04a.986.986,0,0,0,.24-.03,7.7,7.7,0,0,0,4.51-1.96c.16-.14.3-.29.44-.43a7.982,7.982,0,0,0,.8-1.03,4.231,4.231,0,0,0,.24-.4c-.13-.38-.28-.84-.43-1.35-.24-.76-.48-1.64-.69-2.52a16.155,16.155,0,0,1-3.07.66A16.647,16.647,0,0,1,33,48Z" style="fill:#f9cebb"/><path d="M32,45v3h1a16.647,16.647,0,0,0,2-.12,16.155,16.155,0,0,0,3.07-.66c-.21-.9-.41-1.89-.58-2.97a12.924,12.924,0,0,1-2.49.6A13.168,13.168,0,0,1,33,45Z" style="fill:#ffd5c0"/><path d="M38.07,47.22c.21.88.45,1.76.69,2.52.15.51.3.97.43,1.35.06-.11.12-.22.17-.32a5.45,5.45,0,0,0,.23-.51c.09-.21.16-.4.22-.58.02-.07.04-.14.06-.2.06-.2.1-.36.13-.48-.14-.78-.29-1.55-.43-2.33A15.816,15.816,0,0,1,38.07,47.22Z" style="fill:#f2c8b6"/><path d="M32,48v7c-.02,0-.39,0-.61-.02-.12-.01-.24-.02-.35-.04a.986.986,0,0,1-.24-.03,7.7,7.7,0,0,1-4.51-1.96c-.16-.14-.3-.29-.44-.43a7.982,7.982,0,0,1-.8-1.03,4.231,4.231,0,0,1-.24-.4c.13-.38.28-.84.43-1.35.24-.76.48-1.64.69-2.52a16.155,16.155,0,0,0,3.07.66A16.647,16.647,0,0,0,31,48Z" style="fill:#ffd5c0"/><path d="M25.93,47.22c-.21.88-.45,1.76-.69,2.52-.15.51-.3.97-.43,1.35-.06-.11-.12-.22-.17-.32a5.45,5.45,0,0,1-.23-.51c-.09-.21-.16-.4-.22-.58-.02-.07-.04-.14-.06-.2-.06-.2-.1-.36-.13-.48.14-.78.29-1.55.43-2.33A15.816,15.816,0,0,0,25.93,47.22Z" style="fill:#ffe0d2"/><path d="M32,48v7c.02,0,.39,0,.61-.02.12-.01.24-.02.35-.04a.986.986,0,0,0,.24-.03,7.7,7.7,0,0,0,4.51-1.96c.16-.14.3-.29.44-.43a7.982,7.982,0,0,0,.8-1.03,4.231,4.231,0,0,0,.24-.4c-.13-.38-.28-.84-.43-1.35-.24-.76-.48-1.64-.69-2.52a16.155,16.155,0,0,1-3.07.66A16.647,16.647,0,0,1,33,48Z" style="fill:#f9cebb"/><path d="M38.07,47.22c.21.88.45,1.76.69,2.52.15.51.3.97.43,1.35.06-.11.12-.22.17-.32a5.45,5.45,0,0,0,.23-.51c.09-.21.16-.4.22-.58.02-.07.04-.14.06-.2.06-.2.1-.36.13-.48-.14-.78-.29-1.55-.43-2.33A15.816,15.816,0,0,1,38.07,47.22Z" style="fill:#f2c8b6"/><path d="M37.49,44.25c.17,1.08.37,2.07.58,2.97a15.816,15.816,0,0,0,1.5-.55c-.18-1.01-.36-2.02-.55-3.03a10.254,10.254,0,0,1-.96.41A4.3,4.3,0,0,1,37.49,44.25Z" style="fill:#e5b6a8"/><path d="M32,45v3h1a16.647,16.647,0,0,0,2-.12,16.155,16.155,0,0,0,3.07-.66c-.21-.9-.41-1.89-.58-2.97a12.924,12.924,0,0,1-2.49.6A13.168,13.168,0,0,1,33,45Z" style="fill:#eabdad"/><path d="M34.73,31.56,33.87,27H31.63l-.86,4.56A1.179,1.179,0,0,0,31.87,33h1.76A1.179,1.179,0,0,0,34.73,31.56Z" style="fill:#eabdad"/><path d="M32,27v6h-.88a1.179,1.179,0,0,1-1.1-1.44L30.88,27Z" style="fill:#f4b89a"/><path d="M32.88,33H32V27h1.12l.86,4.56A1.179,1.179,0,0,1,32.88,33Z" style="fill:#efb297"/><path d="M31.75,33h-.63a1.179,1.179,0,0,1-1.1-1.44L30.88,27h.63l-.86,4.56A1.179,1.179,0,0,0,31.75,33Z" style="fill:#f7c4ad"/><path d="M32.248,33h.63a1.179,1.179,0,0,0,1.1-1.44L33.118,27h-.63l.86,4.56A1.179,1.179,0,0,1,32.248,33Z" style="fill:#efae8e"/><path d="M32,32.5V33h-.25a1.085,1.085,0,0,1-.94-.55,1.059,1.059,0,0,0,.31.05Z" style="fill:#efb297"/><path d="M31.75,33h-.63a1.179,1.179,0,0,1-1.1-1.44,1.212,1.212,0,0,0,.79.89A1.085,1.085,0,0,0,31.75,33Z" style="fill:#f4b89a"/><path d="M32.88,33h-.63a1.085,1.085,0,0,0,.94-.55,1.212,1.212,0,0,0,.79-.89A1.179,1.179,0,0,1,32.88,33Z" style="fill:#eaa688"/><path d="M33.19,32.45a1.085,1.085,0,0,1-.94.55H32v-.5h.88A1.059,1.059,0,0,0,33.19,32.45Z" style="fill:#efae8e"/><path d="M19.03,18.28c-.01.12-.02.25-.02.38-.01.11-.01.23-.01.34v-.71A.037.037,0,0,1,19.03,18.28Z" style="fill:#f4cfc1"/><rect height="1" style="fill:#565556" width="2" x="45" y="22"/><path d="M47,19v.64c-.1-.07-.18-.14-.27-.21A12.588,12.588,0,0,1,45,17.78v-2a13.237,13.237,0,0,0,1.73,1.65c.07.05.12.1.19.15.01.08.02.17.03.26a1.948,1.948,0,0,1,.02.25c.01.19.02.38.02.57C47,18.77,47,18.89,47,19Z" style="fill:#484749"/><path d="M47,19.64v1.87H45V17.78a12.588,12.588,0,0,0,1.73,1.65C46.82,19.5,46.9,19.57,47,19.64Z" style="fill:#565556"/><rect height="1" style="fill:#666" width="2" x="17" y="22"/><path d="M17.27,20.62c.56-.1,1.14-.21,1.73-.34v1.23H17v-.84C17.09,20.65,17.18,20.64,17.27,20.62Z" style="fill:#666"/><path d="M19,18.29v1.99c-.59.13-1.17.24-1.73.34-.09.02-.18.03-.27.05V19c0-.11,0-.23.01-.34.08-.01.17-.02.26-.04C17.83,18.52,18.41,18.4,19,18.29Z" style="fill:#565556"/><path d="M32,1V14.29c-1.42.59-2.93,1.17-4.53,1.71a71.468,71.468,0,0,1-10.2,2.62c-.79.15-1.54.27-2.27.38V16C15,7.72,22.62,1,32,1Z" style="fill:#484749"/><path d="M32,1v.11C23.56,1.98,17,8.32,17,16v2.67c-.69.13-1.35.23-2,.33V16C15,7.72,22.62,1,32,1Z" style="fill:#565556"/><path d="M49,16v3a19.75,19.75,0,0,1-2-1.36c-.1-.07-.18-.14-.27-.21A9.887,9.887,0,0,1,43.33,13s-.08-.23-1.13-4A67.745,67.745,0,0,1,32,14.29V1A18.043,18.043,0,0,1,44.58,5.92c.36.36.71.73,1.04,1.11s.63.78.92,1.2a14.882,14.882,0,0,1,.78,1.27c.12.22.24.44.34.66a13.34,13.34,0,0,1,1.14,3.56A13.153,13.153,0,0,1,49,16Z" style="fill:#414043"/><path d="M49,16v3a19.75,19.75,0,0,1-2-1.36V16C47,8.32,40.44,1.98,32,1.11V1A18.043,18.043,0,0,1,44.58,5.92a13.541,13.541,0,0,1,1.04,1.11,11.917,11.917,0,0,1,.92,1.2,12.71,12.71,0,0,1,.78,1.27c.12.22.24.44.34.66a13.34,13.34,0,0,1,1.14,3.56A13.153,13.153,0,0,1,49,16Z" style="fill:#3d3d3d"/><path d="M32,55v8H1c.07-.98.6-7.35,5.78-10.79a12.229,12.229,0,0,1,4.84-1.87Q17.815,49.665,24,49c.03.12.07.28.13.48.02.06.04.13.06.2.06.18.13.37.22.58a5.45,5.45,0,0,0,.23.51c.05.1.11.21.17.32a4.231,4.231,0,0,0,.24.4,7.982,7.982,0,0,0,.8,1.03c.14.14.28.29.44.43a7.7,7.7,0,0,0,4.51,1.96.986.986,0,0,0,.24.03c.11.02.23.03.35.04C31.61,55,31.98,55,32,55Z" style="fill:#febd73"/><path d="M32,63H63c-.07-.98-.6-7.35-5.78-10.79a12.229,12.229,0,0,0-4.84-1.87L40,49a7.587,7.587,0,0,1-6.8,5.91.986.986,0,0,1-.24.03c-.11.02-.23.03-.35.04C32.4,55,32.02,55,32,55Z" style="fill:#fab06b"/><path d="M24.41,50.26a.612.612,0,0,0,.05.12l-8.84.96a12.229,12.229,0,0,0-4.84,1.87C6.53,56.04,5.41,60.84,5.11,63H1c.07-.98.6-7.35,5.78-10.79a12.229,12.229,0,0,1,4.84-1.87Q17.815,49.665,24,49c.03.12.07.28.13.48.02.06.04.13.06.2C24.25,49.86,24.32,50.05,24.41,50.26Z" style="fill:#fedc96"/><path d="M24.46,50.38c-1.03.11-2.06.22-3.09.34l-.03-.09-.08-.29a4.509,4.509,0,0,1-.16-.59l-.11-.42L24,49c.03.12.07.28.13.48.02.06.04.13.06.2.06.18.13.37.22.58A.612.612,0,0,0,24.46,50.38Z" style="fill:#febd73"/><path d="M32,55v3c-.03,0-.56,0-.88-.03-.13-.01-.25-.03-.37-.04a2.348,2.348,0,0,1-.37-.05,10.584,10.584,0,0,1-6.11-2.71c-.13-.12-.3-.28-.46-.44l-.18-.19a11.261,11.261,0,0,1-1.1-1.42c-.1-.15-.24-.39-.36-.61-.07-.13-.15-.27-.22-.4-.12-.25-.23-.5-.32-.73-.12-.27-.21-.51-.29-.75l-.08-.29a4.509,4.509,0,0,1-.16-.59l-.11-.42L24,49c.03.12.07.28.13.48.02.06.04.13.06.2.06.18.13.37.22.58a5.45,5.45,0,0,0,.23.51c.05.1.11.21.17.32a4.231,4.231,0,0,0,.24.4,7.982,7.982,0,0,0,.8,1.03c.14.14.28.29.44.43a7.7,7.7,0,0,0,4.51,1.96.986.986,0,0,0,.24.03c.11.02.23.03.35.04C31.61,55,31.98,55,32,55Z" style="fill:#fab06b"/><path d="M24.46,50.38c-1.03.11-2.06.22-3.09.34l-.03-.09-.08-.29a4.509,4.509,0,0,1-.16-.59l-.11-.42L24,49c.03.12.07.28.13.48.02.06.04.13.06.2.06.18.13.37.22.58A.612.612,0,0,0,24.46,50.38Z" style="fill:#f9ba85"/><path d="M43.01,49.33l-.1.4a5.926,5.926,0,0,1-.17.61l-.08.29c-.08.24-.17.48-.29.75a7.581,7.581,0,0,1-.33.73c-.06.13-.14.27-.22.42-.11.2-.25.44-.4.66a10.58,10.58,0,0,1-1.05,1.35l-.18.19c-.16.16-.33.32-.5.48a10.551,10.551,0,0,1-6.07,2.67,2.348,2.348,0,0,1-.37.05c-.12.01-.25.03-.37.04-.32.03-.85.03-.88.03V55c.02,0,.39,0,.61-.02.12-.01.24-.02.35-.04a.986.986,0,0,0,.24-.03A7.59,7.59,0,0,0,40,49Z" style="fill:#fc8e52"/><path d="M25,27.5a.5.5,0,0,1-.353-.854L27.793,23.5H23a.5.5,0,0,1,0-1h6a.5.5,0,0,1,.354.854l-4,4A.5.5,0,0,1,25,27.5Z" style="fill:#484749"/><path d="M39.59,50.26a.612.612,0,0,1-.05.12l8.84.96a12.229,12.229,0,0,1,4.84,1.87c4.25,2.83,5.37,7.63,5.67,9.79H63c-.07-.98-.6-7.35-5.78-10.79a12.229,12.229,0,0,0-4.84-1.87Q46.185,49.665,40,49c-.03.12-.07.28-.13.48-.02.06-.04.13-.06.2C39.75,49.86,39.68,50.05,39.59,50.26Z" style="fill:#fc8e52"/><path d="M39.54,50.38c1.03.11,2.06.22,3.09.34l.03-.09.08-.29a4.509,4.509,0,0,0,.16-.59l.11-.42L40,49c-.03.12-.07.28-.13.48-.02.06-.04.13-.06.2-.06.18-.13.37-.22.58A.612.612,0,0,1,39.54,50.38Z" style="fill:#ed753a"/></g></svg>