<?xml version="1.0" encoding="UTF-8" standalone="no"?>
<svg
   xmlns:dc="http://purl.org/dc/elements/1.1/"
   xmlns:cc="http://creativecommons.org/ns#"
   xmlns:rdf="http://www.w3.org/1999/02/22-rdf-syntax-ns#"
   xmlns:svg="http://www.w3.org/2000/svg"
   xmlns="http://www.w3.org/2000/svg"
   xmlns:sodipodi="http://sodipodi.sourceforge.net/DTD/sodipodi-0.dtd"
   xmlns:inkscape="http://www.inkscape.org/namespaces/inkscape"
   viewBox="0 0 64 64"
   version="1.1"
   id="svg149"
   sodipodi:docname="svg11.svg"
   inkscape:version="0.92.5 (2060ec1f9f, 2020-04-08)">
  <metadata
     id="metadata155">
    <rdf:RDF>
      <cc:Work
         rdf:about="">
        <dc:format>image/svg+xml</dc:format>
        <dc:type
           rdf:resource="http://purl.org/dc/dcmitype/StillImage" />
        <dc:title></dc:title>
      </cc:Work>
    </rdf:RDF>
  </metadata>
  <defs
     id="defs153" />
  <sodipodi:namedview
     pagecolor="#ffffff"
     bordercolor="#666666"
     borderopacity="1"
     objecttolerance="10"
     gridtolerance="10"
     guidetolerance="10"
     inkscape:pageopacity="0"
     inkscape:pageshadow="2"
     inkscape:window-width="1600"
     inkscape:window-height="873"
     id="namedview151"
     showgrid="false"
     inkscape:zoom="10.429825"
     inkscape:cx="32.521163"
     inkscape:cy="30.744907"
     inkscape:window-x="0"
     inkscape:window-y="27"
     inkscape:window-maximized="1"
     inkscape:current-layer="svg149" />
  <path
     inkscape:connector-curvature="0"
     id="path4"
     style="fill:#ffd5c0"
     d="M 32,5 V 45 H 31 A 14,14 0 0 1 17,31 V 19 c 0,-0.11 0,-0.23 0.01,-0.34 A 14,14 0 0 1 31,5 Z" />
  <path
     inkscape:connector-curvature="0"
     id="path6"
     style="fill:#ffe0d2"
     d="M 32,5 V 5.04 A 13.97,13.97 0 0 0 19.03,18.28 c -0.6,0.12 -1.19,0.24 -1.76,0.34 -0.09,0.02 -0.18,0.03 -0.26,0.04 A 14,14 0 0 1 31,5 Z" />
  <path
     inkscape:connector-curvature="0"
     id="path8"
     style="fill:#ffe0d2"
     d="M 26.98,43.64 A 13.916,13.916 0 0 0 32,44.96 V 45 H 31 A 14,14 0 0 1 17,31 V 20.67 c 0.09,-0.02 0.18,-0.03 0.27,-0.05 0.56,-0.1 1.14,-0.21 1.73,-0.34 V 31 a 13.991,13.991 0 0 0 7.98,12.64 z" />
  <path
     inkscape:connector-curvature="0"
     id="path10"
     style="fill:#f9cebb"
     d="M 47,19 V 31 A 13.986,13.986 0 0 1 33,45 H 32 V 5 h 1 A 14.008,14.008 0 0 1 46.93,17.59 13.052,13.052 0 0 1 47,19 Z" />
  <path
     inkscape:connector-curvature="0"
     id="path12"
     style="fill:#f2c8b6"
     d="M 41.32,9.54 A 13.97,13.97 0 0 0 32,5.04 V 5 h 1 a 14,14 0 0 1 13.92,12.58 c -0.07,-0.05 -0.12,-0.1 -0.19,-0.15 a 12.241,12.241 0 0 1 -2.3,-2.37 0.01,0.01 0 0 1 -0.01,-0.01 13.9,13.9 0 0 0 -3.1,-5.51 z" />
  <path
     inkscape:connector-curvature="0"
     id="path14"
     style="fill:#f2c8b6"
     d="M 47,19.64 V 31 A 14,14 0 0 1 33,45 H 32 V 44.96 A 13.985,13.985 0 0 0 45,31 V 19 c 0,-0.11 0,-0.23 -0.01,-0.34 -0.01,-0.32 -0.03,-0.65 -0.06,-0.96 a 12.535,12.535 0 0 0 1.8,1.73 c 0.09,0.07 0.17,0.14 0.27,0.21 z" />
  <path
     inkscape:connector-curvature="0"
     id="path16"
     style="fill:#f4cfc1"
     d="M 19.03,18.28 C 19.02,18.4 19.01,18.53 19.01,18.66 19,18.77 19,18.89 19,19 v 1.28 c -0.59,0.13 -1.17,0.24 -1.73,0.34 -0.09,0.02 -0.18,0.03 -0.27,0.05 V 19 c 0,-0.11 0,-0.23 0.01,-0.34 0.08,-0.01 0.17,-0.02 0.26,-0.04 0.57,-0.1 1.16,-0.22 1.76,-0.34 z" />
  <path
     inkscape:connector-curvature="0"
     id="path18"
     style="fill:#f2c8b6"
     d="m 32,14.29 v 2 C 30.58,16.88 29.07,17.46 27.47,18 A 70.382,70.382 0 0 1 19,20.28 V 19 c 0,-0.11 0,-0.23 0.01,-0.34 0,-0.13 0.01,-0.26 0.02,-0.38 A 70.009,70.009 0 0 0 27.47,16 c 1.6,-0.54 3.11,-1.12 4.53,-1.71 z" />
  <path
     inkscape:connector-curvature="0"
     id="path20"
     style="fill:#ddb3a6"
     d="m 47,19 v 0.64 C 46.9,19.57 46.82,19.5 46.73,19.43 a 12.535,12.535 0 0 1 -1.8,-1.73 13.538,13.538 0 0 0 -0.5,-2.64 12.241,12.241 0 0 0 2.3,2.37 c 0.07,0.05 0.12,0.1 0.19,0.15 0.01,0.08 0.02,0.17 0.03,0.26 a 1.948,1.948 0 0 1 0.02,0.25 c 0.01,0.19 0.02,0.38 0.02,0.57 C 47,18.77 47,18.89 47,19 Z" />
  <path
     inkscape:connector-curvature="0"
     id="path22"
     style="fill:#eabdad"
     d="m 44.43,15.06 a 13.538,13.538 0 0 1 0.5,2.64 8.243,8.243 0 0 1 -1.6,-2.7 c 0,0 -0.08,-0.23 -1.13,-4 A 67.745,67.745 0 0 1 32,16.29 v -2 a 67.214,67.214 0 0 0 9.32,-4.75 c 0.3,-0.18 0.6,-0.36 0.88,-0.54 0.36,1.29 0.61,2.17 0.78,2.76 0.32,1.14 0.35,1.24 0.35,1.24 a 7.635,7.635 0 0 0 1.09,2.05 0.01,0.01 0 0 0 0.01,0.01 z" />
  <path
     inkscape:connector-curvature="0"
     id="path24"
     style="fill:#eabdad"
     d="m 46.93,17.59 a 1.948,1.948 0 0 1 0.02,0.25 c -0.01,-0.09 -0.02,-0.18 -0.03,-0.26 z" />
  <path
     inkscape:connector-curvature="0"
     id="path26"
     style="fill:#ffe0d2"
     d="m 17,23 v 7 H 16 A 2.772,2.772 0 0 1 15,29.82 2.968,2.968 0 0 1 13,27 v -3 a 1,1 0 0 1 1,-1 z" />
  <path
     inkscape:connector-curvature="0"
     id="path28"
     style="fill:#ffd5c0"
     d="m 17,23 v 7 A 2.772,2.772 0 0 1 16,29.82 2.968,2.968 0 0 1 14,27 v -3 a 1,1 0 0 1 1,-1 z" />
  <path
     inkscape:connector-curvature="0"
     id="path30"
     style="fill:#f9c9b4"
     d="M 17,29 A 1.753,1.753 0 0 1 16.362,28.887 1.986,1.986 0 0 1 15,27 v -3 h 2 z" />
  <path
     inkscape:connector-curvature="0"
     id="path32"
     style="fill:#ffd5c0"
     d="m 47,23 v 7 h 1 A 2.772,2.772 0 0 0 49,29.82 2.968,2.968 0 0 0 51,27 v -3 a 1,1 0 0 0 -1,-1 z" />
  <path
     inkscape:connector-curvature="0"
     id="path34"
     style="fill:#f9cebb"
     d="m 47,23 v 7 A 2.772,2.772 0 0 0 48,29.82 2.968,2.968 0 0 0 50,27 v -3 a 1,1 0 0 0 -1,-1 z" />
  <path
     inkscape:connector-curvature="0"
     id="path36"
     style="fill:#f4b89a"
     d="M 47,29 A 1.758,1.758 0 0 0 47.639,28.887 1.985,1.985 0 0 0 49,27 v -3 h -2 z" />
  <path
     inkscape:connector-curvature="0"
     id="path38"
     style="fill:#ffd5c0"
     d="m 32,48 v 7 c -0.02,0 -0.39,0 -0.61,-0.02 -0.12,-0.01 -0.24,-0.02 -0.35,-0.04 A 0.986,0.986 0 0 1 30.8,54.91 7.7,7.7 0 0 1 26.29,52.95 c -0.16,-0.14 -0.3,-0.29 -0.44,-0.43 a 7.982,7.982 0 0 1 -0.8,-1.03 4.231,4.231 0 0 1 -0.24,-0.4 c 0.13,-0.38 0.28,-0.84 0.43,-1.35 0.24,-0.76 0.48,-1.64 0.69,-2.52 A 16.155,16.155 0 0 0 29,47.88 16.647,16.647 0 0 0 31,48 Z" />
  <path
     inkscape:connector-curvature="0"
     id="path40"
     style="fill:#ffd5c0"
     d="m 32,45 v 3 h -1 a 16.647,16.647 0 0 1 -2,-0.12 16.155,16.155 0 0 1 -3.07,-0.66 c 0.21,-0.9 0.41,-1.89 0.58,-2.97 A 12.924,12.924 0 0 0 29,44.85 13.168,13.168 0 0 0 31,45 Z" />
  <path
     inkscape:connector-curvature="0"
     id="path42"
     style="fill:#ffe0d2"
     d="m 25.93,47.22 c -0.21,0.88 -0.45,1.76 -0.69,2.52 -0.15,0.51 -0.3,0.97 -0.43,1.35 -0.06,-0.11 -0.12,-0.22 -0.17,-0.32 a 5.45,5.45 0 0 1 -0.23,-0.51 c -0.09,-0.21 -0.16,-0.4 -0.22,-0.58 -0.02,-0.07 -0.04,-0.14 -0.06,-0.2 -0.06,-0.2 -0.1,-0.36 -0.13,-0.48 0.14,-0.78 0.29,-1.55 0.43,-2.33 a 15.816,15.816 0 0 0 1.5,0.55 z" />
  <path
     inkscape:connector-curvature="0"
     id="path44"
     style="fill:#f4cfc3"
     d="m 26.51,44.25 c -0.17,1.08 -0.37,2.07 -0.58,2.97 a 15.816,15.816 0 0 1 -1.5,-0.55 c 0.18,-1.01 0.36,-2.02 0.55,-3.03 a 10.254,10.254 0 0 0 0.96,0.41 4.3,4.3 0 0 0 0.57,0.2 z" />
  <path
     inkscape:connector-curvature="0"
     id="path46"
     style="fill:#f2c8b6"
     d="m 32,45 v 3 h -1 a 16.647,16.647 0 0 1 -2,-0.12 16.155,16.155 0 0 1 -3.07,-0.66 c 0.21,-0.9 0.41,-1.89 0.58,-2.97 A 12.924,12.924 0 0 0 29,44.85 13.168,13.168 0 0 0 31,45 Z" />
  <path
     inkscape:connector-curvature="0"
     id="path48"
     style="fill:#f9cebb"
     d="m 32,48 v 7 c 0.02,0 0.39,0 0.61,-0.02 0.12,-0.01 0.24,-0.02 0.35,-0.04 a 0.986,0.986 0 0 0 0.24,-0.03 7.7,7.7 0 0 0 4.51,-1.96 c 0.16,-0.14 0.3,-0.29 0.44,-0.43 a 7.982,7.982 0 0 0 0.8,-1.03 4.231,4.231 0 0 0 0.24,-0.4 C 39.06,50.71 38.91,50.25 38.76,49.74 38.52,48.98 38.28,48.1 38.07,47.22 A 16.155,16.155 0 0 1 35,47.88 16.647,16.647 0 0 1 33,48 Z" />
  <path
     inkscape:connector-curvature="0"
     id="path50"
     style="fill:#ffd5c0"
     d="m 32,45 v 3 h 1 a 16.647,16.647 0 0 0 2,-0.12 16.155,16.155 0 0 0 3.07,-0.66 c -0.21,-0.9 -0.41,-1.89 -0.58,-2.97 A 12.924,12.924 0 0 1 35,44.85 13.168,13.168 0 0 1 33,45 Z" />
  <path
     inkscape:connector-curvature="0"
     id="path52"
     style="fill:#f2c8b6"
     d="m 38.07,47.22 c 0.21,0.88 0.45,1.76 0.69,2.52 0.15,0.51 0.3,0.97 0.43,1.35 0.06,-0.11 0.12,-0.22 0.17,-0.32 a 5.45,5.45 0 0 0 0.23,-0.51 c 0.09,-0.21 0.16,-0.4 0.22,-0.58 0.02,-0.07 0.04,-0.14 0.06,-0.2 0.06,-0.2 0.1,-0.36 0.13,-0.48 -0.14,-0.78 -0.29,-1.55 -0.43,-2.33 a 15.816,15.816 0 0 1 -1.5,0.55 z" />
  <path
     inkscape:connector-curvature="0"
     id="path54"
     style="fill:#ffd5c0"
     d="m 32,48 v 7 c -0.02,0 -0.39,0 -0.61,-0.02 -0.12,-0.01 -0.24,-0.02 -0.35,-0.04 A 0.986,0.986 0 0 1 30.8,54.91 7.7,7.7 0 0 1 26.29,52.95 c -0.16,-0.14 -0.3,-0.29 -0.44,-0.43 a 7.982,7.982 0 0 1 -0.8,-1.03 4.231,4.231 0 0 1 -0.24,-0.4 c 0.13,-0.38 0.28,-0.84 0.43,-1.35 0.24,-0.76 0.48,-1.64 0.69,-2.52 A 16.155,16.155 0 0 0 29,47.88 16.647,16.647 0 0 0 31,48 Z" />
  <path
     inkscape:connector-curvature="0"
     id="path56"
     style="fill:#ffe0d2"
     d="m 25.93,47.22 c -0.21,0.88 -0.45,1.76 -0.69,2.52 -0.15,0.51 -0.3,0.97 -0.43,1.35 -0.06,-0.11 -0.12,-0.22 -0.17,-0.32 a 5.45,5.45 0 0 1 -0.23,-0.51 c -0.09,-0.21 -0.16,-0.4 -0.22,-0.58 -0.02,-0.07 -0.04,-0.14 -0.06,-0.2 -0.06,-0.2 -0.1,-0.36 -0.13,-0.48 0.14,-0.78 0.29,-1.55 0.43,-2.33 a 15.816,15.816 0 0 0 1.5,0.55 z" />
  <path
     inkscape:connector-curvature="0"
     id="path58"
     style="fill:#f9cebb"
     d="m 32,48 v 7 c 0.02,0 0.39,0 0.61,-0.02 0.12,-0.01 0.24,-0.02 0.35,-0.04 a 0.986,0.986 0 0 0 0.24,-0.03 7.7,7.7 0 0 0 4.51,-1.96 c 0.16,-0.14 0.3,-0.29 0.44,-0.43 a 7.982,7.982 0 0 0 0.8,-1.03 4.231,4.231 0 0 0 0.24,-0.4 C 39.06,50.71 38.91,50.25 38.76,49.74 38.52,48.98 38.28,48.1 38.07,47.22 A 16.155,16.155 0 0 1 35,47.88 16.647,16.647 0 0 1 33,48 Z" />
  <path
     inkscape:connector-curvature="0"
     id="path60"
     style="fill:#f2c8b6"
     d="m 38.07,47.22 c 0.21,0.88 0.45,1.76 0.69,2.52 0.15,0.51 0.3,0.97 0.43,1.35 0.06,-0.11 0.12,-0.22 0.17,-0.32 a 5.45,5.45 0 0 0 0.23,-0.51 c 0.09,-0.21 0.16,-0.4 0.22,-0.58 0.02,-0.07 0.04,-0.14 0.06,-0.2 0.06,-0.2 0.1,-0.36 0.13,-0.48 -0.14,-0.78 -0.29,-1.55 -0.43,-2.33 a 15.816,15.816 0 0 1 -1.5,0.55 z" />
  <path
     inkscape:connector-curvature="0"
     id="path62"
     style="fill:#e5b6a8"
     d="m 37.49,44.25 c 0.17,1.08 0.37,2.07 0.58,2.97 a 15.816,15.816 0 0 0 1.5,-0.55 c -0.18,-1.01 -0.36,-2.02 -0.55,-3.03 a 10.254,10.254 0 0 1 -0.96,0.41 4.3,4.3 0 0 1 -0.57,0.2 z" />
  <path
     inkscape:connector-curvature="0"
     id="path64"
     style="fill:#eabdad"
     d="m 32,45 v 3 h 1 a 16.647,16.647 0 0 0 2,-0.12 16.155,16.155 0 0 0 3.07,-0.66 c -0.21,-0.9 -0.41,-1.89 -0.58,-2.97 A 12.924,12.924 0 0 1 35,44.85 13.168,13.168 0 0 1 33,45 Z" />
  <path
     inkscape:connector-curvature="0"
     id="path66"
     style="fill:#eabdad"
     d="M 34.73,32.56 33.87,28 h -2.24 l -0.86,4.56 a 1.179,1.179 0 0 0 1.1,1.44 h 1.76 a 1.179,1.179 0 0 0 1.1,-1.44 z" />
  <path
     inkscape:connector-curvature="0"
     id="path68"
     style="fill:#f4b89a"
     d="m 32,28 v 6 h -0.88 a 1.179,1.179 0 0 1 -1.1,-1.44 L 30.88,28 Z" />
  <path
     inkscape:connector-curvature="0"
     id="path70"
     style="fill:#efb297"
     d="M 32.88,34 H 32 v -6 h 1.12 l 0.86,4.56 A 1.179,1.179 0 0 1 32.88,34 Z" />
  <path
     inkscape:connector-curvature="0"
     id="path72"
     style="fill:#f7c4ad"
     d="m 31.75,34 h -0.63 a 1.179,1.179 0 0 1 -1.1,-1.44 L 30.88,28 h 0.63 l -0.86,4.56 a 1.179,1.179 0 0 0 1.1,1.44 z" />
  <path
     inkscape:connector-curvature="0"
     id="path74"
     style="fill:#efae8e"
     d="m 32.248,34 h 0.63 a 1.179,1.179 0 0 0 1.1,-1.44 L 33.118,28 h -0.63 l 0.86,4.56 a 1.179,1.179 0 0 1 -1.1,1.44 z" />
  <path
     inkscape:connector-curvature="0"
     id="path76"
     style="fill:#efb297"
     d="M 32,33.5 V 34 h -0.25 a 1.085,1.085 0 0 1 -0.94,-0.55 1.059,1.059 0 0 0 0.31,0.05 z" />
  <path
     inkscape:connector-curvature="0"
     id="path78"
     style="fill:#f4b89a"
     d="m 31.75,34 h -0.63 a 1.179,1.179 0 0 1 -1.1,-1.44 1.212,1.212 0 0 0 0.79,0.89 1.085,1.085 0 0 0 0.94,0.55 z" />
  <path
     inkscape:connector-curvature="0"
     id="path80"
     style="fill:#eaa688"
     d="m 32.88,34 h -0.63 a 1.085,1.085 0 0 0 0.94,-0.55 1.212,1.212 0 0 0 0.79,-0.89 1.179,1.179 0 0 1 -1.1,1.44 z" />
  <path
     inkscape:connector-curvature="0"
     id="path82"
     style="fill:#efae8e"
     d="M 33.19,33.45 A 1.085,1.085 0 0 1 32.25,34 H 32 v -0.5 h 0.88 a 1.059,1.059 0 0 0 0.31,-0.05 z" />
  <path
     inkscape:connector-curvature="0"
     id="path84"
     style="fill:#f4cfc1"
     d="M 19.03,18.28 C 19.02,18.4 19.01,18.53 19.01,18.66 19,18.77 19,18.89 19,19 v -0.71 a 0.037,0.037 0 0 1 0.03,-0.01 z" />
  <rect
     id="rect86"
     y="22"
     x="45"
     width="2"
     style="fill:#565556"
     height="1" />
  <path
     inkscape:connector-curvature="0"
     id="path88"
     style="fill:#484749"
     d="m 47,19 v 0.64 C 46.9,19.57 46.82,19.5 46.73,19.43 A 12.588,12.588 0 0 1 45,17.78 v -2 a 13.237,13.237 0 0 0 1.73,1.65 c 0.07,0.05 0.12,0.1 0.19,0.15 0.01,0.08 0.02,0.17 0.03,0.26 a 1.948,1.948 0 0 1 0.02,0.25 c 0.01,0.19 0.02,0.38 0.02,0.57 C 47,18.77 47,18.89 47,19 Z" />
  <path
     inkscape:connector-curvature="0"
     id="path90"
     style="fill:#565556"
     d="m 47,19.64 v 1.87 h -2 v -3.73 a 12.588,12.588 0 0 0 1.73,1.65 c 0.09,0.07 0.17,0.14 0.27,0.21 z" />
  <rect
     id="rect92"
     y="22"
     x="17"
     width="2"
     style="fill:#666666"
     height="1" />
  <path
     inkscape:connector-curvature="0"
     id="path94"
     style="fill:#666666"
     d="m 17.27,20.62 c 0.56,-0.1 1.14,-0.21 1.73,-0.34 v 1.23 h -2 v -0.84 c 0.09,-0.02 0.18,-0.03 0.27,-0.05 z" />
  <path
     inkscape:connector-curvature="0"
     id="path96"
     style="fill:#565556"
     d="m 19,18.29 v 1.99 c -0.59,0.13 -1.17,0.24 -1.73,0.34 -0.09,0.02 -0.18,0.03 -0.27,0.05 V 19 c 0,-0.11 0,-0.23 0.01,-0.34 0.08,-0.01 0.17,-0.02 0.26,-0.04 0.56,-0.1 1.14,-0.22 1.73,-0.33 z" />
  <path
     inkscape:connector-curvature="0"
     id="path98"
     style="fill:#484749"
     d="m 32,1 v 13.29 c -1.42,0.59 -2.93,1.17 -4.53,1.71 a 71.468,71.468 0 0 1 -10.2,2.62 C 16.48,18.77 15.73,18.89 15,19 V 16 C 15,7.72 22.62,1 32,1 Z" />
  <path
     inkscape:connector-curvature="0"
     id="path100"
     style="fill:#565556"
     d="M 32,1 V 1.11 C 23.56,1.98 17,8.32 17,16 v 2.67 C 16.31,18.8 15.65,18.9 15,19 V 16 C 15,7.72 22.62,1 32,1 Z" />
  <path
     inkscape:connector-curvature="0"
     id="path102"
     style="fill:#414043"
     d="m 49,16 v 3 A 19.75,19.75 0 0 1 47,17.64 C 46.9,17.57 46.82,17.5 46.73,17.43 A 9.887,9.887 0 0 1 43.33,13 c 0,0 -0.08,-0.23 -1.13,-4 A 67.745,67.745 0 0 1 32,14.29 V 1 a 18.043,18.043 0 0 1 12.58,4.92 c 0.36,0.36 0.71,0.73 1.04,1.11 0.33,0.38 0.63,0.78 0.92,1.2 a 14.882,14.882 0 0 1 0.78,1.27 c 0.12,0.22 0.24,0.44 0.34,0.66 A 13.34,13.34 0 0 1 48.8,13.72 13.153,13.153 0 0 1 49,16 Z" />
  <path
     inkscape:connector-curvature="0"
     id="path104"
     style="fill:#3d3d3d"
     d="m 49,16 v 3 A 19.75,19.75 0 0 1 47,17.64 V 16 C 47,8.32 40.44,1.98 32,1.11 V 1 a 18.043,18.043 0 0 1 12.58,4.92 13.541,13.541 0 0 1 1.04,1.11 11.917,11.917 0 0 1 0.92,1.2 12.71,12.71 0 0 1 0.78,1.27 c 0.12,0.22 0.24,0.44 0.34,0.66 A 13.34,13.34 0 0 1 48.8,13.72 13.153,13.153 0 0 1 49,16 Z" />
  <path
     inkscape:connector-curvature="0"
     id="path106"
     style="fill:#3f51b5;fill-opacity:1"
     d="m 32,55 v 8 H 1 C 1.07,62.02 1.6,55.65 6.78,52.21 a 12.229,12.229 0 0 1 4.84,-1.87 Q 17.815,49.665 24,49 c 0.03,0.12 0.07,0.28 0.13,0.48 0.02,0.06 0.04,0.13 0.06,0.2 0.06,0.18 0.13,0.37 0.22,0.58 a 5.45,5.45 0 0 0 0.23,0.51 c 0.05,0.1 0.11,0.21 0.17,0.32 a 4.231,4.231 0 0 0 0.24,0.4 7.982,7.982 0 0 0 0.8,1.03 c 0.14,0.14 0.28,0.29 0.44,0.43 a 7.7,7.7 0 0 0 4.51,1.96 0.986,0.986 0 0 0 0.24,0.03 c 0.11,0.02 0.23,0.03 0.35,0.04 C 31.61,55 31.98,55 32,55 Z" />
  <path
     inkscape:connector-curvature="0"
     id="path108"
     style="fill:#3f51b5;fill-opacity:1"
     d="M 32,63 H 63 C 62.93,62.02 62.4,55.65 57.22,52.21 A 12.229,12.229 0 0 0 52.38,50.34 L 40,49 a 7.587,7.587 0 0 1 -6.8,5.91 0.986,0.986 0 0 1 -0.24,0.03 c -0.11,0.02 -0.23,0.03 -0.35,0.04 C 32.4,55 32.02,55 32,55 Z" />
  <path
     inkscape:connector-curvature="0"
     id="path110"
     style="fill:#3f64b5;fill-opacity:1"
     d="m 24.41,50.26 a 0.612,0.612 0 0 0 0.05,0.12 l -8.84,0.96 a 12.229,12.229 0 0 0 -4.84,1.87 C 6.53,56.04 5.41,60.84 5.11,63 H 1 C 1.07,62.02 1.6,55.65 6.78,52.21 a 12.229,12.229 0 0 1 4.84,-1.87 Q 17.815,49.665 24,49 c 0.03,0.12 0.07,0.28 0.13,0.48 0.02,0.06 0.04,0.13 0.06,0.2 0.06,0.18 0.13,0.37 0.22,0.58 z" />
  <path
     inkscape:connector-curvature="0"
     id="path112"
     style="fill:#febd73"
     d="m 24.46,50.38 c -1.03,0.11 -2.06,0.22 -3.09,0.34 L 21.34,50.63 21.26,50.34 A 4.509,4.509 0 0 1 21.1,49.75 L 20.99,49.33 24,49 c 0.03,0.12 0.07,0.28 0.13,0.48 0.02,0.06 0.04,0.13 0.06,0.2 0.06,0.18 0.13,0.37 0.22,0.58 a 0.612,0.612 0 0 0 0.05,0.12 z" />
  <path
     inkscape:connector-curvature="0"
     id="path114"
     style="fill:#3f64b5;fill-opacity:1"
     d="m 32,55 v 3 c -0.03,0 -0.56,0 -0.88,-0.03 -0.13,-0.01 -0.25,-0.03 -0.37,-0.04 a 2.348,2.348 0 0 1 -0.37,-0.05 10.584,10.584 0 0 1 -6.11,-2.71 c -0.13,-0.12 -0.3,-0.28 -0.46,-0.44 l -0.18,-0.19 a 11.261,11.261 0 0 1 -1.1,-1.42 c -0.1,-0.15 -0.24,-0.39 -0.36,-0.61 -0.07,-0.13 -0.15,-0.27 -0.22,-0.4 -0.12,-0.25 -0.23,-0.5 -0.32,-0.73 -0.12,-0.27 -0.21,-0.51 -0.29,-0.75 L 21.26,50.34 A 4.509,4.509 0 0 1 21.1,49.75 L 20.99,49.33 24,49 c 0.03,0.12 0.07,0.28 0.13,0.48 0.02,0.06 0.04,0.13 0.06,0.2 0.06,0.18 0.13,0.37 0.22,0.58 a 5.45,5.45 0 0 0 0.23,0.51 c 0.05,0.1 0.11,0.21 0.17,0.32 a 4.231,4.231 0 0 0 0.24,0.4 7.982,7.982 0 0 0 0.8,1.03 c 0.14,0.14 0.28,0.29 0.44,0.43 a 7.7,7.7 0 0 0 4.51,1.96 0.986,0.986 0 0 0 0.24,0.03 c 0.11,0.02 0.23,0.03 0.35,0.04 C 31.61,55 31.98,55 32,55 Z" />
  <path
     inkscape:connector-curvature="0"
     id="path116"
     style="fill:#3f60b5;fill-opacity:1"
     d="m 24.46,50.38 c -1.03,0.11 -2.06,0.22 -3.09,0.34 L 21.34,50.63 21.26,50.34 A 4.509,4.509 0 0 1 21.1,49.75 L 20.99,49.33 24,49 c 0.03,0.12 0.07,0.28 0.13,0.48 0.02,0.06 0.04,0.13 0.06,0.2 0.06,0.18 0.13,0.37 0.22,0.58 a 0.612,0.612 0 0 0 0.05,0.12 z" />
  <path
     inkscape:connector-curvature="0"
     id="path118"
     style="fill:#3f64b5;fill-opacity:1"
     d="m 43.01,49.33 -0.1,0.4 a 5.926,5.926 0 0 1 -0.17,0.61 l -0.08,0.29 c -0.08,0.24 -0.17,0.48 -0.29,0.75 a 7.581,7.581 0 0 1 -0.33,0.73 c -0.06,0.13 -0.14,0.27 -0.22,0.42 -0.11,0.2 -0.25,0.44 -0.4,0.66 a 10.58,10.58 0 0 1 -1.05,1.35 l -0.18,0.19 c -0.16,0.16 -0.33,0.32 -0.5,0.48 a 10.551,10.551 0 0 1 -6.07,2.67 2.348,2.348 0 0 1 -0.37,0.05 C 33.13,57.94 33,57.96 32.88,57.97 32.56,58 32.03,58 32,58 v -3 c 0.02,0 0.39,0 0.61,-0.02 0.12,-0.01 0.24,-0.02 0.35,-0.04 A 0.986,0.986 0 0 0 33.2,54.91 7.59,7.59 0 0 0 40,49 Z" />
  <path
     inkscape:connector-curvature="0"
     id="path120"
     style="fill:#3f64b5;fill-opacity:1"
     d="m 39.59,50.26 a 0.612,0.612 0 0 1 -0.05,0.12 l 8.84,0.96 a 12.229,12.229 0 0 1 4.84,1.87 c 4.25,2.83 5.37,7.63 5.67,9.79 H 63 C 62.93,62.02 62.4,55.65 57.22,52.21 A 12.229,12.229 0 0 0 52.38,50.34 Q 46.185,49.665 40,49 c -0.03,0.12 -0.07,0.28 -0.13,0.48 -0.02,0.06 -0.04,0.13 -0.06,0.2 -0.06,0.18 -0.13,0.37 -0.22,0.58 z" />
  <path
     inkscape:connector-curvature="0"
     id="path122"
     style="fill:#ed753a"
     d="m 39.54,50.38 c 1.03,0.11 2.06,0.22 3.09,0.34 l 0.03,-0.09 0.08,-0.29 A 4.509,4.509 0 0 0 42.9,49.75 L 43.01,49.33 40,49 c -0.03,0.12 -0.07,0.28 -0.13,0.48 -0.02,0.06 -0.04,0.13 -0.06,0.2 -0.06,0.18 -0.13,0.37 -0.22,0.58 a 0.612,0.612 0 0 1 -0.05,0.12 z" />
  <path
     inkscape:connector-curvature="0"
     id="path124"
     style="fill:#5d99af"
     d="m 12,16.5 h -0.038 a 0.5,0.5 0 0 1 -0.461,-0.536 23.96,23.96 0 0 1 2.043,-8.17 0.5,0.5 0 0 1 0.91,0.414 23.272,23.272 0 0 0 -1.956,7.83 A 0.5,0.5 0 0 1 12,16.5 Z" />
  <path
     inkscape:connector-curvature="0"
     id="path126"
     style="fill:#5d99af"
     d="M 9,15.5 H 8.963 A 0.5,0.5 0 0 1 8.502,14.964 23.96,23.96 0 0 1 10.545,6.794 0.5,0.5 0 0 1 11.455,7.208 23.272,23.272 0 0 0 9.5,15.037 0.5,0.5 0 0 1 9,15.5 Z" />
  <path
     inkscape:connector-curvature="0"
     id="path128"
     style="fill:#5d99af"
     d="m 4,51.04 a 0.5,0.5 0 0 1 -0.319,-0.885 12.379,12.379 0 0 1 1.166,-0.864 15.724,15.724 0 0 1 6.211,-2.4 l 0.165,-0.022 2.721,-0.3 a 0.493,0.493 0 0 1 0.552,0.442 0.5,0.5 0 0 1 -0.441,0.552 l -2.849,0.318 A 14.742,14.742 0 0 0 5.4,50.126 11.614,11.614 0 0 0 4.322,50.926 0.5,0.5 0 0 1 4,51.04 Z" />
  <path
     inkscape:connector-curvature="0"
     id="path130"
     style="fill:#5d99af"
     d="m 45.02,43.5 a 0.5,0.5 0 0 1 -0.353,-0.854 16.407,16.407 0 0 0 4.367,-7.763 0.50037111,0.50037111 0 0 1 0.973,0.234 17.408,17.408 0 0 1 -4.633,8.237 0.5,0.5 0 0 1 -0.354,0.146 z" />
  <path
     inkscape:connector-curvature="0"
     id="path132"
     style="fill:#fca19f"
     d="m 28,40 a 4.167,4.167 0 0 1 8,0 8.5,8.5 0 0 1 -8,0 z" />
  <path
     inkscape:connector-curvature="0"
     id="path134"
     style="fill:#eaeff5"
     d="m 47,48 a 4.152,4.152 0 0 0 -1.12,0.16 2.994,2.994 0 0 0 -5.17,-1.09 L 39,46 34.484,41.868 32.176,42.33 38,51 A 1.087,1.087 0 0 0 38.01,51.18 2.993,2.993 0 0 0 39,57 2.93,2.93 0 0 0 40.11,56.78 2.987,2.987 0 0 0 45.82,56.99 2.718,2.718 0 0 0 46,56 0.57,0.57 0 0 0 45.99,55.87 4.171,4.171 0 0 0 47,56 4,4 0 0 0 47,48 Z" />
  <circle
     id="circle136"
     style="fill:#5d99af"
     r="2"
     cy="41"
     cx="55" />
  <path
     inkscape:connector-curvature="0"
     id="path138"
     style="fill:#484749"
     d="m 27,27.01 a 1.011,1.011 0 0 1 -0.71,-0.29 0.99,0.99 0 0 1 -0.21,-1.09 1.141,1.141 0 0 1 0.21,-0.33 1,1 0 0 1 1.09,-0.21 1.155,1.155 0 0 1 0.33,0.21 1.141,1.141 0 0 1 0.21,0.33 0.838,0.838 0 0 1 0.08,0.38 0.99,0.99 0 0 1 -1,1 z" />
  <path
     inkscape:connector-curvature="0"
     id="path140"
     style="fill:#414043"
     d="m 37,27.01 a 0.99,0.99 0 0 1 -0.92,-1.38 1.021,1.021 0 0 1 0.21,-0.33 1.047,1.047 0 0 1 1.42,0 1.021,1.021 0 0 1 0.21,0.33 0.99,0.99 0 0 1 -0.21,1.09 1.177,1.177 0 0 1 -0.33,0.21 1.015,1.015 0 0 1 -0.38,0.08 z" />
  <path
     inkscape:connector-curvature="0"
     id="path142"
     style="fill:#565556"
     d="m 23,26.51 a 0.5,0.5 0 0 1 -0.108,-0.989 9.445,9.445 0 0 0 5.7,-3.8 0.50005925,0.50005925 0 1 1 0.819,0.574 10.456,10.456 0 0 1 -6.3,4.2 A 0.512,0.512 0 0 1 23,26.51 Z" />
  <path
     inkscape:connector-curvature="0"
     id="path144"
     style="fill:#484749"
     d="m 41,26.51 a 0.512,0.512 0 0 1 -0.109,-0.012 10.448,10.448 0 0 1 -6.3,-4.2 0.50005925,0.50005925 0 1 1 0.819,-0.574 9.445,9.445 0 0 0 5.7,3.8 A 0.5,0.5 0 0 1 41,26.51 Z" />
  <path
     inkscape:connector-curvature="0"
     id="path146"
     style="fill:#a4c9d6"
     d="M 46.194,47.582 A 3.5,3.5 0 0 0 43,45.5 3.449,3.449 0 0 0 40.647,46.441 l -1.381,-0.865 a 0.50026618,0.50026618 0 0 0 -0.531,0.848 l 1.71,1.07 c 0.012,0.007 0.027,0 0.039,0.011 a 0.492,0.492 0 0 0 0.191,0.055 c 0.012,0 0.023,0.01 0.035,0.01 0.012,0 0.012,-0.005 0.018,-0.005 a 0.5,0.5 0 0 0 0.217,-0.055 c 0.008,0 0.012,-0.011 0.019,-0.015 A 0.493,0.493 0 0 0 41.095,47.389 2.467,2.467 0 0 1 43,46.5 2.5,2.5 0 0 1 45.5,49 0.5,0.5 0 0 0 46.5,49 3.548,3.548 0 0 0 46.455,48.548 3.469,3.469 0 0 1 50.5,52 3.459,3.459 0 0 1 46.438,55.429 3.47,3.47 0 0 0 45.263,53.329 0.5,0.5 0 1 0 44.618,54.093 2.492,2.492 0 0 1 45.5,56 2.268,2.268 0 0 1 45.347,56.829 2.487,2.487 0 0 1 40.592,56.646 2.361,2.361 0 0 1 40.5,56 2.515,2.515 0 0 1 40.776,54.858 0.50045404,0.50045404 0 0 0 39.885,54.402 3.535,3.535 0 0 0 39.5,56 3.193,3.193 0 0 0 39.531,56.435 2.449,2.449 0 0 1 39,56.5 2.5,2.5 0 0 1 36.5,54 a 2.477,2.477 0 0 1 1.672,-2.347 0.493,0.493 0 0 0 0.324,-0.536 0.459,0.459 0 0 0 0,-0.117 c 0,-0.016 -0.007,-0.029 -0.008,-0.044 a 0.483,0.483 0 0 0 -0.02,-0.1 0.447,0.447 0 0 0 -0.039,-0.093 0.356,0.356 0 0 0 -0.017,-0.041 l -4,-6 a 0.5,0.5 0 1 0 -0.832,0.554 l 3.764,5.646 A 3.495,3.495 0 0 0 39,57.5 3.393,3.393 0 0 0 39.8,57.393 3.484,3.484 0 0 0 46.287,57.171 3.167,3.167 0 0 0 46.459,56.465 4.482,4.482 0 0 0 51.5,52 4.48,4.48 0 0 0 46.194,47.582 Z" />
</svg>
