<?xml version="1.0" ?><svg viewBox="0 0 64 64" xmlns="http://www.w3.org/2000/svg"><title/><g id="Icons"><polygon points="25 33 23 63 15 63 13.23 36.43 13 33 25 33" style="fill:#ffd5c0"/><polygon points="25 33 23 63 19.15 63 19.06 38.43 19.05 36.43 13.23 36.43 13 33 25 33" style="fill:#f2c8b6"/><path d="M52.99,7.32l-.03.2A9.329,9.329,0,0,1,51.5,11.1a11.27,11.27,0,0,1-8.71,4.87l-.12.01c-.29.02-.64.02-.67.02V13c3.99,0,7.43-2.56,8.04-6Z" style="fill:#fc8e52"/><path d="M62.98,8.45V63H42V16c.03,0,.38,0,.67-.02l.12-.01A11.27,11.27,0,0,0,51.5,11.1a8.745,8.745,0,0,0,.83-1.53,7.592,7.592,0,0,0,.45-1.29,6.461,6.461,0,0,0,.18-.76l.03-.2,9.39,1.02C62.57,8.37,62.77,8.41,62.98,8.45Z" style="fill:#fab06b"/><path d="M31.67,9.57l-7.05.77a12.229,12.229,0,0,0-4.84,1.87c-4.3,2.86-5.4,17.38-5.68,22.79H11c.07-.98.6-21.35,5.78-24.79a12.229,12.229,0,0,1,4.84-1.87l9.39-1.02.03.2a9.033,9.033,0,0,0,.38,1.42c.03.1.07.19.11.29A3.454,3.454,0,0,0,31.67,9.57Z" style="fill:#fedc96"/><path d="M42,16V63H22.16l-.1-26-.01-2H14.1c.28-5.41,1.38-19.93,5.68-22.79a12.229,12.229,0,0,1,4.84-1.87l7.05-.77a9.867,9.867,0,0,0,.89,1.62,11.294,11.294,0,0,0,8.65,4.78l.08.01C41.59,16,41.97,16,42,16Z" style="fill:#febd73"/><path d="M42,4.49V13c-.022,0-.365,0-.571-.02h-.023c-.091-.02-.206-.03-.3-.05a1.013,1.013,0,0,1-.229-.04A6.382,6.382,0,0,1,36.7,10.51c-.149-.17-.275-.36-.412-.53a9.552,9.552,0,0,1-.743-1.25c-.08-.16-.148-.33-.217-.48.114-.47.263-1.03.4-1.65.217-.92.446-1.99.64-3.06a11.7,11.7,0,0,0,2.846.8,11.589,11.589,0,0,0,1.863.15Z" style="fill:#ffd5c0"/><path d="M42,1V4.49h-.93a11.663,11.663,0,0,1-1.86-.15,11.586,11.586,0,0,1-2.84-.8h-.01c.14-.79.28-1.63.4-2.54Z" style="fill:#ffd5c0"/><path d="M36.366,3.54c-.194,1.07-.423,2.14-.64,3.06-.137.62-.286,1.18-.4,1.65-.057-.14-.114-.27-.16-.39-.08-.22-.16-.43-.217-.62-.08-.26-.149-.49-.206-.71-.011-.08-.034-.17-.045-.24-.058-.25-.1-.44-.126-.59.046-.36.1-.73.16-1.09l.24-1.74c.023.01.034.02.057.03A10.037,10.037,0,0,0,36.366,3.54Z" style="fill:#ffe0d2"/><path d="M36.76,1c-.12.91-.26,1.75-.4,2.54a9.558,9.558,0,0,1-1.33-.64l-.06-.03c.09-.63.17-1.25.25-1.87Z" style="fill:#f4cfc3"/><path d="M42,1V4.49h-.93a11.663,11.663,0,0,1-1.86-.15,11.586,11.586,0,0,1-2.84-.8h-.01c.14-.79.28-1.63.4-2.54Z" style="fill:#f2c8b6"/><path d="M48.675,8.25c-.069.15-.137.32-.217.48a9.664,9.664,0,0,1-.743,1.25c-.137.17-.263.36-.412.53a6.381,6.381,0,0,1-4.183,2.38,1.014,1.014,0,0,1-.228.04c-.092.02-.206.03-.3.05h-.023c-.206.02-.549.02-.572.02V4.49h.926a11.589,11.589,0,0,0,1.863-.15,11.7,11.7,0,0,0,2.846-.8c.194,1.07.423,2.14.64,3.06C48.412,7.22,48.56,7.78,48.675,8.25Z" style="fill:#f9cebb"/><path d="M47.64,3.54h-.01a11.71,11.71,0,0,1-2.84.8,11.663,11.663,0,0,1-1.86.15H42V1h5.24C47.36,1.91,47.5,2.75,47.64,3.54Z" style="fill:#ffd5c0"/><path d="M49.429,5.7c-.023.15-.069.34-.126.59-.011.07-.034.16-.045.24-.058.22-.126.45-.206.71-.057.19-.137.4-.217.62-.046.12-.1.25-.16.39-.115-.47-.263-1.03-.4-1.65-.217-.92-.446-1.99-.64-3.06A9.9,9.9,0,0,0,48.96,2.9c.023,0,.046-.02.069-.03.08.6.171,1.2.251,1.8C49.338,5.01,49.383,5.36,49.429,5.7Z" style="fill:#f2c8b6"/><path d="M42,4.49V13c-.022,0-.365,0-.571-.02h-.023c-.091-.02-.206-.03-.3-.05a1.013,1.013,0,0,1-.229-.04A6.382,6.382,0,0,1,36.7,10.51c-.149-.17-.275-.36-.412-.53a9.552,9.552,0,0,1-.743-1.25c-.08-.16-.148-.33-.217-.48.114-.47.263-1.03.4-1.65.217-.92.446-1.99.64-3.06a11.7,11.7,0,0,0,2.846.8,11.589,11.589,0,0,0,1.863.15Z" style="fill:#ffd5c0"/><path d="M36.366,3.54c-.194,1.07-.423,2.14-.64,3.06-.137.62-.286,1.18-.4,1.65-.057-.14-.114-.27-.16-.39-.08-.22-.16-.43-.217-.62-.08-.26-.149-.49-.206-.71-.011-.08-.034-.17-.045-.24-.058-.25-.1-.44-.126-.59.046-.36.1-.73.16-1.09l.24-1.74c.023.01.034.02.057.03A10.037,10.037,0,0,0,36.366,3.54Z" style="fill:#ffe0d2"/><path d="M48.675,8.25c-.069.15-.137.32-.217.48a9.664,9.664,0,0,1-.743,1.25c-.137.17-.263.36-.412.53a6.381,6.381,0,0,1-4.183,2.38,1.014,1.014,0,0,1-.228.04c-.092.02-.206.03-.3.05h-.023c-.206.02-.549.02-.572.02V4.49h.926a11.589,11.589,0,0,0,1.863-.15,11.7,11.7,0,0,0,2.846-.8c.194,1.07.423,2.14.64,3.06C48.412,7.22,48.56,7.78,48.675,8.25Z" style="fill:#f9cebb"/><path d="M49.429,5.7c-.023.15-.069.34-.126.59-.011.07-.034.16-.045.24-.058.22-.126.45-.206.71-.057.19-.137.4-.217.62-.046.12-.1.25-.16.39-.115-.47-.263-1.03-.4-1.65-.217-.92-.446-1.99-.64-3.06A9.9,9.9,0,0,0,48.96,2.9c.023,0,.046-.02.069-.03.08.6.171,1.2.251,1.8C49.338,5.01,49.383,5.36,49.429,5.7Z" style="fill:#f2c8b6"/><path d="M49.03,2.87a11.787,11.787,0,0,1-1.39.67c-.14-.79-.28-1.63-.4-2.54h1.54C48.86,1.62,48.94,2.24,49.03,2.87Z" style="fill:#e5b6a8"/><path d="M47.64,3.54h-.01a11.71,11.71,0,0,1-2.84.8,11.663,11.663,0,0,1-1.86.15H42V1h5.24C47.36,1.91,47.5,2.75,47.64,3.54Z" style="fill:#eabdad"/><path d="M48.458,8.73a9.664,9.664,0,0,1-.743,1.25c-.137.17-.263.36-.412.53a6.381,6.381,0,0,1-4.183,2.38,1.014,1.014,0,0,1-.228.04c-.092.02-.206.03-.3.05A8.3,8.3,0,0,0,49,9.444L48.675,8.25C48.606,8.4,48.538,8.57,48.458,8.73Z" style="fill:#f9cebb"/><path d="M49.28,4.67c.058.34.1.69.149,1.03-.023.15-.069.34-.126.59-.011.07-.034.16-.045.24-.058.22-.126.45-.206.71-.057.19-.137.4-.217.62-.046.12-.1.25-.16.39L49,9.444A6.413,6.413,0,0,0,50,7,15.694,15.694,0,0,1,49.28,4.67Z" style="fill:#f9cebb"/><path d="M35.166,7.86c-.08-.22-.16-.43-.217-.62-.08-.26-.149-.49-.206-.71-.011-.08-.034-.17-.045-.24-.058-.25-.1-.44-.126-.59.046-.36.1-.73.16-1.09A15.716,15.716,0,0,1,34,7a6.453,6.453,0,0,0,1.047,2.508l.279-1.258C35.269,8.11,35.212,7.98,35.166,7.86Z" style="fill:#ffe0d2"/><path d="M40.88,12.89A6.382,6.382,0,0,1,36.7,10.51c-.149-.17-.275-.36-.412-.53a9.552,9.552,0,0,1-.743-1.25c-.08-.16-.148-.33-.217-.48l-.279,1.258a8.317,8.317,0,0,0,6.359,3.472c-.091-.02-.206-.03-.3-.05A1.013,1.013,0,0,1,40.88,12.89Z" style="fill:#ffd5c0"/><path d="M34.82,9.23l-.81.09-2.34.25c-.05-.11-.1-.23-.14-.34a2.488,2.488,0,0,1-.11-.29,9.033,9.033,0,0,1-.38-1.42l-.03-.2L33.96,7A6.128,6.128,0,0,0,34.82,9.23Z" style="fill:#f9ba85"/><path d="M62.98,8.45v3.04a12.319,12.319,0,0,0-3.6-1.15l-7.05-.77c.08-.175.148-.354.213-.532.012-.033.027-.064.037-.1a5.527,5.527,0,0,0,.2-.66,6.461,6.461,0,0,0,.18-.76l.03-.2,9.39,1.02C62.57,8.37,62.77,8.41,62.98,8.45Z" style="fill:#fc8e52"/><path d="M49.18,9.23l.81.09,2.34.25c.05-.11.1-.23.14-.34a2.488,2.488,0,0,0,.11-.29,9.033,9.033,0,0,0,.38-1.42l.03-.2L50.04,7A6.128,6.128,0,0,1,49.18,9.23Z" style="fill:#ed753a"/><path d="M42,13v3c-.03,0-.41,0-.71-.02l-.08-.01a11.294,11.294,0,0,1-8.65-4.78c-.1-.14-.19-.29-.28-.44s-.17-.29-.25-.44a5.6,5.6,0,0,1-.36-.74l2.34-.25.81-.09a7.786,7.786,0,0,0,3.87,3.15A9.06,9.06,0,0,0,42,13Z" style="fill:#fab06b"/><path d="M17,44a1,1,0,0,1-.833-.445L12.592,38.19l-4.811,1.6a2.007,2.007,0,0,1-1.742-.233L.446,35.832a1,1,0,1,1,1.109-1.664L7.148,37.9l4.811-1.6a2,2,0,0,1,2.3.787l3.576,5.365A1,1,0,0,1,17,44Z" style="fill:#e77973"/><path d="M1,56a1,1,0,0,1-.448-1.9l7.356-3.677a1.994,1.994,0,0,1,2.308.375l2.628,2.628,3.323-4.986a1,1,0,0,1,1.664,1.11L14.509,54.54a2,2,0,0,1-3.078.3L8.8,52.217,1.448,55.9A1.01,1.01,0,0,1,1,56Z" style="fill:#e77973"/><path d="M7.074,47.846a2.009,2.009,0,0,1-1.111-.336L.446,43.832a1,1,0,1,1,1.109-1.664l5.517,3.678,3.15-1.575a2.012,2.012,0,0,1,1.379-.152l3.642.911a1,1,0,1,1-.485,1.94l-3.641-.91-3.15,1.575A2.006,2.006,0,0,1,7.074,47.846Z" style="fill:#e77973"/><path d="M25,40a1,1,0,0,1-.707-1.707l2.586-2.586a3.073,3.073,0,0,1,4.243,0l1.6,1.6,2.38-4.759a1,1,0,1,1,1.789.894l-2.379,4.759a2,2,0,0,1-3.2.519l-1.6-1.6a1.02,1.02,0,0,0-1.413,0l-2.587,2.586A1,1,0,0,1,25,40Z" style="fill:#e77973"/><polygon points="62.98 35 62.98 54.23 55 53 55.16 52.06 55.64 49.16 58 35 62.98 35" style="fill:#f2c8b6"/><path d="M62.98,52.92V63H49l-7-2.68-6.15-2.35-1.05.27a10.117,10.117,0,0,1-5.94-.31l-6.71-2.48a1.611,1.611,0,0,1-.95-2.11l.08-.19a1.555,1.555,0,0,1,.68-.79,1.524,1.524,0,0,1,1.15-.17h.01a.292.292,0,0,1,.09.02l5.52,1.64-8.6-2.61a1.6,1.6,0,0,1-.94-.78,1.618,1.618,0,0,1-.11-1.26l.02-.05a1.575,1.575,0,0,1,1.49-1.1,1.841,1.841,0,0,1,.41.05.638.638,0,0,1-.14-.08l-.02-.01a1.482,1.482,0,0,1-.69-.77,1.567,1.567,0,0,1-.05-1.13l.02-.07a1.631,1.631,0,0,1,1.51-1.1,1.523,1.523,0,0,1,.42.06c.05.01.1.03.15.04a1.539,1.539,0,0,1-.95-.77,1.592,1.592,0,0,1,1.85-2.31l.41.13,5.07,1.58.21.07,1.09.33.11-.42v-.01l.35-1.42a1.584,1.584,0,0,1,2.09-1.12l4.65,1.77a4.073,4.073,0,0,1,2.43,2.55L40.93,49l.62.2.45.09,13.16,2.77,3.83.8Z" style="fill:#f9cebb"/><path d="M20.98,45.09c.01,0,.01.01.02.01a.037.037,0,0,1-.03-.01Z" style="fill:#f2c8b6"/><path d="M22.2,42.04c-.05-.01-.09-.03-.14-.04.01,0,.01-.01.02-.01A.308.308,0,0,0,22.2,42.04Z" style="fill:#f2c8b6"/><path d="M62.98,60v3H49l-7-2.68-6.15-2.35-1.05.27a10.117,10.117,0,0,1-5.94-.31l-6.71-2.48a1.611,1.611,0,0,1-.95-2.11l.08-.19a1.555,1.555,0,0,1,.68-.79.663.663,0,0,0,.19.09l6.71,2.48a10.117,10.117,0,0,0,5.94.31l1.05-.27L42,57.32,49,60Z" style="fill:#f2c8b6"/><polyline points="28.58 43.67 28.79 43.74 35 46" style="fill:none"/><path d="M35.47,46.17a.5.5,0,0,1-.64.3l-11-4a.5.5,0,0,1-.32-.38l5.07,1.58.21.07,1.09.33.11-.42,5.18,1.88A.5.5,0,0,1,35.47,46.17Z" style="fill:#eabdad"/><line style="fill:none" x1="33" x2="21.63" y1="49" y2="44.94"/><path d="M33.47,49.17a.5.5,0,0,1-.47.33.508.508,0,0,1-.17-.03L20.81,45.18a1.483,1.483,0,0,1,.82-.24,1.523,1.523,0,0,1,.42.06c.05.01.1.03.15.04a1.539,1.539,0,0,1-.95-.77l11.92,4.26A.5.5,0,0,1,33.47,49.17Z" style="fill:#eabdad"/><polyline points="32 52 20.86 48.02 20.84 48.01" style="fill:none"/><path d="M32.47,52.17a.5.5,0,0,1-.47.33.508.508,0,0,1-.17-.03L19.91,48.21a1.542,1.542,0,0,1,1.14-.09c.03.01.07.02.1.03a1.076,1.076,0,0,1-.29-.13l-.02-.01a1.482,1.482,0,0,1-.69-.77l12.02,4.29A.5.5,0,0,1,32.47,52.17Z" style="fill:#eabdad"/><polyline points="29 54 23.12 52.19 23.11 52.19" style="fill:none"/><path d="M29.48,54.15a.514.514,0,0,1-.48.35.772.772,0,0,1-.15-.02l-6.89-2.12a1.55,1.55,0,0,1,1.16-.17.292.292,0,0,1,.09.02l5.52,1.64-8.6-2.61a1.6,1.6,0,0,1-.94-.78l9.96,3.06A.506.506,0,0,1,29.48,54.15Z" style="fill:#eabdad"/><path d="M33.3,42.124l-.579,1.362-1.792-.371a1.448,1.448,0,0,1,.729-1.545Z" style="fill:#ffe0d2"/><path d="M24.074,42.915,23.5,44.277l-1.793-.37a1.448,1.448,0,0,1,.73-1.546Z" style="fill:#ffe0d2"/><path d="M23.036,46.1l-.579,1.363L20.665,47.1a1.448,1.448,0,0,1,.729-1.545Z" style="fill:#ffe0d2"/><path d="M22.145,49.245l-.578,1.362-1.792-.371a1.448,1.448,0,0,1,.729-1.545Z" style="fill:#ffe0d2"/><path d="M24.123,53.349l-.578,1.363-1.792-.371a1.449,1.449,0,0,1,.729-1.546Z" style="fill:#ffe0d2"/><polygon points="62.98 49.92 62.98 52.92 58.99 52.86 55.16 52.06 55.64 49.16 58.99 49.86 62.98 49.92" style="fill:#eabdad"/></g></svg>