<?xml version="1.0" ?>
<svg viewBox="0 0 480 480" 
    xmlns="http://www.w3.org/2000/svg">
    <g data-name="01-global" id="_01-global">
        <g id="flat">
            <path d="M240,456A216,216,0,0,1,87.265,87.265a216,216,0,1,1,305.47,305.47A214.585,214.585,0,0,1,240,456Zm0-416C129.72,40,40,129.72,40,240s89.72,200,200,200,200-89.72,200-200S350.28,40,240,40Z" style="fill:#fce5ad"/>
            <rect height="16" style="fill:#f4995b" width="32" x="448" y="72"/>
            <rect height="22.627" style="fill:#f4995b" transform="translate(44.02 346.274) rotate(-45)" width="16" x="432" y="108.686"/>
            <rect height="32" style="fill:#f4995b" width="16" x="392" y="128"/>
            <rect height="16" style="fill:#f4995b" transform="translate(20.589 289.706) rotate(-45)" width="22.627" x="348.686" y="112"/>
            <rect height="16" style="fill:#f4995b" width="32" x="320" y="72"/>
            <rect height="22.627" style="fill:#f4995b" transform="translate(77.157 266.274) rotate(-45)" width="16" x="352" y="28.686"/>
            <rect height="32" style="fill:#f4995b" width="16" x="392"/>
            <rect height="16" style="fill:#f4995b" transform="translate(100.589 322.843) rotate(-45)" width="22.627" x="428.686" y="32"/>
            <circle cx="400" cy="80" r="56" style="fill:#f9cc5c"/>
            <path d="M424,112a55.96,55.96,0,0,1-49.719-81.719,55.984,55.984,0,1,0,75.438,75.438A55.63,55.63,0,0,1,424,112Z" style="fill:#f7b964"/>
            <circle cx="392" cy="104" r="8" style="fill:#f4995b"/>
            <circle cx="424" cy="88" r="8" style="fill:#f4995b"/>
            <circle cx="392" cy="72" r="8" style="fill:#f4995b"/>
            <rect height="16" style="fill:#f4995b" width="32" x="448" y="392"/>
            <rect height="22.627" style="fill:#f4995b" transform="translate(-182.254 440) rotate(-45)" width="16" x="432" y="428.686"/>
            <rect height="32" style="fill:#f4995b" width="16" x="392" y="448"/>
            <rect height="16" style="fill:#f4995b" transform="translate(-205.685 383.431) rotate(-45)" width="22.627" x="348.686" y="432"/>
            <rect height="16" style="fill:#f4995b" width="32" x="320" y="392"/>
            <rect height="22.627" style="fill:#f4995b" transform="translate(-149.117 360) rotate(-45)" width="16" x="352" y="348.686"/>
            <rect height="32" style="fill:#f4995b" width="16" x="392" y="320"/>
            <rect height="16" style="fill:#f4995b" transform="translate(-125.685 416.569) rotate(-45)" width="22.627" x="428.686" y="352"/>
            <circle cx="400" cy="400" r="56" style="fill:#f9cc5c"/>
            <path d="M424,432a55.96,55.96,0,0,1-49.719-81.719,55.984,55.984,0,1,0,75.438,75.438A55.63,55.63,0,0,1,424,432Z" style="fill:#f7b964"/>
            <circle cx="392" cy="376" r="8" style="fill:#f4995b"/>
            <circle cx="392" cy="408" r="8" style="fill:#f4995b"/>
            <circle cx="424" cy="408" r="8" style="fill:#f4995b"/>
            <rect height="16" style="fill:#f4995b" width="32" x="128" y="88"/>
            <rect height="22.627" style="fill:#f4995b" transform="translate(-61.019 124.686) rotate(-45)" width="16" x="112" y="124.686"/>
            <rect height="32" style="fill:#f4995b" width="16" x="72" y="144"/>
            <rect height="16" style="fill:#f4995b" transform="translate(-84.451 68.118) rotate(-45)" width="22.627" x="28.686" y="128"/>
            <rect height="16" style="fill:#f4995b" width="32" y="88"/>
            <rect height="22.627" style="fill:#f4995b" transform="translate(-27.882 44.686) rotate(-45)" width="16" x="32" y="44.686"/>
            <rect height="32" style="fill:#f4995b" width="16" x="72" y="16"/>
            <rect height="16" style="fill:#f4995b" transform="translate(-4.451 101.255) rotate(-45)" width="22.627" x="108.686" y="48"/>
            <circle cx="80" cy="96" r="56" style="fill:#f9cc5c"/>
            <path d="M104,128A55.96,55.96,0,0,1,54.281,46.281a55.984,55.984,0,1,0,75.438,75.438A55.63,55.63,0,0,1,104,128Z" style="fill:#f7b964"/>
            <circle cx="72" cy="104" r="8" style="fill:#f4995b"/>
            <circle cx="104" cy="88" r="8" style="fill:#f4995b"/>
            <circle cx="72" cy="72" r="8" style="fill:#f4995b"/>
            <circle cx="240" cy="240" r="136" style="fill:#4890df"/>
            <path d="M280,336c-74.991,0-136-61.009-136-136a135.2,135.2,0,0,1,21.97-74.03A136,136,0,0,0,104,240c0,74.991,61.009,136,136,136a136,136,0,0,0,114.03-61.97A135.2,135.2,0,0,1,280,336Z" style="fill:#547fd2"/>
            <path d="M351.385,162.059a7.962,7.962,0,0,0-3.462,2.018l-11,11a8.013,8.013,0,0,1-2.079,1.5L310.206,188.9a8,8,0,0,0-4.012,9.685l12.541,37.623a8,8,0,0,0,5.06,5.06l41.675,13.892a8.006,8.006,0,0,0,5.06,0l4.8-1.6q.664-6.69.674-13.558A135.233,135.233,0,0,0,351.385,162.059Z" style="fill:#9ec645"/>
            <path d="M144,216V200a8,8,0,0,0-8-8H112.756a135.795,135.795,0,0,0,21.937,133.96l23.963-35.945A8,8,0,0,0,160,285.578V263.942a134.968,134.968,0,0,1-14.417-43.179A7.955,7.955,0,0,1,144,216Z" style="fill:#86b817"/>
            <path d="M160.845,254.311l9.366-18.733A8,8,0,0,0,163.056,224H152a7.98,7.98,0,0,1-6.417-3.237A134.968,134.968,0,0,0,160,263.942v-6.053A7.994,7.994,0,0,1,160.845,254.311Z" style="fill:#9ec645"/>
            <path d="M154.04,134.693l4.941,3.294a136.187,136.187,0,0,1,6.985-12.012A136.619,136.619,0,0,0,154.04,134.693Z" style="fill:#9ec645"/>
            <path d="M193.013,304.459a7.986,7.986,0,0,0-2.532,3.339l-19.692,49.229a135.811,135.811,0,0,0,183.2-42.97,135.719,135.719,0,0,1-160.977-9.6Z" style="fill:#86b817"/>
            <path d="M337.889,288a7.994,7.994,0,0,1-3.578-.845l-29.15-14.574a8.013,8.013,0,0,1-2.079-1.5l-44.739-44.739A8,8,0,0,1,256,220.686V180.879a7.989,7.989,0,0,1,4.281-7.082c13.683-7.163,55.683-30.117,59.446-43.906a135.7,135.7,0,0,0-153.761-3.916,136.187,136.187,0,0,0-6.985,12.012l30.446,20.3A8.006,8.006,0,0,1,192.75,163l14.5,58a8.006,8.006,0,0,0,3.323,4.717l41.865,27.909A8,8,0,0,1,256,260.281v21.473a8,8,0,0,1-6.06,7.761l-53.972,13.493a7.977,7.977,0,0,0-2.955,1.451,135.719,135.719,0,0,0,160.977,9.6A135.72,135.72,0,0,0,367.244,288Z" style="fill:#9ec645"/>
        </g>
    </g>
</svg>