<?xml version="1.0" encoding="UTF-8" standalone="no"?>
<svg
   xmlns:dc="http://purl.org/dc/elements/1.1/"
   xmlns:cc="http://creativecommons.org/ns#"
   xmlns:rdf="http://www.w3.org/1999/02/22-rdf-syntax-ns#"
   xmlns:svg="http://www.w3.org/2000/svg"
   xmlns="http://www.w3.org/2000/svg"
   xmlns:sodipodi="http://sodipodi.sourceforge.net/DTD/sodipodi-0.dtd"
   xmlns:inkscape="http://www.inkscape.org/namespaces/inkscape"
   viewBox="0 0 64 64"
   version="1.1"
   id="svg167"
   sodipodi:docname="svg8.svg"
   inkscape:version="0.92.5 (2060ec1f9f, 2020-04-08)">
  <metadata
     id="metadata173">
    <rdf:RDF>
      <cc:Work
         rdf:about="">
        <dc:format>image/svg+xml</dc:format>
        <dc:type
           rdf:resource="http://purl.org/dc/dcmitype/StillImage" />
      </cc:Work>
    </rdf:RDF>
  </metadata>
  <defs
     id="defs171" />
  <sodipodi:namedview
     pagecolor="#ffffff"
     bordercolor="#666666"
     borderopacity="1"
     objecttolerance="10"
     gridtolerance="10"
     guidetolerance="10"
     inkscape:pageopacity="0"
     inkscape:pageshadow="2"
     inkscape:window-width="1600"
     inkscape:window-height="873"
     id="namedview169"
     showgrid="false"
     inkscape:zoom="3.6875"
     inkscape:cx="32"
     inkscape:cy="32"
     inkscape:window-x="0"
     inkscape:window-y="27"
     inkscape:window-maximized="1"
     inkscape:current-layer="svg167" />
  <title
     id="title2" />
  <path
     inkscape:connector-curvature="0"
     id="path4"
     style="fill:#ffd5c0"
     d="M 32,53.58 V 63 h -2.78 a 8.066,8.066 0 0 1 -3.53,-2.44 c -0.17,-0.2 -0.33,-0.41 -0.48,-0.61 A 12.588,12.588 0 0 1 24.32,58.5 c -0.09,-0.19 -0.18,-0.38 -0.26,-0.57 0.14,-0.53 0.31,-1.18 0.47,-1.9 0.27,-1.07 0.53,-2.31 0.77,-3.55 a 14.6,14.6 0 0 0 3.39,0.93 14.849,14.849 0 0 0 2.21,0.17 z" />
  <path
     inkscape:connector-curvature="0"
     id="path6"
     style="fill:#ffd5c0"
     d="m 32,49.346 v 4.23 h -1.1 a 14.977,14.977 0 0 1 -5.6,-1.1 c 0.232,-1.269 0.453,-2.665 0.64,-4.187 a 11.861,11.861 0 0 0 2.75,0.846 11.465,11.465 0 0 0 2.209,0.211 z" />
  <path
     inkscape:connector-curvature="0"
     id="path8"
     style="fill:#ffe0d2"
     d="m 25.3,52.476 c -0.232,1.241 -0.5,2.482 -0.762,3.553 -0.166,0.719 -0.332,1.368 -0.475,1.9 -0.066,-0.155 -0.133,-0.31 -0.188,-0.452 -0.1,-0.253 -0.188,-0.493 -0.254,-0.719 -0.1,-0.3 -0.177,-0.564 -0.243,-0.817 -0.022,-0.1 -0.044,-0.2 -0.066,-0.282 -0.066,-0.282 -0.111,-0.508 -0.144,-0.677 0.155,-1.1 0.32,-2.186 0.475,-3.285 a 15.075,15.075 0 0 0 1.657,0.779 z" />
  <path
     inkscape:connector-curvature="0"
     id="path10"
     style="fill:#f4cfc3"
     d="m 25.937,48.289 c -0.187,1.522 -0.408,2.918 -0.64,4.187 A 15.075,15.075 0 0 1 23.64,51.7 c 0.2,-1.424 0.4,-2.848 0.607,-4.272 a 10.467,10.467 0 0 0 1.061,0.578 4.239,4.239 0 0 0 0.629,0.283 z" />
  <path
     inkscape:connector-curvature="0"
     id="path12"
     style="fill:#f2c8b6"
     d="m 32,49.346 v 4.23 h -1.1 a 14.977,14.977 0 0 1 -5.6,-1.1 c 0.232,-1.269 0.453,-2.665 0.64,-4.187 a 11.861,11.861 0 0 0 2.75,0.846 11.465,11.465 0 0 0 2.209,0.211 z" />
  <path
     inkscape:connector-curvature="0"
     id="path14"
     style="fill:#f9cebb"
     d="m 39.94,57.92 v 0.01 a 1.417,1.417 0 0 1 -0.08,0.18 c -0.06,0.13 -0.12,0.27 -0.19,0.41 a 1.983,1.983 0 0 1 -0.11,0.2 c -0.04,0.07 -0.08,0.14 -0.12,0.2 -0.05,0.1 -0.11,0.2 -0.17,0.3 a 0.489,0.489 0 0 1 -0.07,0.11 3.622,3.622 0 0 1 -0.27,0.41 v 0.01 l -0.03,0.03 c -0.03,0.05 -0.06,0.09 -0.09,0.14 0,0.01 -0.01,0.02 -0.02,0.03 a 0.763,0.763 0 0 1 -0.08,0.11 0.55,0.55 0 0 1 -0.07,0.09 v 0.01 q -0.15,0.2 -0.33,0.39 v 0.01 a 8.238,8.238 0 0 1 -2.97,2.22 1.877,1.877 0 0 1 -0.3,0.12 2.773,2.773 0 0 1 -0.26,0.1 H 32 v -9.42 h 1.1 a 14.849,14.849 0 0 0 2.21,-0.17 14.6,14.6 0 0 0 3.39,-0.93 c 0.24,1.24 0.5,2.48 0.77,3.55 0.16,0.72 0.33,1.36 0.47,1.89 z" />
  <path
     inkscape:connector-curvature="0"
     id="path16"
     style="fill:#ffd5c0"
     d="m 32,49.346 v 4.23 h 1.1 a 14.977,14.977 0 0 0 5.6,-1.1 c -0.232,-1.269 -0.453,-2.665 -0.641,-4.187 a 11.853,11.853 0 0 1 -2.749,0.846 11.465,11.465 0 0 1 -2.209,0.211 z" />
  <path
     inkscape:connector-curvature="0"
     id="path18"
     style="fill:#f2c8b6"
     d="m 38.7,52.476 c 0.232,1.241 0.5,2.482 0.762,3.553 0.166,0.719 0.331,1.368 0.475,1.9 0.066,-0.155 0.133,-0.31 0.188,-0.452 0.1,-0.253 0.188,-0.493 0.254,-0.719 0.1,-0.3 0.176,-0.564 0.243,-0.817 0.022,-0.1 0.044,-0.2 0.066,-0.282 0.066,-0.282 0.11,-0.508 0.144,-0.677 -0.155,-1.1 -0.321,-2.186 -0.475,-3.285 A 15.162,15.162 0 0 1 38.7,52.476 Z" />
  <path
     inkscape:connector-curvature="0"
     id="path20"
     style="fill:#ffd5c0"
     d="M 32,53.58 V 63 h -2.78 a 8.066,8.066 0 0 1 -3.53,-2.44 c -0.17,-0.2 -0.33,-0.41 -0.48,-0.61 A 12.588,12.588 0 0 1 24.32,58.5 c -0.09,-0.19 -0.18,-0.38 -0.26,-0.57 0.14,-0.53 0.31,-1.18 0.47,-1.9 0.27,-1.07 0.53,-2.31 0.77,-3.55 a 14.6,14.6 0 0 0 3.39,0.93 14.849,14.849 0 0 0 2.21,0.17 z" />
  <path
     inkscape:connector-curvature="0"
     id="path22"
     style="fill:#ffe0d2"
     d="m 25.3,52.476 c -0.232,1.241 -0.5,2.482 -0.762,3.553 -0.166,0.719 -0.332,1.368 -0.475,1.9 -0.066,-0.155 -0.133,-0.31 -0.188,-0.452 -0.1,-0.253 -0.188,-0.493 -0.254,-0.719 -0.1,-0.3 -0.177,-0.564 -0.243,-0.817 -0.022,-0.1 -0.044,-0.2 -0.066,-0.282 -0.066,-0.282 -0.111,-0.508 -0.144,-0.677 0.155,-1.1 0.32,-2.186 0.475,-3.285 a 15.075,15.075 0 0 0 1.657,0.779 z" />
  <path
     inkscape:connector-curvature="0"
     id="path24"
     style="fill:#f9cebb"
     d="m 39.94,57.92 v 0.01 a 1.417,1.417 0 0 1 -0.08,0.18 c -0.06,0.13 -0.12,0.27 -0.19,0.41 a 1.983,1.983 0 0 1 -0.11,0.2 c -0.04,0.07 -0.08,0.14 -0.12,0.2 -0.05,0.1 -0.11,0.2 -0.17,0.3 a 0.489,0.489 0 0 1 -0.07,0.11 3.622,3.622 0 0 1 -0.27,0.41 v 0.01 l -0.03,0.03 c -0.03,0.05 -0.06,0.09 -0.09,0.14 0,0.01 -0.01,0.02 -0.02,0.03 a 0.763,0.763 0 0 1 -0.08,0.11 0.55,0.55 0 0 1 -0.07,0.09 v 0.01 q -0.15,0.2 -0.33,0.39 v 0.01 a 8.238,8.238 0 0 1 -2.97,2.22 1.877,1.877 0 0 1 -0.3,0.12 2.773,2.773 0 0 1 -0.26,0.1 H 32 v -9.42 h 1.1 a 14.849,14.849 0 0 0 2.21,-0.17 14.6,14.6 0 0 0 3.39,-0.93 c 0.24,1.24 0.5,2.48 0.77,3.55 0.16,0.72 0.33,1.36 0.47,1.89 z" />
  <path
     inkscape:connector-curvature="0"
     id="path26"
     style="fill:#f2c8b6"
     d="m 38.7,52.476 c 0.232,1.241 0.5,2.482 0.762,3.553 0.166,0.719 0.331,1.368 0.475,1.9 0.066,-0.155 0.133,-0.31 0.188,-0.452 0.1,-0.253 0.188,-0.493 0.254,-0.719 0.1,-0.3 0.176,-0.564 0.243,-0.817 0.022,-0.1 0.044,-0.2 0.066,-0.282 0.066,-0.282 0.11,-0.508 0.144,-0.677 -0.155,-1.1 -0.321,-2.186 -0.475,-3.285 A 15.162,15.162 0 0 1 38.7,52.476 Z" />
  <path
     inkscape:connector-curvature="0"
     id="path28"
     style="fill:#e5b6a8"
     d="m 38.063,48.289 c 0.188,1.522 0.409,2.918 0.641,4.187 a 15.162,15.162 0 0 0 1.657,-0.775 c -0.2,-1.424 -0.4,-2.848 -0.608,-4.272 a 10.452,10.452 0 0 1 -1.06,0.578 4.249,4.249 0 0 1 -0.63,0.282 z" />
  <path
     inkscape:connector-curvature="0"
     id="path30"
     style="fill:#eabdad"
     d="m 32,49.346 v 4.23 h 1.1 a 14.977,14.977 0 0 0 5.6,-1.1 c -0.232,-1.269 -0.453,-2.665 -0.641,-4.187 a 11.853,11.853 0 0 1 -2.749,0.846 11.465,11.465 0 0 1 -2.209,0.211 z" />
  <path
     inkscape:connector-curvature="0"
     id="path32"
     style="fill:#3f51b5;fill-opacity:0"
     d="M 29.22,63 H 1.18 a 15.087,15.087 0 0 1 2.97,-3.49 11.808,11.808 0 0 1 5.34,-2.63 q 5.175,-0.72 10.35,-1.43 c 1.1,-0.15 2.22,-0.31 3.32,-0.46 0.04,0.17 0.08,0.39 0.15,0.67 0.02,0.09 0.04,0.19 0.06,0.28 0.07,0.26 0.15,0.53 0.25,0.82 a 0.845,0.845 0 0 0 0.05,0.17 4.61,4.61 0 0 0 0.2,0.55 c 0.06,0.14 0.12,0.3 0.19,0.45 0.08,0.19 0.17,0.38 0.26,0.57 a 12.588,12.588 0 0 0 0.89,1.45 c 0.15,0.2 0.31,0.41 0.48,0.61 A 8.066,8.066 0 0 0 29.22,63 Z" />
  <path
     inkscape:connector-curvature="0"
     id="path34"
     style="fill:#fab06b"
     d="M 62.82,63 H 34.75 c 0.09,-0.03 0.19,-0.06 0.29,-0.1 a 1.877,1.877 0 0 0 0.3,-0.12 8.238,8.238 0 0 0 2.97,-2.22 v -0.01 q 0.18,-0.195 0.33,-0.39 v -0.01 a 0.55,0.55 0 0 0 0.07,-0.09 0.763,0.763 0 0 0 0.08,-0.11 c 0.01,-0.01 0.02,-0.02 0.02,-0.03 0.03,-0.05 0.06,-0.09 0.09,-0.14 l 0.03,-0.03 v -0.01 a 2.408,2.408 0 0 0 0.27,-0.41 0.489,0.489 0 0 0 0.07,-0.11 c 0.06,-0.1 0.12,-0.2 0.17,-0.3 0.16,-0.27 0.29,-0.54 0.42,-0.81 a 1.417,1.417 0 0 0 0.08,-0.18 v -0.01 c 0.07,-0.16 0.14,-0.3 0.19,-0.44 a 3.439,3.439 0 0 0 0.14,-0.37 0.142,0.142 0 0 0 0.02,-0.06 0.355,0.355 0 0 0 0.04,-0.09 v -0.03 h 0.01 c 0.04,-0.11 0.07,-0.22 0.1,-0.33 0.08,-0.23 0.14,-0.44 0.19,-0.64 v -0.02 a 9.175,9.175 0 0 0 0.21,-0.95 c 1.1,0.15 2.22,0.31 3.32,0.46 3.44,0.48 6.9,0.95 10.35,1.43 a 11.808,11.808 0 0 1 5.34,2.63 15.087,15.087 0 0 1 2.97,3.49 z" />
  <path
     inkscape:connector-curvature="0"
     id="path36"
     style="fill:#fedc96"
     d="m 23.67,56.93 -1.7,0.24 c -0.57,0.07 -1.14,0.15 -1.71,0.23 v 0.01 c -2.12,0.29 -4.23,0.58 -6.35,0.88 A 11.835,11.835 0 0 0 8.56,60.92 12.8,12.8 0 0 0 6.6,63 H 1.18 a 15.087,15.087 0 0 1 2.97,-3.49 11.808,11.808 0 0 1 5.34,-2.63 q 5.175,-0.72 10.35,-1.43 c 1.1,-0.15 2.22,-0.31 3.32,-0.46 0.04,0.17 0.08,0.39 0.15,0.67 0.02,0.09 0.04,0.19 0.06,0.28 0.07,0.26 0.15,0.53 0.25,0.82 a 0.845,0.845 0 0 0 0.05,0.17 z" />
  <path
     inkscape:connector-curvature="0"
     id="path38"
     style="fill:#febd73"
     d="m 23.673,56.932 c -1.137,0.155 -2.275,0.31 -3.412,0.479 l -0.033,-0.127 -0.089,-0.409 a 8.085,8.085 0 0 1 -0.177,-0.832 l -0.121,-0.592 3.324,-0.465 c 0.033,0.169 0.078,0.4 0.144,0.677 0.022,0.084 0.044,0.183 0.066,0.282 0.066,0.253 0.144,0.521 0.243,0.817 a 1.019,1.019 0 0 0 0.055,0.17 z" />
  <path
     inkscape:connector-curvature="0"
     id="path40"
     style="fill:#fab06b"
     d="m 29.22,63 h -6.31 l -0.15,-0.2 a 14.747,14.747 0 0 1 -1.22,-2.01 c -0.11,-0.21 -0.26,-0.54 -0.4,-0.86 -0.07,-0.18 -0.16,-0.38 -0.24,-0.56 -0.13,-0.35 -0.25,-0.7 -0.35,-1.03 -0.12,-0.33 -0.21,-0.63 -0.29,-0.93 V 57.4 c -0.01,-0.04 -0.02,-0.07 -0.03,-0.12 l -0.09,-0.4 C 20.05,56.54 20,56.27 19.96,56.04 l -0.12,-0.59 c 1.1,-0.15 2.22,-0.31 3.32,-0.46 0.04,0.17 0.08,0.39 0.15,0.67 0.02,0.09 0.04,0.19 0.06,0.28 0.07,0.26 0.15,0.53 0.25,0.82 a 0.845,0.845 0 0 0 0.05,0.17 4.61,4.61 0 0 0 0.2,0.55 c 0.06,0.14 0.12,0.3 0.19,0.45 0.08,0.19 0.17,0.38 0.26,0.57 a 12.588,12.588 0 0 0 0.89,1.45 c 0.15,0.2 0.31,0.41 0.48,0.61 A 8.066,8.066 0 0 0 29.22,63 Z" />
  <path
     inkscape:connector-curvature="0"
     id="path42"
     style="fill:#f9ba85"
     d="m 23.673,56.932 c -1.137,0.155 -2.275,0.31 -3.412,0.479 l -0.033,-0.127 -0.089,-0.409 a 8.085,8.085 0 0 1 -0.177,-0.832 l -0.121,-0.592 3.324,-0.465 c 0.033,0.169 0.078,0.4 0.144,0.677 0.022,0.084 0.044,0.183 0.066,0.282 0.066,0.253 0.144,0.521 0.243,0.817 a 1.019,1.019 0 0 0 0.055,0.17 z" />
  <path
     inkscape:connector-curvature="0"
     id="path44"
     style="fill:#fc8e52"
     d="m 44.16,55.45 -0.12,0.59 c -0.04,0.23 -0.09,0.5 -0.18,0.84 l -0.09,0.4 c -0.01,0.05 -0.02,0.08 -0.03,0.12 v 0.01 c -0.08,0.3 -0.17,0.6 -0.29,0.93 -0.1,0.33 -0.22,0.68 -0.36,1.03 -0.07,0.18 -0.16,0.38 -0.24,0.59 -0.13,0.29 -0.28,0.62 -0.45,0.93 A 13.367,13.367 0 0 1 41.24,62.8 L 41.09,63 h -6.31 a 5.851,5.851 0 0 0 0.56,-0.22 8.238,8.238 0 0 0 2.97,-2.22 v -0.01 q 0.18,-0.195 0.33,-0.39 v -0.01 a 0.55,0.55 0 0 0 0.07,-0.09 0.763,0.763 0 0 0 0.08,-0.11 c 0.01,-0.01 0.02,-0.02 0.02,-0.03 0.04,-0.06 0.08,-0.11 0.12,-0.17 0.01,0 0,-0.01 0,-0.01 a 2.408,2.408 0 0 0 0.27,-0.41 0.489,0.489 0 0 0 0.07,-0.11 c 0.15,-0.24 0.28,-0.47 0.4,-0.7 0.07,-0.14 0.13,-0.28 0.19,-0.41 a 1.417,1.417 0 0 0 0.08,-0.18 c 0.07,-0.16 0.14,-0.31 0.19,-0.45 a 3.439,3.439 0 0 0 0.14,-0.37 l 0.06,-0.15 v -0.01 c 0,-0.01 0,-0.01 0.01,-0.02 0.04,-0.11 0.07,-0.22 0.1,-0.33 0.08,-0.23 0.14,-0.44 0.19,-0.64 v -0.02 a 9.175,9.175 0 0 0 0.21,-0.95 c 1.1,0.15 2.22,0.31 3.32,0.46 z" />
  <path
     inkscape:connector-curvature="0"
     id="path46"
     style="fill:#3f51b5;fill-opacity:0"
     d="M 62.82,63 H 57.4 A 12.8,12.8 0 0 0 55.44,60.92 11.835,11.835 0 0 0 50.09,58.29 C 47.97,57.99 45.86,57.7 43.74,57.41 V 57.4 C 43.17,57.32 42.6,57.24 42.03,57.17 l -1.69,-0.24 h -0.01 a 0.845,0.845 0 0 0 0.05,-0.17 c 0.02,-0.06 0.04,-0.11 0.06,-0.16 0.08,-0.23 0.14,-0.44 0.19,-0.64 v -0.02 c 0.02,-0.09 0.04,-0.19 0.06,-0.28 0.07,-0.28 0.11,-0.5 0.15,-0.67 1.1,0.15 2.22,0.31 3.32,0.46 3.44,0.48 6.9,0.95 10.35,1.43 a 11.808,11.808 0 0 1 5.34,2.63 15.087,15.087 0 0 1 2.97,3.49 z" />
  <path
     inkscape:connector-curvature="0"
     id="path48"
     style="fill:#ed753a"
     d="m 40.327,56.932 c 1.138,0.155 2.276,0.31 3.413,0.479 l 0.033,-0.127 0.089,-0.409 a 7.787,7.787 0 0 0 0.176,-0.832 l 0.122,-0.592 -3.324,-0.465 c -0.034,0.169 -0.078,0.4 -0.144,0.677 -0.022,0.084 -0.044,0.183 -0.066,0.282 -0.067,0.253 -0.144,0.521 -0.243,0.817 a 0.939,0.939 0 0 1 -0.056,0.17 z" />
  <path
     inkscape:connector-curvature="0"
     id="path50"
     style="fill:#ffe0d2"
     d="m 52.007,24.5 a 1,1 0 0 1 1,1 v 4 a 3,3 0 0 1 -2.482,2.948 2.623,2.623 0 0 1 -0.518,0.052 h -1 v -8 z" />
  <path
     inkscape:connector-curvature="0"
     id="path52"
     style="fill:#ffd5c0"
     d="m 49.007,24.5 v 8 a 2.469,2.469 0 0 0 1,-0.206 3.39,3.39 0 0 0 2,-3.223 v -3.428 a 1.082,1.082 0 0 0 -1,-1.143 z" />
  <path
     inkscape:connector-curvature="0"
     id="path54"
     style="fill:#f9c9b4"
     d="m 49.007,31.357 a 1.559,1.559 0 0 0 0.639,-0.129 2.267,2.267 0 0 0 1.361,-2.157 v -3.428 h -2 z" />
  <path
     inkscape:connector-curvature="0"
     id="path56"
     style="fill:#ffd5c0"
     d="m 32,5.52 v 10.25 h -0.01 c -1.61,0.65 -3.32,1.3 -5.13,1.9 A 81.769,81.769 0 0 1 15.3,20.58 c -0.09,0.02 -0.18,0.03 -0.27,0.05 A 15.816,15.816 0 0 1 30.87,5.52 Z" />
  <path
     inkscape:connector-curvature="0"
     id="path58"
     style="fill:#ffd5c0"
     d="M 31.99,17.77 H 32 V 50.68 H 30.87 A 15.976,15.976 0 0 1 24.04,49.14 15.785,15.785 0 0 1 15,34.87 V 22.63 c 0.1,-0.02 0.2,-0.03 0.3,-0.05 a 81.769,81.769 0 0 0 11.56,-2.91 c 1.81,-0.6 3.52,-1.25 5.13,-1.9 z" />
  <path
     inkscape:connector-curvature="0"
     id="path60"
     style="fill:#ffe0d2"
     d="M 26.311,49.368 A 15.084,15.084 0 0 0 32,50.952 V 51 H 30.867 A 15.121,15.121 0 0 1 24.044,49.368 16.888,16.888 0 0 1 15,34.2 V 21.8 c 0.1,-0.024 0.2,-0.036 0.306,-0.06 0.635,-0.12 1.292,-0.252 1.961,-0.408 V 34.2 a 16.888,16.888 0 0 0 9.044,15.168 z" />
  <path
     inkscape:connector-curvature="0"
     id="path62"
     style="fill:#f9cebb"
     d="M 43.55,9.89 A 77.1,77.1 0 0 1 32,15.77 V 3 h 1.13 c 8.22,0 14.99,6.62 15.79,15.11 a 12.5,12.5 0 0 1 0.07,1.38 c -0.12,-0.08 -0.21,-0.16 -0.31,-0.23 a 11.005,11.005 0 0 1 -3.85,-4.93 c 0,0 -0.09,-0.25 -1.28,-4.44 z" />
  <path
     inkscape:connector-curvature="0"
     id="path64"
     style="fill:#f9cebb"
     d="M 49,21.5 V 34.2 A 16.925,16.925 0 0 1 39.97,49.37 15.221,15.221 0 0 1 33.13,51 H 32 V 17.77 a 77.1,77.1 0 0 0 11.55,-5.88 c 1.19,4.19 1.28,4.44 1.28,4.44 a 11.005,11.005 0 0 0 3.85,4.93 c 0.1,0.07 0.19,0.15 0.31,0.23 z" />
  <path
     inkscape:connector-curvature="0"
     id="path66"
     style="fill:#f2c8b6"
     d="M 49,20.568 V 34.2 A 16.886,16.886 0 0 1 39.956,49.368 15.12,15.12 0 0 1 33.134,51 H 32 V 50.952 A 15.089,15.089 0 0 0 37.69,49.368 16.888,16.888 0 0 0 46.734,34.2 V 19.8 c 0,-0.132 0,-0.276 -0.012,-0.408 -0.011,-0.384 -0.034,-0.78 -0.068,-1.152 a 14.664,14.664 0 0 0 2.04,2.076 C 48.8,20.4 48.887,20.484 49,20.568 Z" />
  <path
     inkscape:connector-curvature="0"
     id="path68"
     style="fill:#ddb3a6"
     d="m 49,19.8 v 0.768 C 48.887,20.484 48.8,20.4 48.694,20.316 a 14.664,14.664 0 0 1 -2.04,-2.076 17.072,17.072 0 0 0 -0.566,-3.168 14.361,14.361 0 0 0 2.606,2.844 c 0.08,0.06 0.136,0.12 0.216,0.18 0.011,0.1 0.022,0.2 0.034,0.312 a 2.546,2.546 0 0 1 0.022,0.3 c 0.012,0.228 0.023,0.456 0.023,0.684 C 49,19.524 49,19.668 49,19.8 Z" />
  <path
     inkscape:connector-curvature="0"
     id="path70"
     style="fill:#eabdad"
     d="m 48.375,19.731 a 2.241,2.241 0 0 1 0.022,0.282 c -0.011,-0.1 -0.022,-0.2 -0.033,-0.294 z" />
  <path
     inkscape:connector-curvature="0"
     id="path72"
     style="fill:#ffe0d2"
     d="m 12,24.5 a 1,1 0 0 0 -1,1 v 4 A 3,3 0 0 0 13.483,32.448 2.605,2.605 0 0 0 14,32.5 h 1 v -8 z" />
  <path
     inkscape:connector-curvature="0"
     id="path74"
     style="fill:#ffd5c0"
     d="m 15,24.5 v 8 A 2.469,2.469 0 0 1 14,32.294 3.39,3.39 0 0 1 12,29.071 V 25.643 A 1.082,1.082 0 0 1 13,24.5 Z" />
  <path
     inkscape:connector-curvature="0"
     id="path76"
     style="fill:#f9c9b4"
     d="M 15,31.357 A 1.554,1.554 0 0 1 14.362,31.228 2.266,2.266 0 0 1 13,29.071 v -3.428 h 2 z" />
  <rect
     id="rect78"
     y="23.4"
     x="46.734001"
     width="2.267"
     style="fill:#565556"
     height="1.2" />
  <path
     inkscape:connector-curvature="0"
     id="path80"
     style="fill:#565556"
     d="M 48.99,21.49 49,21.5 v 1.31 h -2.27 v -3.37 a 15.23,15.23 0 0 0 1.95,1.82 c 0.1,0.07 0.19,0.15 0.31,0.23 z" />
  <rect
     id="rect82"
     y="23.4"
     x="15"
     width="2.267"
     style="fill:#666666"
     height="1.2" />
  <path
     inkscape:connector-curvature="0"
     id="path84"
     style="fill:#666666"
     d="m 17.27,22.21 v 0.6 H 15 v -0.18 c 0.1,-0.02 0.2,-0.03 0.3,-0.05 0.64,-0.11 1.3,-0.24 1.97,-0.37 z" />
  <path
     inkscape:connector-curvature="0"
     id="path86"
     style="fill:#484749"
     d="m 31.992,1 v 14.767 c -1.609,0.655 -3.32,1.3 -5.132,1.9 A 82.231,82.231 0 0 1 15.3,20.578 c -0.9,0.166 -1.745,0.3 -2.572,0.422 V 17.667 C 12.731,8.467 21.365,1 31.992,1 Z" />
  <path
     inkscape:connector-curvature="0"
     id="path88"
     style="fill:#565556"
     d="M 31.992,1 V 1.122 C 22.43,2.089 15,9.133 15,17.667 v 2.966 C 14.218,20.778 13.471,20.889 12.734,21 V 17.667 C 12.731,8.467 21.365,1 31.992,1 Z" />
  <path
     inkscape:connector-curvature="0"
     id="path90"
     style="fill:#414043"
     d="M 51.253,17.667 V 21 a 22.415,22.415 0 0 1 -2.266,-1.511 c -0.113,-0.078 -0.2,-0.156 -0.306,-0.233 a 11.007,11.007 0 0 1 -3.852,-4.923 c 0,0 -0.091,-0.255 -1.28,-4.444 A 77.26,77.26 0 0 1 31.992,15.767 V 1 a 20.658,20.658 0 0 1 14.253,5.467 c 0.408,0.4 0.8,0.811 1.179,1.233 0.379,0.422 0.713,0.867 1.042,1.333 0.329,0.466 0.612,0.923 0.884,1.411 0.136,0.245 0.272,0.489 0.385,0.734 a 14.616,14.616 0 0 1 1.292,3.955 14.378,14.378 0 0 1 0.226,2.534 z" />
  <path
     inkscape:connector-curvature="0"
     id="path92"
     style="fill:#3d3d3d"
     d="M 51.253,17.667 V 21 A 22.415,22.415 0 0 1 48.987,19.489 V 17.667 C 48.987,9.133 41.555,2.089 31.992,1.122 V 1 a 20.658,20.658 0 0 1 14.253,5.467 15.341,15.341 0 0 1 1.179,1.233 13.412,13.412 0 0 1 1.042,1.333 14.352,14.352 0 0 1 0.884,1.411 c 0.136,0.245 0.272,0.489 0.385,0.734 a 14.616,14.616 0 0 1 1.292,3.955 14.378,14.378 0 0 1 0.226,2.534 z" />
  <path
     inkscape:connector-curvature="0"
     id="path94"
     style="fill:#565556"
     d="m 17.27,20.21 v 2 c -0.67,0.13 -1.33,0.26 -1.97,0.37 -0.1,0.02 -0.2,0.03 -0.3,0.05 v -1.31 c 0,-0.12 0,-0.26 0.01,-0.38 0,-0.1 0.01,-0.21 0.02,-0.31 0.09,-0.02 0.18,-0.03 0.27,-0.05 0.64,-0.11 1.3,-0.24 1.97,-0.37 z" />
  <path
     inkscape:connector-curvature="0"
     id="path96"
     style="fill:#f2c8b6"
     d="m 32,15.77 v 2 h -0.01 c -1.61,0.65 -3.32,1.3 -5.13,1.9 a 81.077,81.077 0 0 1 -9.59,2.54 v -2 a 81.077,81.077 0 0 0 9.59,-2.54 c 1.81,-0.6 3.52,-1.25 5.13,-1.9 z" />
  <path
     inkscape:connector-curvature="0"
     id="path98"
     style="fill:#484749"
     d="m 49,19.8 v 1.7 l -0.01,-0.01 c -0.12,-0.08 -0.21,-0.16 -0.31,-0.23 a 15.23,15.23 0 0 1 -1.95,-1.82 v -2 a 15.23,15.23 0 0 0 1.95,1.82 c 0.1,0.07 0.19,0.15 0.31,0.23 C 49,19.59 49,19.7 49,19.8 Z" />
  <path
     inkscape:connector-curvature="0"
     id="path100"
     style="fill:#eabdad"
     d="m 46.73,17.44 v 2 a 9.173,9.173 0 0 1 -1.9,-3.11 c 0,0 -0.09,-0.25 -1.28,-4.44 A 77.1,77.1 0 0 1 32,17.77 v -2 A 77.1,77.1 0 0 0 43.55,9.89 c 1.19,4.19 1.28,4.44 1.28,4.44 a 9.173,9.173 0 0 0 1.9,3.11 z" />
  <path
     inkscape:connector-curvature="0"
     id="path102"
     style="fill:#414043"
     d="M 38.4,45.3 A 0.507,0.507 0 0 1 38,45.5 0.492,0.492 0 0 1 37.7,45.4 9.6,9.6 0 0 0 32,43.5 v -1 a 10.641,10.641 0 0 1 6.3,2.1 0.5,0.5 0 0 1 0.1,0.7 z" />
  <path
     inkscape:connector-curvature="0"
     id="path104"
     style="fill:#484749"
     d="m 32,42.5 v 1 a 9.6,9.6 0 0 0 -5.7,1.9 0.5,0.5 0 0 1 -0.6,-0.8 10.641,10.641 0 0 1 6.3,-2.1 z" />
  <circle
     id="circle106"
     style="fill:#484749"
     r="1.5"
     cy="28"
     cx="26" />
  <circle
     id="circle108"
     style="fill:#414043"
     r="1.5"
     cy="28"
     cx="38" />
  <path
     inkscape:connector-curvature="0"
     id="path110"
     style="fill:#75eae2"
     d="m 34,39 1.716,3.885 a 3.477,3.477 0 0 1 -0.3,3.316 v 0 a 1.652,1.652 0 0 1 -2.825,0 v 0 a 3.477,3.477 0 0 1 -0.3,-3.316 z" />
  <path
     inkscape:connector-curvature="0"
     id="path112"
     style="fill:#565556"
     d="m 21,29.5 a 0.5,0.5 0 0 1 -0.194,-0.96 20.123,20.123 0 0 0 7.806,-5.855 0.50015723,0.50015723 0 0 1 0.777,0.63 A 21.108,21.108 0 0 1 21.2,29.46 0.5,0.5 0 0 1 21,29.5 Z" />
  <path
     inkscape:connector-curvature="0"
     id="path114"
     style="fill:#484749"
     d="M 43,29.5 A 0.5,0.5 0 0 1 42.806,29.46 21.108,21.108 0 0 1 34.612,23.315 0.50015723,0.50015723 0 0 1 35.389,22.685 20.123,20.123 0 0 0 43.2,28.54 0.5,0.5 0 0 1 43,29.5 Z" />
  <path
     inkscape:connector-curvature="0"
     id="path116"
     style="fill:#eabdad"
     d="m 34.43,39 h -1.69 a 2.3,2.3 0 0 0 2.02,-1.68 c 0.01,-0.01 0.02,-0.02 0.02,-0.03 a 4.414,4.414 0 0 0 0.15,-0.55 3.766,3.766 0 0 0 -0.03,-1.6 L 34.02,31.86 34.01,31.83 33.67,30 h 1.12 l 1.28,6.84 A 1.767,1.767 0 0 1 34.43,39 Z" />
  <polygon
     id="polygon118"
     style="fill:#eabdad"
     points="33.67,30 34.01,31.83 33.66,30 " />
  <path
     inkscape:connector-curvature="0"
     id="path120"
     style="fill:#eabdad"
     d="m 33.77,38.18 a 0.01,0.01 0 0 1 -0.01,0.01 v -0.01 z" />
  <path
     inkscape:connector-curvature="0"
     id="path122"
     style="fill:#f4b89a"
     d="m 31.99,30 v 8.25 h -1.31 a 1.948,1.948 0 0 1 -0.25,-0.02 1.6,1.6 0 0 1 -0.21,-0.05 h -0.01 a 1.468,1.468 0 0 1 -0.15,-0.34 0.935,0.935 0 0 1 -0.07,-0.22 c -0.01,-0.05 -0.02,-0.09 -0.03,-0.14 a 1.972,1.972 0 0 1 0.01,-0.64 L 31.26,30 Z" />
  <path
     inkscape:connector-curvature="0"
     id="path124"
     style="fill:#f4b89a"
     d="m 30.21,38.18 h 0.01 v 0.01 a 0.01,0.01 0 0 1 -0.01,-0.01 z" />
  <path
     inkscape:connector-curvature="0"
     id="path126"
     style="fill:#f4b89a"
     d="m 30.28,38.28 c 0.01,0.01 0.02,0.03 0.03,0.04 v 0.01 A 0.01,0.01 0 0 0 30.3,38.32 c -0.01,-0.01 -0.01,-0.03 -0.02,-0.04 z" />
  <path
     inkscape:connector-curvature="0"
     id="path128"
     style="fill:#f4b89a"
     d="m 30.38,38.41 -0.05,-0.05 a 0.138,0.138 0 0 0 0.04,0.03 c 0,0.01 0,0.01 0.01,0.02 z" />
  <polygon
     id="polygon130"
     style="fill:#efb297"
     points="33.67,30 34.01,31.83 33.66,30 " />
  <path
     inkscape:connector-curvature="0"
     id="path132"
     style="fill:#efb297"
     d="m 33.99,37.63 c -0.01,0.03 -0.02,0.06 -0.03,0.1 a 1.79,1.79 0 0 1 -0.19,0.45 h -0.01 a 1.691,1.691 0 0 1 -0.45,0.07 H 31.99 V 30 h 0.73 l 1.29,6.84 a 1.9,1.9 0 0 1 -0.02,0.79 z" />
  <path
     inkscape:connector-curvature="0"
     id="path134"
     style="fill:#efb297"
     d="m 33.77,38.18 a 0.01,0.01 0 0 1 -0.01,0.01 v -0.01 z" />
  <path
     inkscape:connector-curvature="0"
     id="path136"
     style="fill:#f7c4ad"
     d="m 30.06,37.84 a 1.468,1.468 0 0 0 0.15,0.34 1.71,1.71 0 0 1 -0.93,-0.75 3.528,3.528 0 0 1 -0.22,-0.74 v -0.01 a 3.824,3.824 0 0 1 0.04,-1.54 l 0.82,-3.03 0.01,-0.03 0.39,-2.08 h 0.94 l -1.29,6.84 a 1.972,1.972 0 0 0 -0.01,0.64 c 0.01,0.05 0.02,0.09 0.03,0.14 a 0.626,0.626 0 0 0 0.07,0.22 z" />
  <path
     inkscape:connector-curvature="0"
     id="path138"
     style="fill:#727172"
     d="m 30.21,38.18 h 0.01 v 0.01 a 0.01,0.01 0 0 1 -0.01,-0.01 z" />
  <path
     inkscape:connector-curvature="0"
     id="path140"
     style="fill:#727172"
     d="m 30.28,38.28 c 0.01,0.01 0.02,0.03 0.03,0.04 v 0.01 A 0.01,0.01 0 0 0 30.3,38.32 c -0.01,-0.01 -0.01,-0.03 -0.02,-0.04 z" />
  <path
     inkscape:connector-curvature="0"
     id="path142"
     style="fill:#727172"
     d="m 30.38,38.41 -0.05,-0.05 a 0.138,0.138 0 0 0 0.04,0.03 c 0,0.01 0,0.01 0.01,0.02 z" />
  <path
     inkscape:connector-curvature="0"
     id="path144"
     style="fill:#efae8e"
     d="m 34.93,36.74 a 4.414,4.414 0 0 1 -0.15,0.55 c 0,0.01 -0.01,0.02 -0.02,0.03 a 1.707,1.707 0 0 1 -0.99,0.86 1.79,1.79 0 0 0 0.19,-0.45 c 0.01,-0.04 0.02,-0.07 0.03,-0.1 a 1.9,1.9 0 0 0 0.02,-0.79 L 32.72,30 h 0.94 l 0.35,1.83 0.01,0.03 0.88,3.28 a 3.766,3.766 0 0 1 0.03,1.6 z" />
  <path
     inkscape:connector-curvature="0"
     id="path146"
     style="fill:#727172"
     d="m 33.77,38.18 a 0.01,0.01 0 0 1 -0.01,0.01 v -0.01 z" />
  <path
     inkscape:connector-curvature="0"
     id="path148"
     style="fill:#efb297"
     d="M 31.99,38.25 V 39 H 31.62 A 0.554,0.554 0 0 1 31.44,38.98 H 31.4 c -0.01,0 -0.01,0 -0.02,-0.01 A 0.127,0.127 0 0 1 31.32,38.96 0.066,0.066 0 0 1 31.26,38.95 0.06,0.06 0 0 1 31.22,38.94 0.775,0.775 0 0 1 30.99,38.87 0.941,0.941 0 0 1 30.77,38.75 0.01,0.01 0 0 1 30.76,38.74 0.381,0.381 0 0 1 30.63,38.65 0.883,0.883 0 0 1 30.41,38.44 L 30.38,38.41 C 30.37,38.4 30.37,38.4 30.37,38.39 a 0.138,0.138 0 0 1 -0.04,-0.03 c 0,-0.01 -0.01,-0.02 -0.02,-0.03 V 38.32 C 30.3,38.31 30.29,38.29 30.28,38.28 l -0.02,-0.02 c -0.01,-0.02 -0.03,-0.05 -0.04,-0.07 v -0.01 a 1.6,1.6 0 0 0 0.21,0.05 1.948,1.948 0 0 0 0.25,0.02 z" />
  <path
     inkscape:connector-curvature="0"
     id="path150"
     style="fill:#efb297"
     d="m 30.22,38.18 v 0.01 a 0.01,0.01 0 0 1 -0.01,-0.01 z" />
  <path
     inkscape:connector-curvature="0"
     id="path152"
     style="fill:#efb297"
     d="M 30.31,38.32 H 30.3 c -0.01,-0.01 -0.01,-0.03 -0.02,-0.04 0.01,0.01 0.02,0.03 0.03,0.04 z" />
  <path
     inkscape:connector-curvature="0"
     id="path154"
     style="fill:#efb297"
     d="m 30.38,38.41 -0.05,-0.05 a 0.138,0.138 0 0 0 0.04,0.03 c 0,0.01 0,0.01 0.01,0.02 z" />
  <path
     inkscape:connector-curvature="0"
     id="path156"
     style="fill:#f4b89a"
     d="m 31.62,39 h -0.35 a 2.253,2.253 0 0 1 -1.99,-1.57 1.71,1.71 0 0 0 0.93,0.75 0.01,0.01 0 0 0 0.01,0.01 c 0.01,0.02 0.03,0.05 0.04,0.07 l 0.02,0.02 c 0.01,0.01 0.01,0.03 0.02,0.04 a 0.01,0.01 0 0 1 0.01,0.01 c 0.01,0.01 0.02,0.02 0.02,0.03 l 0.05,0.05 0.03,0.03 a 0.883,0.883 0 0 0 0.22,0.21 0.381,0.381 0 0 0 0.13,0.09 0.01,0.01 0 0 0 0.01,0.01 0.941,0.941 0 0 0 0.22,0.12 0.775,0.775 0 0 0 0.23,0.07 0.06,0.06 0 0 0 0.04,0.01 0.066,0.066 0 0 0 0.06,0.01 0.127,0.127 0 0 0 0.06,0.01 c 0.01,0.01 0.01,0.01 0.02,0.01 a 0.019,0.019 0 0 0 0.03,0 h 0.01 A 0.554,0.554 0 0 0 31.62,39 Z" />
  <path
     inkscape:connector-curvature="0"
     id="path158"
     style="fill:#f4b89a"
     d="m 30.38,38.41 -0.05,-0.05 a 0.138,0.138 0 0 0 0.04,0.03 c 0,0.01 0,0.01 0.01,0.02 z" />
  <path
     inkscape:connector-curvature="0"
     id="path160"
     style="fill:#eaa688"
     d="M 34.76,37.32 A 2.3,2.3 0 0 1 32.74,39 h -0.37 a 1.492,1.492 0 0 0 0.21,-0.02 0.17,0.17 0 0 0 0.07,-0.01 0.235,0.235 0 0 0 0.08,-0.02 c 0.01,0.01 0.03,0 0.04,-0.01 a 0.127,0.127 0 0 0 0.06,-0.01 c 0.02,0 0.03,-0.01 0.05,-0.02 a 0.694,0.694 0 0 0 0.13,-0.05 c 0.01,0 0.01,0 0.02,-0.01 a 0.467,0.467 0 0 0 0.1,-0.05 0.086,0.086 0 0 0 0.06,-0.03 c 0.01,0 0.02,-0.01 0.04,-0.03 a 0.834,0.834 0 0 0 0.12,-0.08 0.5,0.5 0 0 0 0.11,-0.1 0.943,0.943 0 0 0 0.1,-0.1 1.052,1.052 0 0 0 0.2,-0.27 0.01,0.01 0 0 0 0.01,-0.01 1.707,1.707 0 0 0 0.99,-0.86 z" />
  <path
     inkscape:connector-curvature="0"
     id="path162"
     style="fill:#efae8e"
     d="m 33.76,38.18 v 0.01 a 1.89,1.89 0 0 1 -0.2,0.27 0.943,0.943 0 0 1 -0.1,0.1 0.5,0.5 0 0 1 -0.11,0.1 0.834,0.834 0 0 1 -0.12,0.08 c -0.02,0.02 -0.03,0.03 -0.04,0.03 a 0.086,0.086 0 0 1 -0.06,0.03 0.467,0.467 0 0 1 -0.1,0.05 c -0.01,0.01 -0.01,0.01 -0.02,0.01 a 0.694,0.694 0 0 1 -0.13,0.05 c -0.02,0.01 -0.03,0.02 -0.05,0.02 a 0.127,0.127 0 0 1 -0.06,0.01 c -0.01,0.01 -0.03,0.02 -0.04,0.01 a 0.235,0.235 0 0 1 -0.08,0.02 0.17,0.17 0 0 1 -0.07,0.01 1.492,1.492 0 0 1 -0.21,0.02 h -0.38 v -0.75 h 1.32 a 1.691,1.691 0 0 0 0.45,-0.07 z" />
  <path
     inkscape:connector-curvature="0"
     id="path164"
     style="fill:#efae8e"
     d="m 33.77,38.18 a 0.01,0.01 0 0 1 -0.01,0.01 v -0.01 z" />
</svg>
