<?xml version="1.0" encoding="UTF-8" standalone="no"?>
<svg
   xmlns:dc="http://purl.org/dc/elements/1.1/"
   xmlns:cc="http://creativecommons.org/ns#"
   xmlns:rdf="http://www.w3.org/1999/02/22-rdf-syntax-ns#"
   xmlns:svg="http://www.w3.org/2000/svg"
   xmlns="http://www.w3.org/2000/svg"
   xmlns:sodipodi="http://sodipodi.sourceforge.net/DTD/sodipodi-0.dtd"
   xmlns:inkscape="http://www.inkscape.org/namespaces/inkscape"
   viewBox="0 0 64 64"
   version="1.1"
   id="svg161"
   sodipodi:docname="svg1.svg"
   inkscape:version="0.92.5 (2060ec1f9f, 2020-04-08)">
  <metadata
     id="metadata167">
    <rdf:RDF>
      <cc:Work
         rdf:about="">
        <dc:format>image/svg+xml</dc:format>
        <dc:type
           rdf:resource="http://purl.org/dc/dcmitype/StillImage" />
      </cc:Work>
    </rdf:RDF>
  </metadata>
  <defs
     id="defs165" />
  <sodipodi:namedview
     pagecolor="#ffffff"
     bordercolor="#666666"
     borderopacity="1"
     objecttolerance="10"
     gridtolerance="10"
     guidetolerance="10"
     inkscape:pageopacity="0"
     inkscape:pageshadow="2"
     inkscape:window-width="1600"
     inkscape:window-height="873"
     id="namedview163"
     showgrid="false"
     inkscape:zoom="5.2149125"
     inkscape:cx="20.275532"
     inkscape:cy="22.949095"
     inkscape:window-x="0"
     inkscape:window-y="27"
     inkscape:window-maximized="1"
     inkscape:current-layer="svg161" />
  <title
     id="title2" />
  <path
     inkscape:connector-curvature="0"
     id="path4"
     style="fill:#3f62b5;fill-opacity:1"
     d="m 42.99,23.32 -0.03,0.2 a 9.329,9.329 0 0 1 -1.46,3.58 11.27,11.27 0 0 1 -8.71,4.87 l -0.12,0.01 C 32.38,32 32.03,32 32,32 v -3 c 3.99,0 7.43,-2.56 8.04,-6 z" />
  <path
     inkscape:connector-curvature="0"
     id="path6"
     style="fill:#3f51b5;fill-opacity:1"
     d="m 54.6,51 v 11.8 l 2,0.05 V 63 H 32 V 32 c 0.03,0 0.38,0 0.67,-0.02 l 0.12,-0.01 a 11.27,11.27 0 0 0 8.71,-4.87 9.329,9.329 0 0 0 1.46,-3.58 l 0.03,-0.2 9.39,1.02 a 12.229,12.229 0 0 1 4.84,1.87 C 62.4,29.65 62.93,50.02 63,51 Z" />
  <path
     inkscape:connector-curvature="0"
     id="path8"
     style="fill:#4566b5;fill-opacity:1"
     d="m 21.67,25.57 -7.05,0.77 A 12.229,12.229 0 0 0 9.78,28.21 C 5.48,31.07 4.38,45.59 4.1,51 H 1 C 1.07,50.02 1.6,29.65 6.78,26.21 a 12.229,12.229 0 0 1 4.84,-1.87 l 9.39,-1.02 0.03,0.2 a 9.033,9.033 0 0 0 0.38,1.42 c 0.03,0.1 0.07,0.19 0.11,0.29 a 3.454,3.454 0 0 0 0.14,0.34 z" />
  <path
     inkscape:connector-curvature="0"
     id="path10"
     style="fill:#3f51b5;fill-opacity:1"
     d="M 32,32 V 63 H 12.16 L 12.06,53 12.05,51 H 4.1 C 4.38,45.59 5.48,31.07 9.78,28.21 a 12.229,12.229 0 0 1 4.84,-1.87 l 7.05,-0.77 a 9.867,9.867 0 0 0 0.89,1.62 11.294,11.294 0 0 0 8.65,4.78 l 0.08,0.01 C 31.59,32 31.97,32 32,32 Z" />
  <path
     inkscape:connector-curvature="0"
     id="path12"
     style="fill:#ffd5c0"
     d="M 32,20.49 V 29 c -0.022,0 -0.365,0 -0.571,-0.02 H 31.406 C 31.315,28.96 31.2,28.95 31.106,28.93 A 1.013,1.013 0 0 1 30.877,28.89 6.382,6.382 0 0 1 26.7,26.51 c -0.149,-0.17 -0.275,-0.36 -0.412,-0.53 a 9.552,9.552 0 0 1 -0.743,-1.25 c -0.08,-0.16 -0.148,-0.33 -0.217,-0.48 0.114,-0.47 0.263,-1.03 0.4,-1.65 0.217,-0.92 0.446,-1.99 0.64,-3.06 a 11.7,11.7 0 0 0 2.846,0.8 11.589,11.589 0 0 0 1.863,0.15 z" />
  <path
     inkscape:connector-curvature="0"
     id="path14"
     style="fill:#ffd5c0"
     d="m 32,17 v 3.49 h -0.93 a 12.43,12.43 0 0 1 -4.7,-0.95 h -0.01 c 0.14,-0.79 0.28,-1.63 0.4,-2.54 z" />
  <path
     inkscape:connector-curvature="0"
     id="path16"
     style="fill:#ffe0d2"
     d="m 26.366,19.54 c -0.194,1.07 -0.423,2.14 -0.64,3.06 -0.137,0.62 -0.286,1.18 -0.4,1.65 -0.057,-0.14 -0.114,-0.27 -0.16,-0.39 -0.08,-0.22 -0.16,-0.43 -0.217,-0.62 -0.08,-0.26 -0.149,-0.49 -0.206,-0.71 -0.011,-0.08 -0.034,-0.17 -0.045,-0.24 -0.058,-0.25 -0.1,-0.44 -0.126,-0.59 0.046,-0.36 0.1,-0.73 0.16,-1.09 l 0.24,-1.74 c 0.023,0.01 0.034,0.02 0.057,0.03 a 10.037,10.037 0 0 0 1.337,0.64 z" />
  <path
     inkscape:connector-curvature="0"
     id="path18"
     style="fill:#f4cfc3"
     d="m 26.76,17 c -0.12,0.91 -0.26,1.75 -0.4,2.54 A 9.558,9.558 0 0 1 25.03,18.9 l -0.06,-0.03 c 0.09,-0.63 0.17,-1.25 0.25,-1.87 z" />
  <path
     inkscape:connector-curvature="0"
     id="path20"
     style="fill:#f2c8b6"
     d="m 32,17 v 3.49 h -0.93 a 12.43,12.43 0 0 1 -4.7,-0.95 h -0.01 c 0.14,-0.79 0.28,-1.63 0.4,-2.54 z" />
  <path
     inkscape:connector-curvature="0"
     id="path22"
     style="fill:#f9cebb"
     d="m 38.675,24.25 c -0.069,0.15 -0.137,0.32 -0.217,0.48 a 9.664,9.664 0 0 1 -0.743,1.25 c -0.137,0.17 -0.263,0.36 -0.412,0.53 a 6.381,6.381 0 0 1 -4.183,2.38 1.014,1.014 0 0 1 -0.228,0.04 c -0.092,0.02 -0.206,0.03 -0.3,0.05 H 32.569 C 32.363,29 32.02,29 31.997,29 v -8.51 h 0.926 a 11.589,11.589 0 0 0 1.863,-0.15 11.7,11.7 0 0 0 2.846,-0.8 c 0.194,1.07 0.423,2.14 0.64,3.06 0.14,0.62 0.288,1.18 0.403,1.65 z" />
  <path
     inkscape:connector-curvature="0"
     id="path24"
     style="fill:#ffd5c0"
     d="m 37.64,19.54 h -0.01 a 12.43,12.43 0 0 1 -4.7,0.95 H 32 V 17 h 5.24 c 0.12,0.91 0.26,1.75 0.4,2.54 z" />
  <path
     inkscape:connector-curvature="0"
     id="path26"
     style="fill:#f2c8b6"
     d="m 39.429,21.7 c -0.023,0.15 -0.069,0.34 -0.126,0.59 -0.011,0.07 -0.034,0.16 -0.045,0.24 -0.058,0.22 -0.126,0.45 -0.206,0.71 -0.057,0.19 -0.137,0.4 -0.217,0.62 -0.046,0.12 -0.1,0.25 -0.16,0.39 -0.115,-0.47 -0.263,-1.03 -0.4,-1.65 -0.217,-0.92 -0.446,-1.99 -0.64,-3.06 A 9.9,9.9 0 0 0 38.96,18.9 c 0.023,0 0.046,-0.02 0.069,-0.03 0.08,0.6 0.171,1.2 0.251,1.8 0.058,0.34 0.103,0.69 0.149,1.03 z" />
  <path
     inkscape:connector-curvature="0"
     id="path28"
     style="fill:#ffd5c0"
     d="M 32,20.49 V 29 c -0.022,0 -0.365,0 -0.571,-0.02 H 31.406 C 31.315,28.96 31.2,28.95 31.106,28.93 A 1.013,1.013 0 0 1 30.877,28.89 6.382,6.382 0 0 1 26.7,26.51 c -0.149,-0.17 -0.275,-0.36 -0.412,-0.53 a 9.552,9.552 0 0 1 -0.743,-1.25 c -0.08,-0.16 -0.148,-0.33 -0.217,-0.48 0.114,-0.47 0.263,-1.03 0.4,-1.65 0.217,-0.92 0.446,-1.99 0.64,-3.06 a 11.7,11.7 0 0 0 2.846,0.8 11.589,11.589 0 0 0 1.863,0.15 z" />
  <path
     inkscape:connector-curvature="0"
     id="path30"
     style="fill:#ffe0d2"
     d="m 26.366,19.54 c -0.194,1.07 -0.423,2.14 -0.64,3.06 -0.137,0.62 -0.286,1.18 -0.4,1.65 -0.057,-0.14 -0.114,-0.27 -0.16,-0.39 -0.08,-0.22 -0.16,-0.43 -0.217,-0.62 -0.08,-0.26 -0.149,-0.49 -0.206,-0.71 -0.011,-0.08 -0.034,-0.17 -0.045,-0.24 -0.058,-0.25 -0.1,-0.44 -0.126,-0.59 0.046,-0.36 0.1,-0.73 0.16,-1.09 l 0.24,-1.74 c 0.023,0.01 0.034,0.02 0.057,0.03 a 10.037,10.037 0 0 0 1.337,0.64 z" />
  <path
     inkscape:connector-curvature="0"
     id="path32"
     style="fill:#f9cebb"
     d="m 38.675,24.25 c -0.069,0.15 -0.137,0.32 -0.217,0.48 a 9.664,9.664 0 0 1 -0.743,1.25 c -0.137,0.17 -0.263,0.36 -0.412,0.53 a 6.381,6.381 0 0 1 -4.183,2.38 1.014,1.014 0 0 1 -0.228,0.04 c -0.092,0.02 -0.206,0.03 -0.3,0.05 H 32.569 C 32.363,29 32.02,29 31.997,29 v -8.51 h 0.926 a 11.589,11.589 0 0 0 1.863,-0.15 11.7,11.7 0 0 0 2.846,-0.8 c 0.194,1.07 0.423,2.14 0.64,3.06 0.14,0.62 0.288,1.18 0.403,1.65 z" />
  <path
     inkscape:connector-curvature="0"
     id="path34"
     style="fill:#f2c8b6"
     d="m 39.429,21.7 c -0.023,0.15 -0.069,0.34 -0.126,0.59 -0.011,0.07 -0.034,0.16 -0.045,0.24 -0.058,0.22 -0.126,0.45 -0.206,0.71 -0.057,0.19 -0.137,0.4 -0.217,0.62 -0.046,0.12 -0.1,0.25 -0.16,0.39 -0.115,-0.47 -0.263,-1.03 -0.4,-1.65 -0.217,-0.92 -0.446,-1.99 -0.64,-3.06 A 9.9,9.9 0 0 0 38.96,18.9 c 0.023,0 0.046,-0.02 0.069,-0.03 0.08,0.6 0.171,1.2 0.251,1.8 0.058,0.34 0.103,0.69 0.149,1.03 z" />
  <path
     inkscape:connector-curvature="0"
     id="path36"
     style="fill:#e5b6a8"
     d="m 39.03,18.87 a 11.787,11.787 0 0 1 -1.39,0.67 C 37.5,18.75 37.36,17.91 37.24,17 h 1.54 c 0.08,0.62 0.16,1.24 0.25,1.87 z" />
  <path
     inkscape:connector-curvature="0"
     id="path38"
     style="fill:#eabdad"
     d="m 37.64,19.54 h -0.01 a 12.43,12.43 0 0 1 -4.7,0.95 H 32 V 17 h 5.24 c 0.12,0.91 0.26,1.75 0.4,2.54 z" />
  <path
     inkscape:connector-curvature="0"
     id="path40"
     style="fill:#f9cebb"
     d="m 38.458,24.73 a 9.664,9.664 0 0 1 -0.743,1.25 c -0.137,0.17 -0.263,0.36 -0.412,0.53 a 6.381,6.381 0 0 1 -4.183,2.38 1.014,1.014 0 0 1 -0.228,0.04 c -0.092,0.02 -0.206,0.03 -0.3,0.05 A 8.3,8.3 0 0 0 39,25.444 L 38.674,24.25 c -0.068,0.15 -0.136,0.32 -0.216,0.48 z" />
  <path
     inkscape:connector-curvature="0"
     id="path42"
     style="fill:#f9cebb"
     d="m 39.28,20.67 c 0.058,0.34 0.1,0.69 0.149,1.03 -0.023,0.15 -0.069,0.34 -0.126,0.59 -0.011,0.07 -0.034,0.16 -0.045,0.24 -0.058,0.22 -0.126,0.45 -0.206,0.71 -0.057,0.19 -0.137,0.4 -0.217,0.62 -0.046,0.12 -0.1,0.25 -0.16,0.39 L 39,25.444 A 6.413,6.413 0 0 0 40,23 15.694,15.694 0 0 1 39.28,20.67 Z" />
  <path
     inkscape:connector-curvature="0"
     id="path44"
     style="fill:#ffe0d2"
     d="m 25.166,23.86 c -0.08,-0.22 -0.16,-0.43 -0.217,-0.62 -0.08,-0.26 -0.149,-0.49 -0.206,-0.71 -0.011,-0.08 -0.034,-0.17 -0.045,-0.24 -0.058,-0.25 -0.1,-0.44 -0.126,-0.59 0.046,-0.36 0.1,-0.73 0.16,-1.09 A 15.716,15.716 0 0 1 24,23 a 6.453,6.453 0 0 0 1.047,2.508 l 0.279,-1.258 c -0.057,-0.14 -0.114,-0.27 -0.16,-0.39 z" />
  <path
     inkscape:connector-curvature="0"
     id="path46"
     style="fill:#ffd5c0"
     d="M 30.88,28.89 A 6.382,6.382 0 0 1 26.7,26.51 c -0.149,-0.17 -0.275,-0.36 -0.412,-0.53 a 9.552,9.552 0 0 1 -0.743,-1.25 c -0.08,-0.16 -0.148,-0.33 -0.217,-0.48 l -0.279,1.258 a 8.317,8.317 0 0 0 6.359,3.472 c -0.091,-0.02 -0.206,-0.03 -0.3,-0.05 A 1.013,1.013 0 0 1 30.88,28.89 Z" />
  <path
     inkscape:connector-curvature="0"
     id="path48"
     style="fill:#3f62b5;fill-opacity:1"
     d="m 24.82,25.23 -0.81,0.09 -2.34,0.25 c -0.05,-0.11 -0.1,-0.23 -0.14,-0.34 A 2.488,2.488 0 0 1 21.42,24.94 9.033,9.033 0 0 1 21.04,23.52 L 21.01,23.32 23.96,23 a 6.128,6.128 0 0 0 0.86,2.23 z" />
  <path
     inkscape:connector-curvature="0"
     id="path50"
     style="fill:#4566b5;fill-opacity:1"
     d="m 42.33,25.57 7.05,0.77 a 12.229,12.229 0 0 1 4.84,1.87 c 4.3,2.86 5.4,17.38 5.68,22.79 H 63 C 62.93,50.02 62.4,29.65 57.22,26.21 a 12.229,12.229 0 0 0 -4.84,-1.87 l -9.39,-1.02 -0.03,0.2 a 9.033,9.033 0 0 1 -0.38,1.42 c -0.03,0.1 -0.07,0.19 -0.11,0.29 a 3.454,3.454 0 0 1 -0.14,0.34 z" />
  <path
     inkscape:connector-curvature="0"
     id="path52"
     style="fill:#3f62b5;fill-opacity:1"
     d="m 39.18,25.23 0.81,0.09 2.34,0.25 c 0.05,-0.11 0.1,-0.23 0.14,-0.34 a 2.488,2.488 0 0 0 0.11,-0.29 9.033,9.033 0 0 0 0.38,-1.42 L 42.99,23.32 40.04,23 a 6.128,6.128 0 0 1 -0.86,2.23 z" />
  <path
     inkscape:connector-curvature="0"
     id="path54"
     style="fill:#3f62b5;fill-opacity:1"
     d="m 32,29 v 3 c -0.03,0 -0.41,0 -0.71,-0.02 L 31.21,31.97 A 11.294,11.294 0 0 1 22.56,27.19 C 22.46,27.05 22.37,26.9 22.28,26.75 22.19,26.6 22.11,26.46 22.03,26.31 a 5.6,5.6 0 0 1 -0.36,-0.74 l 2.34,-0.25 0.81,-0.09 A 7.786,7.786 0 0 0 28.69,28.38 9.06,9.06 0 0 0 32,29 Z" />
  <path
     inkscape:connector-curvature="0"
     id="path56"
     style="fill:#ffd5c0"
     d="M 32,1 V 18.78 H 31 A 14,14 0 0 1 17,4.78 V 1 Z" />
  <path
     inkscape:connector-curvature="0"
     id="path58"
     style="fill:#ffe0d2"
     d="m 32,18.74 v 0.04 H 31 A 14,14 0 0 1 17,4.78 V 1 h 2 v 3.78 a 13.991,13.991 0 0 0 7.98,12.64 13.916,13.916 0 0 0 5.02,1.32 z" />
  <path
     inkscape:connector-curvature="0"
     id="path60"
     style="fill:#f9cebb"
     d="m 47,1 v 3.78 a 13.944,13.944 0 0 1 -4.04,9.84 14.724,14.724 0 0 1 -2.24,1.84 13.5,13.5 0 0 1 -1.7,0.96 A 13.983,13.983 0 0 1 33,18.78 H 32 V 1 Z" />
  <path
     inkscape:connector-curvature="0"
     id="path62"
     style="fill:#f2c8b6"
     d="m 47,1 v 3.78 a 13.944,13.944 0 0 1 -4.04,9.84 13.626,13.626 0 0 1 -2.24,1.84 13.5,13.5 0 0 1 -1.7,0.96 A 13.983,13.983 0 0 1 33,18.78 H 32 V 18.74 A 13.916,13.916 0 0 0 37.02,17.42 13.991,13.991 0 0 0 45,4.78 V 1 Z" />
  <path
     inkscape:connector-curvature="0"
     id="path64"
     style="fill:#ffd5c0"
     d="m 32,21.783 v 7 c -0.02,0 -0.39,0 -0.61,-0.02 -0.12,-0.01 -0.24,-0.02 -0.35,-0.04 a 0.986,0.986 0 0 1 -0.24,-0.03 7.7,7.7 0 0 1 -4.51,-1.96 c -0.16,-0.14 -0.3,-0.29 -0.44,-0.43 a 7.982,7.982 0 0 1 -0.8,-1.03 4.231,4.231 0 0 1 -0.24,-0.4 c 0.13,-0.38 0.28,-0.84 0.43,-1.35 0.24,-0.76 0.48,-1.64 0.69,-2.52 a 16.155,16.155 0 0 0 3.07,0.66 16.647,16.647 0 0 0 2,0.12 z" />
  <path
     inkscape:connector-curvature="0"
     id="path66"
     style="fill:#ffd5c0"
     d="m 32,18.783 v 3 H 31 A 16.647,16.647 0 0 1 29,21.663 16.155,16.155 0 0 1 25.93,21 c 0.21,-0.9 0.41,-1.89 0.58,-2.97 a 12.924,12.924 0 0 0 2.49,0.6 13.168,13.168 0 0 0 2,0.15 z" />
  <path
     inkscape:connector-curvature="0"
     id="path68"
     style="fill:#ffe0d2"
     d="m 25.93,21 c -0.21,0.88 -0.45,1.76 -0.69,2.52 -0.15,0.51 -0.3,0.97 -0.43,1.35 -0.06,-0.11 -0.12,-0.22 -0.17,-0.32 a 5.45,5.45 0 0 1 -0.23,-0.51 c -0.09,-0.21 -0.16,-0.4 -0.22,-0.58 -0.02,-0.07 -0.04,-0.14 -0.06,-0.2 -0.06,-0.2 -0.1,-0.36 -0.13,-0.48 0.14,-0.78 0.29,-1.55 0.43,-2.33 a 15.816,15.816 0 0 0 1.5,0.55 z" />
  <path
     inkscape:connector-curvature="0"
     id="path70"
     style="fill:#f4cfc3"
     d="m 26.51,18.033 c -0.17,1.08 -0.37,2.07 -0.58,2.97 a 15.816,15.816 0 0 1 -1.5,-0.55 c 0.18,-1.01 0.36,-2.02 0.55,-3.03 a 10.254,10.254 0 0 0 0.96,0.41 4.3,4.3 0 0 0 0.57,0.2 z" />
  <path
     inkscape:connector-curvature="0"
     id="path72"
     style="fill:#f2c8b6"
     d="m 32,18.783 v 3 H 31 A 16.647,16.647 0 0 1 29,21.663 16.155,16.155 0 0 1 25.93,21 c 0.21,-0.9 0.41,-1.89 0.58,-2.97 a 12.924,12.924 0 0 0 2.49,0.6 13.168,13.168 0 0 0 2,0.15 z" />
  <path
     inkscape:connector-curvature="0"
     id="path74"
     style="fill:#f9cebb"
     d="m 32,21.783 v 7 c 0.02,0 0.39,0 0.61,-0.02 0.12,-0.01 0.24,-0.02 0.35,-0.04 a 0.986,0.986 0 0 0 0.24,-0.03 7.7,7.7 0 0 0 4.51,-1.96 c 0.16,-0.14 0.3,-0.29 0.44,-0.43 a 7.982,7.982 0 0 0 0.8,-1.03 4.231,4.231 0 0 0 0.24,-0.4 c -0.13,-0.38 -0.28,-0.84 -0.43,-1.35 -0.24,-0.76 -0.48,-1.64 -0.69,-2.52 a 16.155,16.155 0 0 1 -3.07,0.66 16.647,16.647 0 0 1 -2,0.12 z" />
  <path
     inkscape:connector-curvature="0"
     id="path76"
     style="fill:#ffd5c0"
     d="m 32,18.783 v 3 h 1 A 16.647,16.647 0 0 0 35,21.663 16.155,16.155 0 0 0 38.07,21 c -0.21,-0.9 -0.41,-1.89 -0.58,-2.97 a 12.924,12.924 0 0 1 -2.49,0.6 13.168,13.168 0 0 1 -2,0.15 z" />
  <path
     inkscape:connector-curvature="0"
     id="path78"
     style="fill:#f2c8b6"
     d="m 38.07,21 c 0.21,0.88 0.45,1.76 0.69,2.52 0.15,0.51 0.3,0.97 0.43,1.35 0.06,-0.11 0.12,-0.22 0.17,-0.32 a 5.45,5.45 0 0 0 0.23,-0.51 c 0.09,-0.21 0.16,-0.4 0.22,-0.58 0.02,-0.07 0.04,-0.14 0.06,-0.2 0.06,-0.2 0.1,-0.36 0.13,-0.48 C 39.86,22 39.71,21.23 39.57,20.45 A 15.816,15.816 0 0 1 38.07,21 Z" />
  <path
     inkscape:connector-curvature="0"
     id="path80"
     style="fill:#ffd5c0"
     d="m 32,21.783 v 7 c -0.02,0 -0.39,0 -0.61,-0.02 -0.12,-0.01 -0.24,-0.02 -0.35,-0.04 a 0.986,0.986 0 0 1 -0.24,-0.03 7.7,7.7 0 0 1 -4.51,-1.96 c -0.16,-0.14 -0.3,-0.29 -0.44,-0.43 a 7.982,7.982 0 0 1 -0.8,-1.03 4.231,4.231 0 0 1 -0.24,-0.4 c 0.13,-0.38 0.28,-0.84 0.43,-1.35 0.24,-0.76 0.48,-1.64 0.69,-2.52 a 16.155,16.155 0 0 0 3.07,0.66 16.647,16.647 0 0 0 2,0.12 z" />
  <path
     inkscape:connector-curvature="0"
     id="path82"
     style="fill:#ffe0d2"
     d="m 25.93,21 c -0.21,0.88 -0.45,1.76 -0.69,2.52 -0.15,0.51 -0.3,0.97 -0.43,1.35 -0.06,-0.11 -0.12,-0.22 -0.17,-0.32 a 5.45,5.45 0 0 1 -0.23,-0.51 c -0.09,-0.21 -0.16,-0.4 -0.22,-0.58 -0.02,-0.07 -0.04,-0.14 -0.06,-0.2 -0.06,-0.2 -0.1,-0.36 -0.13,-0.48 0.14,-0.78 0.29,-1.55 0.43,-2.33 a 15.816,15.816 0 0 0 1.5,0.55 z" />
  <path
     inkscape:connector-curvature="0"
     id="path84"
     style="fill:#f9cebb"
     d="m 32,21.783 v 7 c 0.02,0 0.39,0 0.61,-0.02 0.12,-0.01 0.24,-0.02 0.35,-0.04 a 0.986,0.986 0 0 0 0.24,-0.03 7.7,7.7 0 0 0 4.51,-1.96 c 0.16,-0.14 0.3,-0.29 0.44,-0.43 a 7.982,7.982 0 0 0 0.8,-1.03 4.231,4.231 0 0 0 0.24,-0.4 c -0.13,-0.38 -0.28,-0.84 -0.43,-1.35 -0.24,-0.76 -0.48,-1.64 -0.69,-2.52 a 16.155,16.155 0 0 1 -3.07,0.66 16.647,16.647 0 0 1 -2,0.12 z" />
  <path
     inkscape:connector-curvature="0"
     id="path86"
     style="fill:#f2c8b6"
     d="m 38.07,21 c 0.21,0.88 0.45,1.76 0.69,2.52 0.15,0.51 0.3,0.97 0.43,1.35 0.06,-0.11 0.12,-0.22 0.17,-0.32 a 5.45,5.45 0 0 0 0.23,-0.51 c 0.09,-0.21 0.16,-0.4 0.22,-0.58 0.02,-0.07 0.04,-0.14 0.06,-0.2 0.06,-0.2 0.1,-0.36 0.13,-0.48 C 39.86,22 39.71,21.23 39.57,20.45 A 15.816,15.816 0 0 1 38.07,21 Z" />
  <path
     inkscape:connector-curvature="0"
     id="path88"
     style="fill:#e5b6a8"
     d="m 37.49,18.033 c 0.17,1.08 0.37,2.07 0.58,2.97 a 15.816,15.816 0 0 0 1.5,-0.55 c -0.18,-1.01 -0.36,-2.02 -0.55,-3.03 a 10.254,10.254 0 0 1 -0.96,0.41 4.3,4.3 0 0 1 -0.57,0.2 z" />
  <path
     inkscape:connector-curvature="0"
     id="path90"
     style="fill:#eabdad"
     d="m 32,18.783 v 3 h 1 A 16.647,16.647 0 0 0 35,21.663 16.155,16.155 0 0 0 38.07,21 c -0.21,-0.9 -0.41,-1.89 -0.58,-2.97 a 12.924,12.924 0 0 1 -2.49,0.6 13.168,13.168 0 0 1 -2,0.15 z" />
  <path
     inkscape:connector-curvature="0"
     id="path92"
     style="fill:#484749"
     d="m 32,10.5 v 1.21 l -1.65,1.64 a 0.483,0.483 0 0 1 -0.7,0 L 28,11.71 26.35,13.35 a 0.495,0.495 0 0 1 -0.7,-0.7 l 2,-2 a 0.483,0.483 0 0 1 0.7,0 L 30,12.29 31.65,10.65 A 0.469,0.469 0 0 1 32,10.5 Z" />
  <path
     inkscape:connector-curvature="0"
     id="path94"
     style="fill:#414043"
     d="m 38.35,13.35 a 0.483,0.483 0 0 1 -0.7,0 L 36,11.71 34.35,13.35 a 0.483,0.483 0 0 1 -0.7,0 L 32,11.71 V 10.5 a 0.469,0.469 0 0 1 0.35,0.15 l 1.65,1.64 1.65,-1.64 a 0.483,0.483 0 0 1 0.7,0 l 2,2 a 0.483,0.483 0 0 1 0,0.7 z" />
  <path
     inkscape:connector-curvature="0"
     id="path96"
     style="fill:#eabdad"
     d="M 34.73,5.56 33.87,1 H 31.63 L 30.77,5.56 A 1.179,1.179 0 0 0 31.87,7 h 1.76 a 1.179,1.179 0 0 0 1.1,-1.44 z" />
  <path
     inkscape:connector-curvature="0"
     id="path98"
     style="fill:#f4b89a"
     d="M 32,1 V 7 H 31.12 A 1.179,1.179 0 0 1 30.02,5.56 L 30.88,1 Z" />
  <path
     inkscape:connector-curvature="0"
     id="path100"
     style="fill:#efb297"
     d="M 32.88,7 H 32 V 1 h 1.12 l 0.86,4.56 A 1.179,1.179 0 0 1 32.88,7 Z" />
  <path
     inkscape:connector-curvature="0"
     id="path102"
     style="fill:#f7c4ad"
     d="M 31.75,7 H 31.12 A 1.179,1.179 0 0 1 30.02,5.56 L 30.88,1 h 0.63 L 30.65,5.56 A 1.179,1.179 0 0 0 31.75,7 Z" />
  <path
     inkscape:connector-curvature="0"
     id="path104"
     style="fill:#efae8e"
     d="m 32.248,7 h 0.63 a 1.179,1.179 0 0 0 1.1,-1.44 L 33.118,1 h -0.63 l 0.86,4.56 A 1.179,1.179 0 0 1 32.248,7 Z" />
  <path
     inkscape:connector-curvature="0"
     id="path106"
     style="fill:#efb297"
     d="M 32,6.5 V 7 H 31.75 A 1.085,1.085 0 0 1 30.81,6.45 1.059,1.059 0 0 0 31.12,6.5 Z" />
  <path
     inkscape:connector-curvature="0"
     id="path108"
     style="fill:#f4b89a"
     d="M 31.75,7 H 31.12 A 1.179,1.179 0 0 1 30.02,5.56 1.212,1.212 0 0 0 30.81,6.45 1.085,1.085 0 0 0 31.75,7 Z" />
  <path
     inkscape:connector-curvature="0"
     id="path110"
     style="fill:#eaa688"
     d="M 32.88,7 H 32.25 A 1.085,1.085 0 0 0 33.19,6.45 1.212,1.212 0 0 0 33.98,5.56 1.179,1.179 0 0 1 32.88,7 Z" />
  <path
     inkscape:connector-curvature="0"
     id="path112"
     style="fill:#efae8e"
     d="M 33.19,6.45 A 1.085,1.085 0 0 1 32.25,7 H 32 V 6.5 h 0.88 a 1.059,1.059 0 0 0 0.31,-0.05 z" />
  <polygon
     id="polygon114"
     style="fill:#eabdad"
     points="54.6,62.8 54.6,52.6 56.6,54.6 56.6,62.85 " />
  <polygon
     id="polygon116"
     style="fill:#f2cabb"
     points="54.6,52.6 54.6,51 56.6,51 56.6,54.6 " />
  <polygon
     id="polygon118"
     style="fill:#f2cabb"
     points="62,63 56.6,62.85 56.6,54.6 63,61 63,63 " />
  <polygon
     id="polygon120"
     style="fill:#f9cebb"
     points="56.6,54.6 56.6,51 63,51 63,61 " />
  <path
     inkscape:connector-curvature="0"
     id="path122"
     style="fill:#ffd5c0"
     d="M 40,49 39.84,49.49 39,52 29.69,46.41 a 1.012,1.012 0 0 1 -0.44,-1.17 l 0.31,-0.91 a 1.224,1.224 0 0 1 0.51,-0.68 0.948,0.948 0 0 1 1,-0.01 l 8.28,4.97 z" />
  <path
     inkscape:connector-curvature="0"
     id="path124"
     style="fill:#ffd5c0"
     d="M 41.08,45.81 40.94,46.22 40.17,48.51 40,49 39.35,48.61 31.07,43.64 30.69,43.41 a 1.045,1.045 0 0 1 -0.49,-0.85 1.248,1.248 0 0 1 0.05,-0.32 l 0.36,-1.08 A 0.919,0.919 0 0 1 31,40.65 0.992,0.992 0 0 1 32.05,40.61 l 7.67,4.41 z" />
  <path
     inkscape:connector-curvature="0"
     id="path126"
     style="fill:#ffd5c0"
     d="m 45,44 -0.53,0.25 -2.78,1.28 -0.61,0.28 -1.36,-0.79 -7.67,-4.41 -0.34,-0.2 a 0.968,0.968 0 0 1 -0.49,-0.79 0.913,0.913 0 0 1 0.04,-0.4 l 0.36,-1.09 a 0.975,0.975 0 0 1 0.48,-0.57 1.028,1.028 0 0 1 0.95,0 l 7.04,3.8 z" />
  <path
     inkscape:connector-curvature="0"
     id="path128"
     style="fill:#ffd5c0"
     d="M 62.79,63 H 51 L 46,59 39,57 32.59,51.51 A 1,1 0 0 1 32.35,50.3 l 0.2,-0.41 a 1,1 0 0 1 1.34,-0.44 L 39,52 l 0.29,-2.84 0.12,-1.1 0.26,-2.55 0.05,-0.49 0.06,-0.6 0.26,-2.56 0.05,-0.5 0.04,-0.36 0.08,-0.19 0.41,-0.94 a 1.006,1.006 0 0 1 1.27,-0.54 l 5.08,1.91 a 3.98,3.98 0 0 1 2.5,2.88 L 51,51 l 6,6 4.73,4.9 z" />
  <path
     inkscape:connector-curvature="0"
     id="path130"
     style="fill:#f9cebb"
     d="M 53.76,63 H 51 L 46,59 39,57 32.59,51.51 A 1,1 0 0 1 32.35,50.3 l 0.2,-0.41 a 1,1 0 0 1 1.34,-0.44 l 1.31,0.66 -0.09,0.19 a 1,1 0 0 0 0.24,1.21 l 6.41,5.49 7,2 z" />
  <rect
     id="rect132"
     y="51"
     x="3"
     width="12"
     style="fill:#ffd5c0"
     height="12" />
  <polygon
     id="polygon134"
     style="fill:#f2c8b6"
     points="13,63 13,53 3,53 3,51 15,51 15,63 " />
  <path
     inkscape:connector-curvature="0"
     id="path136"
     style="fill:#e77973"
     d="m 27,36 a 1,1 0 0 1 -0.833,-0.445 l -3.322,-4.985 -2.156,2.156 a 2,2 0 0 1 -3.2,-0.52 l -2.38,-4.759 a 1,1 0 1 1 1.789,-0.894 l 2.38,4.759 2.156,-2.157 a 1.959,1.959 0 0 1 1.611,-0.575 1.991,1.991 0 0 1 1.467,0.88 l 3.323,4.985 A 1,1 0 0 1 27,36 Z" />
  <path
     inkscape:connector-curvature="0"
     id="path138"
     style="fill:#e77973"
     d="m 37,36 a 1,1 0 0 1 -0.831,-1.555 l 3.324,-4.985 a 1.991,1.991 0 0 1 1.466,-0.88 1.966,1.966 0 0 1 1.612,0.575 l 2.156,2.157 2.38,-4.759 a 1,1 0 1 1 1.789,0.894 l -2.38,4.76 a 2,2 0 0 1 -3.2,0.52 l -2.157,-2.158 -3.324,4.986 A 1,1 0 0 1 37,36 Z" />
  <path
     inkscape:connector-curvature="0"
     id="path140"
     style="fill:#e77973"
     d="m 13,48 a 1,1 0 0 1 -0.555,-1.832 l 5.318,-3.545 a 2.008,2.008 0 0 1 2.523,0.249 l 2.558,2.559 3.323,-4.986 a 1.0001245,1.0001245 0 0 1 1.664,1.11 l -3.322,4.985 a 1.991,1.991 0 0 1 -1.467,0.88 1.97,1.97 0 0 1 -1.611,-0.575 l -2.558,-2.558 -5.318,3.545 A 0.994,0.994 0 0 1 13,48 Z" />
  <path
     inkscape:connector-curvature="0"
     id="path142"
     style="fill:#e77973"
     d="m 17.2,39.784 a 1.994,1.994 0 0 1 -1.414,-0.587 l -3.491,-3.49 a 1,1 0 0 1 1.414,-1.414 l 3.491,3.49 3.024,-1.512 a 1.993,1.993 0 0 1 1.38,-0.151 l 3.641,0.91 a 1,1 0 0 1 -0.485,1.94 l -3.641,-0.91 -3.025,1.512 A 2,2 0 0 1 17.2,39.784 Z" />
  <path
     inkscape:connector-curvature="0"
     id="path144"
     style="fill:#ffe0d2"
     d="m 42.7,40.286 -0.66,1.318 -1.285,-0.56 a 1.1,1.1 0 0 1 0.824,-1.286 z" />
  <path
     inkscape:connector-curvature="0"
     id="path146"
     style="fill:#ffe0d2"
     d="m 33.8,38.769 -0.66,1.319 -1.285,-0.561 a 1.1,1.1 0 0 1 0.824,-1.285 z" />
  <path
     inkscape:connector-curvature="0"
     id="path148"
     style="fill:#ffe0d2"
     d="m 32.88,41.8 -0.66,1.319 -1.286,-0.561 a 1.1,1.1 0 0 1 0.825,-1.285 z" />
  <path
     inkscape:connector-curvature="0"
     id="path150"
     style="fill:#ffe0d2"
     d="m 31.89,44.868 -0.659,1.319 -1.286,-0.561 a 1.1,1.1 0 0 1 0.825,-1.285 z" />
  <path
     inkscape:connector-curvature="0"
     id="path152"
     style="fill:#ffe0d2"
     d="M 34.693,50.242 34.033,51.56 32.748,51 a 1.1,1.1 0 0 1 0.824,-1.286 z" />
  <path
     inkscape:connector-curvature="0"
     id="path154"
     style="fill:#eabdad"
     d="m 40.57,49.34 a 0.507,0.507 0 0 1 -0.43,0.24 0.484,0.484 0 0 1 -0.26,-0.07 l -0.04,-0.02 -0.55,-0.33 -9.22,-5.51 a 0.948,0.948 0 0 1 1,-0.01 L 30.69,43.41 A 1.045,1.045 0 0 1 30.2,42.56 l 9.21,5.5 0.76,0.45 0.23,0.14 a 0.511,0.511 0 0 1 0.17,0.69 z" />
  <path
     inkscape:connector-curvature="0"
     id="path156"
     style="fill:#eabdad"
     d="M 41.76,46.11 A 0.505,0.505 0 0 1 41.33,46.37 0.553,0.553 0 0 1 41.08,46.3 L 40.94,46.22 39.67,45.51 31,40.65 a 0.992,0.992 0 0 1 1.05,-0.04 l -0.34,-0.2 a 0.968,0.968 0 0 1 -0.49,-0.79 l 8.56,4.8 1.79,1.01 a 0.4,0.4 0 0 1 0.12,0.1 0.482,0.482 0 0 1 0.07,0.58 z" />
  <path
     inkscape:connector-curvature="0"
     id="path158"
     style="fill:#eabdad"
     d="m 45.58,44.27 a 0.526,0.526 0 0 1 -0.45,0.27 0.465,0.465 0 0 1 -0.23,-0.06 l -0.43,-0.23 -4.43,-2.39 -7.94,-4.3 a 1.028,1.028 0 0 1 0.95,0 l 7.04,3.8 0.04,-0.36 0.08,-0.19 5.16,2.79 a 0.49,0.49 0 0 1 0.21,0.67 z" />
</svg>
